SplineFontDB: 3.0
FontName: UnifrakturCook-Light
FullName: UnifrakturCook Light
FamilyName: UnifrakturCook
Weight: Light
Copyright: Copyright (c) 2010-2013 j. 'mach' wust, jordigbras, Alexei Vanyashin with Reserved Font Name UnifrakturCook\nCopyright (c) 2009 Peter Wiegel.\n\nThis Font Software is licensed under the SIL Open Font License, Version 1.1.

StartChar: .notdef
Encoding: 65536 -1 0
Width: 2027
Flags: MW
HStem: -218 10<-51 -39> -115 15<-74 -51 12 22.5> -100 85<-74 -69 -74 -61 -74 -69 -74 25> 0 21G<-88 -88 -39 -29> 36 18<-3.5 -3 -3.5 2 -10 -3> 82 23 105 12 105 15 110 17<1106 1114 1106 1114> 112 12 123 15 132 19 139 15 156 38 179 21 256 15<34 34> 291 22 310 20<120 161 161 161> 325 20 335 64<727.5 760 756.5 760 756.5 794> 345 29<317 317 317 320 310 317> 359 30 402 20<1292.5 1295> 447 27<719 722> 476 20<727 727> 571 15 640 15<561 566> 652 19 679 26 684 20 1351 33 1436 28<917.5 942.5 1147.5 1154.5> 1475 10 1485 15 1508 12 1517 22 1540 12 1540 16 1577 19 1595 17<1178 1180 1175 1197> 1682 18<1236 1241 1236 1244> 1741 64<1187 1190 1187 1219> 1854 27<1112.5 1125.5 1101 1154> 1871 36 1964 10 2066 18<748.5 752> 2094 16<1290 1296>
VStem: -125 17 -110 17 -88 12 -85 11<53 61> -66 7 -44 15<122 122> -10 18 22 17<251 251> 39 15<-88 -80> 144 13 291 39<508.5 536.5 508.5 545.5> 416 16 464 18 561 13<609 640> 594 12 630 44<1616.5 1617> 642 23<1837.5 1872.5> 647 103 660 49<1726.5 1748.5> 727 30<466.5 497> 765 105 786 61 806 34<1389.5 1390 1390 1405> 904 12 919 25 955 36<234 237> 978 7 989 42<541 595 541 611> 1034 18<1495 1509> 1062 169<205 318 205 320.5> 1072 34 1077 13 1085 24<1569 1571> 1147 104 1190 44<1795 1795 1795 1805> 1244 175<1582 1682> 1249 18 1300 47<831 1040.5> 1311 25<1482.5 1495> 1334 33<519.5 522.5> 1380 30 1419 32 1434 20<684 684> 1544 13 1607 39 1676 44<1494 1638.5> 1707 19 1741 49 1837 49<1587.5 1624.5 1529.5 1715.5>
LayerCount: 2
Fore
SplineSet
899 1902 m 1x000000000014000052
 977 1907 l 1x000000010010000002
 1002 1907 1026 1903 1049 1894 c 0
 1073 1885 1093 1881 1109 1881 c 0
 1142 1881 1161 1882 1176 1899 c 0
 1193 1920 1209 1958 1224 2015 c 0
 1239 2072 1261 2104 1290 2110 c 1
 1297 2110 l 2
 1300 2110 1309 2094 1325 2061 c 0
 1357 1996 1377 1966 1390 1938 c 0
 1409 1897 1419 1866 1419 1844 c 1
 1410 1766 l 1x0000000000220000000020
 1410 1737 1417 1708 1430 1679 c 1x000000000040000000000080
 1458 1622 1464 1557 1412 1512 c 1
 1412 1507 1416 1505 1425 1505 c 0
 1434 1505 1439 1503 1439 1500 c 1
 1402 1500 l 1x0000000020000000000001
 1394 1497 1387 1492 1380 1485 c 1
 1490 1444 l 1
 1490 1440 1492 1442 1492 1439 c 1
 1490 1436 l 1
 1487 1439 l 1
 1480 1439 1476 1446 1472 1439 c 1
 1470 1441 1464 1456 1456 1446 c 1
 1441 1454 l 1
 1436 1454 l 2
 1426 1454 1415 1457 1403 1464 c 0
 1379 1479 1357 1478 1344 1467 c 1
 1333 1454 1335 1454 1339 1454 c 1
 1375 1434 l 1
 1350 1441 1336 1446 1331 1451 c 1x0000000080000000000005
 1324 1448 1305 1449 1292 1438 c 1
 1275 1426 1267 1403 1267 1369 c 0
 1267 1336 1276 1298 1295 1255 c 0
 1314 1213 1327 1171 1334 1129 c 1
 1343 1094 1347 1058 1347 1023 c 1
 1343 950 l 1
 1343 916 1347 883 1356 850 c 1
 1358 850 1366 862 1380 887 c 2
 1429 969 l 2
 1473 1043 1501 1087 1512 1101 c 1
 1548 1166 1590 1223 1617 1295 c 1
 1625 1311 l 1
 1629 1341 1638 1372 1653 1405 c 0
 1668 1438 1676 1474 1676 1514 c 0x000000008000000000001808
 1676 1595 1661 1641 1642 1692 c 1
 1619 1759 1607 1807 1607 1836 c 0
 1607 1866 1611 1890 1619 1909 c 0
 1627 1928 1644 1949 1671 1974 c 1
 1676 1974 l 2
 1680 1974 1687 1976 1697 1979 c 1
 1761 1964 l 1
 1821 1921 1860 1835 1878 1706 c 0
 1883 1671 1886 1639 1886 1610 c 0
 1886 1449 1821 1273 1690 1082 c 0
 1690 1081 1687 1079 1682 1077 c 1
 1661 1048 1621 997 1586 950 c 1
 1546 893 1526 857 1526 842 c 1
 1478 774 1454 718 1454 674 c 1x000000100008000000000051
 1461 664 1467 679 1490 679 c 1
 1578 712 1656 713 1695 676 c 1
 1736 625 l 1
 1808 485 1806 398 1741 342 c 0
 1708 314 1671 291 1629 273 c 0
 1587 255 1546 241 1507 231 c 0
 1468 222 1443 215 1431 212 c 1
 1402 211 1371 206 1338 198 c 2
 1262 181 l 1
 1257 171 1255 159 1256 146 c 0
 1257 133 1248 125 1229 122 c 1x002000040000000000000042
 1216 125 l 1
 1202 112 1179 105 1147 105 c 1
 1116 112 l 1
 1109 110 l 1
 1106 110 l 1
 1070 130 l 1x0100000000000000000080
 1057 156 l 1
 1014 156 l 1
 996 110 l 1
 981 103 974 103 947 110 c 1
 942 92 l 1x02040000000000000a
 935 85 930 89 919 82 c 1x04000000000000000a
 884 107 l 1
 881 102 l 1
 877 102 l 1
 877 107 l 1
 871 105 865 96 865 92 c 1
 860 92 l 1
 840 104 830 127 830 161 c 1
 809 172 778 164 755 171 c 1
 699 179 l 1
 668 179 634 184 596 195 c 0
 559 206 538 214 535 217 c 1x01020000000000004a
 458 236 401 253 363 268 c 0
 326 283 295 291 271 291 c 2
 212 291 l 1
 195 297 l 1
 120 284 l 1
 165 237 162 198 149 174 c 1
 97 151 l 1
 91 141 87 136 85 136 c 1x0010800000000080
 85 133 79 126 66 115 c 1
 36 110 l 1
 29 117 l 1
 -20 139 l 1
 -26 139 -29 133 -29 122 c 2
 -29 117 l 2
 -29 116 -28 115 -25 115 c 1x0040000000000880
 34 87 l 1
 41 72 45 65 20 41 c 1
 18 41 12 39 2 36 c 1
 -10 36 l 1
 -34 46 l 1
 -59 74 l 1x08400000000012
 -74 61 l 1
 -74 45 -54 41 -33 32 c 1
 1 21 17 -2 2 -25 c 1
 2 -31 l 1
 12 -38 23 -42 35 -43 c 0
 48 -45 54 -55 54 -73 c 0
 54 -109 35 -115 10 -115 c 1
 -44 -110 l 1
 -49 -113 l 2
 -50 -113 -51 -114 -51 -115 c 2x48000000000025
 0 -213 l 1
 -5 -223 l 1
 -19 -223 -36 -196 -55 -142 c 0
 -67 -108 -56 -107 -61 -100 c 1
 -74 -100 l 1
 -75 -102 -76 -106 -76 -112 c 2
 -76 -130 l 2
 -76 -136 -75 -143 -74 -151 c 1
 -39 -208 l 1
 -44 -218 l 1
 -51 -218 l 1
 -58 -201 -67 -185 -78 -168 c 0
 -89 -152 -95 -133 -95 -110 c 1xa0000000000040
 -86 -101 -82 -101 -106 -69 c 1x400000000001
 -131 -38 -132 -18 -105 22 c 1
 -112 45 -117 77 -89 96 c 0
 -76 105 -68 114 -66 123 c 0
 -65 132 -60 142 -52 155 c 2
 2 237 l 1
 10 259 l 1
 29 271 l 1
 36 271 l 1
 64 312 l 1
 120 330 l 1
 161 330 l 1
 212 351 l 1x10014000000080
 317 374 l 2
 319 375 320 377 320 379 c 0
 301 436 291 484 291 525 c 0
 291 566 297 595 310 614 c 0
 323 633 341 653 364 676 c 1
 405 704 l 1
 415 706 l 1
 435 714 l 1
 432 714 l 1
 435 714 l 2
 436 714 439 715 442 716 c 1x0000080800000040
 501 707 554 687 601 655 c 1
 604 655 611 670 622 700 c 0
 645 758 662 797 673 818 c 0
 685 839 694 867 700 900 c 1
 723 999 715 1114 757 1216 c 1
 760 1249 769 1281 784 1312 c 0
 799 1343 806 1374 806 1405 c 1
 804 1429 l 1
 765 1451 l 1
 722 1439 l 1
 709 1441 l 1
 690 1436 674 1428 661 1417 c 0
 648 1406 636 1400 625 1400 c 0
 604 1400 605 1402 601 1402 c 1
 735 1461 l 1
 696 1492 l 2
 695 1492 687 1489 672 1482 c 0
 657 1475 649 1472 647 1472 c 1
 652 1477 667 1486 691 1497 c 1
 662 1529 630 1557 630 1605 c 0x000000200000000204
 630 1629 635 1651 645 1671 c 0
 655 1692 660 1714 660 1739 c 0
 660 1764 654 1804 642 1859 c 1
 642 1886 653 1922 676 1966 c 0
 717 2045 741 2084 747 2084 c 2
 760 2084 l 2
 769 2084 782 2045 798 2006 c 0
 818 1954 833 1924 842 1917 c 0
 857 1907 876 1902 899 1902 c 1x000000000014000052
872 1477 m 1
 872 1468 889 1464 922 1464 c 0
 997 1464 1034 1478 1034 1505 c 0
 1034 1513 1025 1524 1008 1538 c 0
 973 1566 975 1572 982 1585 c 1
 982 1590 l 1
 1000 1595 1027 1597 1062 1597 c 1
 1090 1590 1106 1582 1109 1571 c 1
 1109 1566 l 1
 1052 1510 l 1
 1052 1495 l 1
 1054 1488 1057 1485 1062 1485 c 1
 1090 1477 l 1
 1115 1468 l 2x00000001020000000051
 1122 1465 1137 1464 1158 1464 c 0
 1179 1464 1199 1470 1216 1482 c 1
 1092 1502 l 1
 1077 1517 l 1
 1079 1528 1083 1535 1090 1536 c 1
 1091 1535 1095 1534 1102 1534 c 2
 1118 1534 l 2x00000001100000000002
 1123 1534 1138 1534 1161 1535 c 0
 1209 1536 1295 1525 1372 1521 c 1
 1389 1548 1419 1568 1419 1596 c 0
 1419 1624 1401 1652 1384 1680 c 1
 1361 1715 1349 1740 1349 1755 c 0x000000002000000000020080
 1349 1771 1354 1786 1364 1799 c 0
 1375 1813 1380 1832 1380 1857 c 0
 1380 1882 1372 1909 1355 1938 c 0
 1339 1967 1329 1989 1325 2004 c 2
 1310 2060 l 1
 1302 2083 1297 2094 1295 2094 c 0x0000000000020000000020
 1282 2094 1273 2084 1266 2064 c 2
 1253 2023 l 2
 1248 2008 1251 2010 1251 1990 c 2
 1251 1917 l 2
 1251 1886 1255 1860 1262 1837 c 1
 1261 1834 1258 1830 1255 1827 c 1
 1240 1844 1233 1865 1233 1890 c 2
 1234 1925 l 2
 1234 1943 1233 1960 1231 1976 c 1
 1223 1949 1213 1921 1200 1894 c 0
 1188 1867 1168 1854 1140 1854 c 0x0000000000220000000080
 1085 1854 1038 1879 991 1879 c 1
 911 1871 l 1
 858 1871 821 1892 799 1935 c 1
 792 1931 809 1908 809 1832 c 1
 801 1811 793 1805 786 1812 c 1
 786 1861 l 2
 786 1886 783 1909 778 1929 c 0x000000000010000008
 767 1969 762 1997 762 2012 c 1
 765 2012 768 2013 770 2015 c 1x000000000008000010
 765 2059 l 2
 765 2060 762 2064 757 2069 c 1
 750 2064 l 1
 752 2066 l 1
 745 2066 720 2005 677 1883 c 2x000000000004000080
 665 1849 l 1x0000000000200001
 665 1826 672 1807 687 1790 c 0
 702 1774 709 1757 709 1740 c 0x000000000020000040
 709 1707 701 1686 692 1669 c 1
 680 1649 674 1633 674 1622 c 0
 674 1611 676 1595 681 1574 c 0
 686 1554 693 1544 701 1544 c 2
 719 1546 l 1
 719 1541 l 1
 704 1539 l 1
 714 1512 l 1
 727 1507 l 1x0000000008000002
 891 1541 l 1x000000000400000040
 757 1539 l 1
 757 1542 762 1542 755 1549 c 1
 757 1551 l 1x000000000800000002
 799 1554 l 2
 800 1555 804 1556 809 1556 c 2
 884 1556 l 2x000000000400000008
 931 1556 955 1551 955 1541 c 0
 955 1540 953 1539 950 1539 c 2
 957 1539 l 2
 964 1539 970 1538 977 1536 c 1
 977 1528 975 1522 972 1517 c 1
 962 1517 l 1x000000001000000002
 957 1507 955 1501 955 1500 c 1
 957 1500 l 1
 947 1490 933 1485 916 1485 c 0x00000000400000000020
 899 1485 885 1482 872 1477 c 1
-44 -34 m 1x00002000000000000024
 -69 -15 l 1
 -74 -15 l 2
 -72 -15 -71 -23 -71 -39 c 1
 -61 -46 l 1
 -56 -45 -51 -41 -44 -34 c 1x00002000000000000024
-88 0 m 1
 -90 2 l 1
 -103 2 l 1
 -106 -1 -108 -12 -108 -29 c 0
 -108 -47 -95 -63 -69 -78 c 0
 -44 -93 -17 -100 12 -100 c 2
 25 -100 l 1
 39 -88 l 1
 39 -72 36 -62 31 -59 c 1
 7 -51 l 1x0008200000000000008080
 -6 -51 -16 -50 -23 -49 c 1
 -49 -56 l 2
 -49 -57 -56 -64 -44 -64 c 1
 -13 -59 l 1
 7 -61 l 1
 12 -71 l 2
 12 -73 13 -74 15 -74 c 1
 8 -81 0 -86 -10 -88 c 1
 -65 -80 -93 -58 -93 -23 c 0
 -93 -13 -91 -5 -88 0 c 1
-69 95 m 1
 -71 97 l 1
 -75 97 -93 75 -93 59 c 0x01000000000000000a
 -93 31 -83 12 -62 1 c 0x040000000000000002
 -21 -20 -10 -17 -10 -9 c 0
 -10 -5 -13 2 -20 13 c 0x040000000000000001
 -35 34 -49 31 -49 22 c 1
 -36 15 l 1
 -29 0 l 2
 -29 -2 -32 -2 -39 0 c 0x020000000000000001
 -46 1 -55 7 -67 18 c 0
 -79 29 -85 40 -85 51 c 0x000800000000000001
 -85 75 -66 84 -66 88 c 0
 -66 93 -69 91 -69 95 c 1
-3 54 m 2
 12 56 l 1
 17 54 l 1
 22 69 l 1
 5 87 l 1
 -23 95 l 1
 7 69 l 1
 5 66 l 1x0000000200000000040018
 7 64 l 1
 4 64 6 61 2 61 c 0x000000400000000010
 -1 61 2 69 -5 69 c 2
 -13 69 l 1
 -24 70 -34 88 -44 122 c 1
 -34 156 l 1
 -44 151 l 1
 -54 110 l 1
 -51 103 -49 99 -49 97 c 2
 -49 95 l 1
 -36 79 l 1
 -35 74 -32 68 -29 61 c 1
 -10 59 l 1
 -7 56 -4 54 -3 54 c 2
12 154 m 1
 -10 179 l 1
 -13 179 l 1x0020000000000000000080
 -13 175 -15 179 -15 168 c 0
 -15 163 -7 155 8 143 c 0x0020000000000000000040
 23 131 39 125 56 125 c 1
 56 123 55 122 54 122 c 1
 54 132 l 1
 12 154 l 1
17 184 m 1
 2 210 l 1
 1 208 0 205 0 202 c 1
 7 187 16 174 28 165 c 0
 52 146 65 150 69 154 c 1
 17 184 l 1
92 230 m 1
 95 230 l 1
 95 222 l 1
 96 224 98 225 100 225 c 1
 95 226 92 228 92 230 c 1
39 254 m 1
 36 254 l 1x00801100000000008008
 34 256 l 1
 22 251 l 1
 21 246 20 239 20 228 c 0
 20 217 23 209 29 202 c 0
 36 195 53 185 82 171 c 1
 89 173 95 174 100 174 c 1x0080000000000000000080
 64 192 l 1x0100000000000000000080
 47 209 39 229 39 254 c 1
117 197 m 1
 112 195 l 1
 108 195 98 202 82 217 c 1
 76 217 l 2
 75 217 74 218 74 220 c 1
 71 217 l 1
 74 217 l 1x000210000000004010
 63 230 62 267 79 284 c 0
 106 311 154 305 184 315 c 1
 192 315 l 2
 197 315 200 317 200 320 c 2
 200 322 l 1
 192 322 l 1
 164 309 128 313 104 310 c 0
 74 305 59 284 59 246 c 0
 59 222 69 204 90 192 c 1
 120 181 l 1
 134 184 142 189 144 195 c 1
 144 242 116 265 101 268 c 0
 94 270 90 269 90 265 c 0
 90 257 111 248 127 220 c 1
 127 217 124 209 117 197 c 1
1055 325 m 2
 999 320 l 1
 991 237 l 1
 991 217 996 202 1006 192 c 1
 1047 197 l 1
 1057 238 1062 267 1062 284 c 2x000420000000000000880004
 1062 318 l 2
 1062 323 1060 325 1055 325 c 2
320 345 m 1
 310 345 l 1
 232 337 l 1x000004800000000000004002
 216 330 219 318 222 315 c 1
 337 312 l 1
 320 345 l 1
789 374 m 1
 784 374 l 1
 782 372 781 370 781 369 c 1
 785 369 783 366 786 366 c 1
 786 369 l 1
 788 370 789 372 789 374 c 1
752 376 m 1
 750 381 746 386 740 389 c 1
 737 382 735 379 735 378 c 0
 735 373 749 373 752 376 c 1
1287 405 m 1
 1276 403 1270 398 1270 389 c 1
 1275 389 l 2x000000880000002000000004
 1280 389 1286 393 1295 402 c 1
 1290 402 1287 403 1287 405 c 1
701 550 m 1
 669 584 l 1
 661 575 655 571 652 571 c 2
 642 571 l 2x000011080000002420
 639 571 637 570 637 569 c 2
 701 550 l 1
1727 586 m 1
 1725 550 l 1
 1652 526 1590 509 1538 499 c 2
 1451 482 l 1
 1422 474 1388 475 1377 479 c 1
 1376 477 1375 475 1375 474 c 2
 1410 399 l 1
 1408 396 1405 394 1402 394 c 0
 1397 394 1386 415 1382 415 c 1
 1335 380 1292 362 1255 359 c 1
 1234 316 1237 271 1234 230 c 1
 1235 221 1241 215 1251 212 c 1
 1442 249 1556 277 1592 296 c 0
 1628 315 1653 335 1668 355 c 2
 1725 435 l 1
 1746 490 1746 541 1727 586 c 1
652 596 m 1
 651 596 647 599 642 604 c 1
 637 594 635 588 635 586 c 1
 640 586 l 1
 647 588 651 591 652 596 c 1
351 606 m 1x0000002000000008
 345 606 l 1x000000850000000000000204
 335 572 330 546 330 527 c 0
 330 490 335 439 344 390 c 0
 355 330 365 300 374 300 c 1
 567 233 712 200 811 200 c 0
 827 200 839 201 847 202 c 1
 847 275 838 321 819 340 c 1
 812 337 804 335 794 335 c 2
 742 335 l 2x0000002000000008
 713 335 696 330 689 320 c 0
 682 310 674 300 665 291 c 1
 653 295 647 297 647 296 c 2x0000002000000004
 647 300 l 1
 719 447 l 1
 652 472 598 484 542 503 c 0
 479 524 415 558 351 606 c 1x0000002000000008
599 576 m 1
 599 584 l 1
 608 577 615 574 618 574 c 0
 623 574 625 579 625 589 c 1
 615 604 l 1
 622 620 l 1
 625 620 l 1
 621 623 621 621 617 625 c 1
 613 623 609 617 604 606 c 1
 606 594 l 1
 606 589 l 1
 603 580 600 576 599 576 c 1
1526 637 m 2
 1512 630 l 1
 1505 630 1508 637 1505 637 c 1
 1500 632 1497 628 1497 625 c 0
 1497 622 1499 620 1502 620 c 1
 1534 632 l 1x00000003040000000020
 1529 635 l 1x00000000000000000004
 1527 635 1526 636 1526 637 c 2
1470 652 m 1
 1464 652 l 1x000000000000000001
 1439 640 l 1x000000850000000000000204
 1375 594 l 1
 1378 591 1384 589 1391 589 c 0
 1398 589 1413 592 1436 597 c 0
 1459 603 1476 611 1487 620 c 1
 1480 627 l 1
 1470 622 l 1
 1459 635 l 1
 1470 652 l 1
561 630 m 1
 561 640 l 2
 561 663 566 658 566 655 c 1
 555 660 l 1
 552 653 546 647 537 642 c 1
 540 630 l 1
 527 617 l 1
 589 586 l 1
 584 596 l 1x1000000020008000020004
 584 613 587 604 594 611 c 1
 594 640 l 1
 586 640 l 1
 586 631 582 627 574 627 c 1
 574 609 l 1
 564 604 l 1
 545 611 546 618 561 630 c 1
1661 665 m 1
 1641 652 l 1
 1630 650 1618 646 1605 640 c 0
 1574 623 1543 610 1510 599 c 1x10000000000024
 1470 592 1421 576 1385 569 c 1
 1378 572 1367 567 1367 564 c 2
 1367 527 l 2
 1367 512 1370 503 1377 500 c 0
 1390 495 1431 490 1510 513 c 0
 1549 524 1580 536 1601 547 c 0
 1645 570 1680 579 1707 606 c 1
 1707 615 l 1
 1696 635 1680 652 1661 665 c 1
525 676 m 1
 520 679 l 1x00
 517 665 l 1x1000000020008000020004
 504 657 l 1x10000000000080
 502 647 499 640 496 637 c 1
 507 627 l 1
 507 622 508 620 510 620 c 1x00000000000004
 510 621 511 623 512 625 c 2
 530 674 l 2
 530 675 528 676 525 676 c 1
410 679 m 2x20
 371 650 l 1
 364 637 l 1
 361 634 359 631 359 630 c 2x40000000000101
 410 586 l 1
 437 579 476 556 528 531 c 0x20000000000001
 594 498 659 479 722 474 c 1
 727 496 l 2
 727 498 728 500 730 501 c 1
 730 508 726 516 719 525 c 1
 669 532 l 1
 652 542 l 1
 618 547 590 557 569 572 c 0x10000000000001
 548 587 529 596 512 599 c 1
 477 620 441 633 417 662 c 1
 415 676 l 1
 413 678 411 679 410 679 c 2x20
464 674 m 1
 469 681 l 1x100000000001
 479 681 l 2
 480 681 481 679 482 676 c 0
 485 669 481 665 471 665 c 0
 466 665 464 668 464 674 c 1
1544 637 m 1
 1544 640 l 1
 1556 637 l 1
 1584 650 1624 664 1644 684 c 1
 1587 684 l 1
 1544 681 l 1
 1541 670 1537 665 1534 665 c 1
 1537 656 1537 655 1534 655 c 1
 1544 669 l 2
 1544 670 1545 671 1546 671 c 2x0800000000000a
 1554 671 l 1x10000000000001
 1563 658 1547 646 1544 637 c 1
494 686 m 0
 495 686 497 685 499 684 c 2
 447 694 l 1
 431 687 432 688 432 681 c 0
 432 678 434 674 437 671 c 2
 466 650 l 1
 479 642 l 1
 481 642 l 1
 485 646 466 640 494 686 c 0
1392 691 m 1
 1339 804 l 1
 1267 422 l 1x0001
 1309 422 l 1
 1321 430 l 1
 1356 435 l 1
 1356 445 1352 454 1345 462 c 0
 1338 470 1334 486 1334 510 c 0x0010
 1334 535 1336 555 1340 570 c 0
 1353 620 1376 623 1407 650 c 1
 1392 691 l 1
719 837 m 1
 714 837 l 1
 697 819 682 794 668 763 c 0
 646 714 635 680 635 663 c 0
 635 628 667 611 696 582 c 1x0004000000000080
 737 544 757 510 757 481 c 0
 757 452 754 428 747 410 c 1
 749 403 753 399 760 399 c 2
 816 396 l 1
 805 427 798 460 793 496 c 0
 785 559 773 608 758 642 c 0
 743 677 730 742 719 837 c 1
1106 584 m 1
 1109 374 l 2
 1109 333 1106 302 1099 281 c 0
 1093 261 1088 238 1085 212 c 1
 1092 195 1094 181 1091 168 c 0x000088
 1088 155 1094 142 1109 127 c 1x000002440000000000000220
 1114 127 l 1
 1116 159 l 1
 1126 164 l 1x000000040000000000000020
 1136 146 l 1
 1141 146 l 1
 1149 153 1151 164 1134 205 c 0x00000004
 1134 206 1136 209 1139 212 c 1
 1148 212 1154 205 1159 191 c 0
 1164 178 1167 167 1167 160 c 0
 1167 145 1152 129 1152 120 c 1
 1172 122 l 1
 1175 125 1177 129 1177 132 c 2
 1177 139 l 1
 1175 136 l 1
 1185 141 l 1
 1186 140 1190 139 1195 139 c 1
 1214 155 1214 185 1195 192 c 0
 1174 200 1179 218 1190 214 c 0
 1201 211 1208 208 1211 205 c 1
 1229 159 l 1
 1239 156 l 1
 1246 169 1248 177 1231 205 c 1
 1197 217 l 1
 1192 233 1190 251 1190 270 c 0
 1190 299 1201 344 1224 407 c 1
 1275 588 1300 755 1300 907 c 0
 1300 1060 1287 1197 1260 1319 c 1
 1253 1334 1249 1366 1249 1416 c 1
 1234 1400 1169 1378 1055 1351 c 1
 1027 1358 1006 1353 977 1365 c 1x000002440000000000000220
 928 1368 876 1394 840 1407 c 1x00000200000000040040
 840 1390 l 2
 840 1366 830 1328 809 1277 c 1x0000040000000000000008
 778 1186 762 1098 762 1015 c 0
 762 908 777 770 806 601 c 1
 827 530 840 461 846 394 c 0
 852 328 860 261 870 192 c 1
 866 181 853 176 850 169 c 1
 847 149 l 2
 847 147 849 146 852 146 c 1
 852 149 l 1
 855 149 l 1
 856 150 858 151 860 151 c 1
 863 148 866 144 867 141 c 1
 862 122 l 1
 870 122 l 1
 889 190 l 1
 899 195 l 1
 906 188 909 195 909 184 c 1
 899 132 l 1
 899 121 901 113 904 110 c 1x00000200000000040040
 904 120 906 125 909 125 c 1
 926 112 920 96 937 110 c 1
 930 130 907 174 926 176 c 0
 929 176 934 167 941 149 c 0
 948 131 956 120 965 117 c 1
 972 120 l 1x00000040
 972 117 l 1
 965 151 l 1
 966 153 969 154 972 154 c 1
 972 152 976 147 985 139 c 1
 990 139 988 132 991 132 c 1
 991 139 l 1
 989 139 l 1x0010000000000004
 996 169 l 1x00400000000004
 996 176 991 183 982 192 c 1
 980 192 l 2
 978 192 976 193 975 195 c 2
 960 207 l 1x00100000000004
 957 216 955 225 955 234 c 2x0004000000000080
 955 261 l 2
 955 305 961 353 972 404 c 0
 983 455 989 507 989 559 c 0
 989 663 977 759 970 847 c 0
 970 856 973 860 980 860 c 0
 995 860 1009 806 1018 745 c 0
 1027 681 1031 622 1031 568 c 0
 1031 514 1021 442 1001 351 c 1
 1021 343 1040 340 1067 359 c 1
 1070 396 l 2
 1073 439 1075 471 1075 491 c 2
 1072 637 l 1
 1072 688 1079 739 1093 788 c 0
 1107 837 1116 862 1121 862 c 1x000040
 1128 855 1128 840 1119 809 c 1
 1110 747 1106 672 1106 584 c 1
1042 1467 m 1
 1039 1467 l 1
 1026 1462 1017 1457 1014 1454 c 1
 1052 1459 l 1
 1042 1467 l 1
980 1441 m 1
 971 1438 955 1436 930 1436 c 0
 905 1436 873 1447 832 1470 c 1
 796 1467 l 1
 795 1462 794 1458 794 1455 c 0
 794 1450 845 1430 904 1414 c 0
 974 1395 1018 1385 1036 1384 c 1
 1089 1384 l 2
 1106 1384 1132 1391 1165 1406 c 0
 1199 1421 1224 1434 1241 1444 c 2x0000101010000020
 1275 1464 l 1
 1268 1468 1264 1462 1257 1470 c 1
 1213 1462 1175 1436 1134 1436 c 1
 1090 1446 l 1
 1081 1446 1072 1443 1061 1436 c 0
 1040 1423 1005 1421 980 1441 c 1
1461 1502 m 1
 1472 1497 l 1
 1554 1485 l 1
 1467 1492 l 1
 1461 1502 l 1
921 1515 m 1
 899 1517 l 1
 875 1510 835 1508 803 1504 c 0
 761 1500 739 1495 737 1490 c 1
 755 1475 l 1
 765 1472 l 1
 921 1515 l 1
727 1546 m 1
 732 1549 l 1
 747 1546 l 1
 747 1541 l 1
 727 1546 l 1
1085 1571 m 1
 1036 1580 l 1
 1001 1575 l 1
 999 1571 l 2
 999 1570 1000 1569 1001 1569 c 2
 1034 1559 l 2
 1037 1559 1035 1561 1039 1561 c 0
 1043 1561 1041 1559 1045 1559 c 1
 1055 1536 l 1
 1062 1563 1064 1564 1077 1564 c 2
 1082 1564 l 1
 1082 1567 1085 1565 1085 1569 c 2
 1085 1571 l 1
960 1602 m 1
 939 1594 926 1590 919 1590 c 0x000000000248000000410051
 891 1590 866 1601 845 1622 c 1
 821 1661 l 1
 819 1666 l 1
 799 1674 l 2x0000000004
 797 1674 796 1676 796 1679 c 2
 796 1682 l 2
 796 1684 797 1686 799 1687 c 2
 875 1692 l 1
 896 1692 l 2
 907 1692 925 1684 949 1669 c 0
 973 1654 985 1637 985 1618 c 0
 985 1599 983 1590 978 1590 c 0
 970 1590 969 1602 960 1602 c 1
904 1749 m 1
 914 1812 l 1
 919 1761 l 1
 921 1759 l 1
 924 1761 l 1
 957 1837 l 1
 960 1837 l 1
 926 1725 l 1
 911 1725 l 2
 910 1725 909 1726 909 1727 c 2
 906 1730 l 1
 894 1727 l 2
 892 1727 890 1728 889 1730 c 2
 872 1830 l 1
 882 1815 888 1801 891 1788 c 0
 898 1762 902 1749 904 1749 c 1
1204 1702 m 1
 1236 1700 l 2
 1246 1700 1258 1702 1272 1707 c 1
 1282 1705 l 1
 1282 1695 l 2
 1282 1692 1279 1689 1272 1687 c 1
 1245 1626 1214 1595 1180 1595 c 0
 1176 1595 1160 1598 1131 1605 c 1
 1124 1605 1128 1587 1121 1587 c 0
 1111 1587 1106 1595 1106 1611 c 0
 1106 1644 1148 1686 1204 1702 c 1
1234 1795 m 1
 1236 1795 l 1
 1219 1741 l 1
 1216 1740 1213 1739 1211 1739 c 0
 1210 1739 1209 1738 1209 1736 c 2
 1234 1795 l 1
1187 1805 m 1
 1190 1805 l 1
 1190 1741 l 1
 1183 1738 1177 1740 1177 1736 c 2
 1177 1732 l 1
 1182 1736 l 1
 1182 1733 1180 1736 1177 1744 c 1
 1187 1805 l 1
1152 1810 m 1
 1155 1810 l 1
 1170 1732 l 2
 1170 1729 1167 1727 1162 1727 c 1x000000000008000000000008
 1155 1742 1152 1756 1152 1770 c 2
 1152 1810 l 1
872 1625 m 1
 899 1615 l 1
 896 1631 l 1
 896 1644 899 1654 906 1661 c 1
 852 1666 l 1
 850 1666 l 1x000000000080
 850 1664 l 2x000000000248000000410051
 850 1654 857 1641 872 1625 c 1
1712 1964 m 2
 1707 1964 l 1
 1638 1939 1638 1887 1654 1841 c 1
 1698 1755 1720 1675 1720 1602 c 0
 1720 1529 1711 1465 1694 1410 c 0
 1677 1356 1656 1304 1630 1253 c 0
 1596 1188 1537 1098 1454 982 c 1
 1441 955 1425 929 1408 904 c 0
 1391 879 1379 850 1372 816 c 1
 1376 807 1387 773 1400 742 c 0
 1417 703 1428 684 1434 684 c 1
 1436 686 l 1
 1441 722 1452 753 1469 780 c 0
 1486 807 1502 837 1515 870 c 1
 1556 942 1597 1021 1676 1138 c 0
 1716 1197 1753 1267 1786 1350 c 0
 1820 1433 1837 1531 1837 1644 c 0
 1837 1787 1809 1887 1754 1942 c 0
 1752 1944 1751 1946 1751 1949 c 1x0000000001800010
 1751 1946 1752 1944 1754 1942 c 1
 1739 1957 1725 1964 1712 1964 c 2
924 1644 m 1
 914 1607 l 1
 926 1605 l 1
 933 1605 944 1608 957 1615 c 1
 954 1620 943 1633 924 1656 c 1
 921 1656 l 1
 923 1653 924 1649 924 1644 c 1
1141 1617 m 1
 1165 1610 l 1
 1175 1612 l 1
 1180 1612 l 1
 1167 1637 1169 1657 1172 1664 c 1
 1151 1653 1141 1639 1141 1620 c 2
 1141 1617 l 1
1244 1682 m 1
 1209 1682 l 1
 1202 1674 1196 1678 1185 1671 c 1
 1185 1668 1187 1665 1192 1664 c 1
 1197 1615 l 1
 1222 1632 1237 1654 1244 1682 c 1
1311 1485 m 1
 1239 1495 l 1
 1295 1475 l 1
 1306 1476 1311 1480 1311 1485 c 1
1341 1507 m 2
 1287 1510 l 1
 1336 1495 l 1
 1339 1497 l 1
 1342 1497 1340 1500 1344 1500 c 1
 1344 1503 1343 1506 1341 1507 c 2
EndSplineSet
EndChar

StartChar: exclam
Encoding: 33 33 2
Width: 414
Flags: MW
HStem: 31 1601<210 300>
VStem: 143 140
LayerCount: 2
Fore
SplineSet
57 184 m 1
 210 335 l 1
 363 184 l 1
 210 31 l 1
 57 184 l 1
28 1400 m 1
 300 1632 l 1
 267 551 l 1
 156 454 l 1
 153 599 151 783 143 959 c 0
 135 1133 99 1305 28 1400 c 1
EndSplineSet
EndChar

StartChar: quotedbl
Encoding: 34 34 3
Width: 582
Flags: MW
HStem: 1514 21
LayerCount: 2
Fore
SplineSet
60 926 m 1
 26 932 l 1
 87 1039 131 1150 131 1239 c 0
 131 1286 123 1336 106 1387 c 1
 296 1509 l 1
 287 1382 262 1282 213 1183 c 0
 165 1084 125 1011 60 926 c 1
294 882 m 1
 260 888 l 1
 321 995 365 1106 365 1195 c 0
 365 1242 357 1292 340 1343 c 1
 530 1465 l 1
 521 1338 496 1238 447 1139 c 0
 399 1040 359 967 294 882 c 1
EndSplineSet
EndChar

StartChar: numbersign
Encoding: 35 35 4
Width: 1018
Flags: MW
HStem: 444 99<123 304 110 316 400 567 123 387 663 855> 804 101<167 344 154 358 167 429 440 609 705 899>
VStem: 110 798<444 905>
LayerCount: 2
Fore
SplineSet
855 444 m 1
 652 444 l 1
 607 78 l 1
 522 78 l 1
 567 444 l 1
 387 444 l 1
 344 78 l 1
 259 78 l 1
 304 444 l 1
 110 444 l 1
 123 543 l 1
 316 543 l 1
 344 804 l 1
 154 804 l 1
 167 905 l 1
 358 905 l 1
 399 1239 l 1
 481 1239 l 1
 440 905 l 1
 623 905 l 1
 662 1239 l 1
 746 1239 l 1
 705 905 l 1
 908 905 l 1
 899 804 l 1
 692 804 l 1
 663 543 l 1
 868 543 l 1
 855 444 l 1
579 543 m 1
 609 804 l 1
 429 804 l 1
 400 543 l 1
 579 543 l 1
EndSplineSet
EndChar

StartChar: dollar
Encoding: 36 36 5
Width: 928
Flags: MW
HStem: -178 1716<424 567 424 567>
VStem: 117 219<1001 1038> 424 143<-178 -16 -16 -16 1380 1538> 653 219<340.5 378>
LayerCount: 2
Fore
SplineSet
848 1135 m 1
 668 1010 l 1
 617 1097 556 1141 483 1141 c 0
 416 1141 336 1097 336 1018 c 0
 336 984 346 956 366 935 c 0
 387 914 405 898 420 888 c 2
 481 852 l 1
 668 733 l 1
 788 660 872 551 872 404 c 0
 872 260 827 148 737 68 c 1
 702 35 654 10 592 -6 c 1
 567 -14 l 1
 567 -178 l 1
 424 -178 l 1
 424 -16 l 1
 338 -3 266 27 209 72 c 0
 152 118 100 184 53 270 c 1
 236 399 l 1
 299 284 365 223 485 223 c 0
 532 223 571 236 604 263 c 0
 637 290 653 322 653 359 c 0
 653 397 644 426 625 445 c 1
 607 465 591 479 578 487 c 0
 553 504 554 503 549 506 c 2
 373 608 l 1
 302 651 241 702 191 761 c 0
 142 820 117 901 117 1004 c 0
 117 1072 133 1135 166 1194 c 0
 199 1253 240 1298 291 1329 c 1
 322 1350 366 1367 424 1380 c 1
 424 1538 l 1
 567 1538 l 1
 567 1380 l 1
 690 1337 785 1271 848 1135 c 1
EndSplineSet
EndChar

StartChar: percent
Encoding: 37 37 6
Width: 1476
Flags: MW
HStem: -70 1495<315.5 1111 322 1111> 12 191 409 194 758 200 1158 197
VStem: 65 94 506 118<704 966> 826 96 1269 116<304 569>
LayerCount: 2
Fore
SplineSet
965 741 m 0x7f80
 937 720 922 682 922 630 c 0
 922 578 946 502 995 402 c 1
 1062 269 1123 203 1177 203 c 0
 1194 203 1208 208 1224 218 c 1
 1254 240 1269 278 1269 330 c 0
 1269 383 1245 460 1196 558 c 0
 1131 691 1068 758 1013 758 c 0
 996 758 981 753 965 741 c 0x7f80
368 -70 m 2
 322 -70 l 2
 309 -70 302 -63 302 -49 c 0
 302 -46 303 -42 304 -39 c 2
 1053 1415 l 2
 1056 1422 1061 1425 1070 1425 c 2
 1111 1425 l 2
 1128 1425 1138 1409 1130 1397 c 1
 384 -59 l 2
 381 -66 376 -70 368 -70 c 2
282 1330 m 1
 314 1364 354 1367 402 1321 c 0
 550 1177 624 1035 624 897 c 0
 624 748 549 597 398 445 c 1
 348 397 301 397 259 445 c 0
 0 740 -8 1036 282 1330 c 1
1043 933 m 1
 1075 967 1115 970 1163 924 c 0
 1311 780 1385 638 1385 500 c 0
 1385 351 1310 200 1159 48 c 1
 1109 0 1062 0 1020 48 c 0
 761 343 753 639 1043 933 c 1
202 1141 m 0
 174 1120 159 1082 159 1030 c 0
 159 978 183 902 232 802 c 1
 299 669 360 603 414 603 c 0
 431 603 445 608 461 618 c 1
 491 640 506 678 506 730 c 0
 506 783 482 860 433 958 c 0
 368 1091 305 1158 250 1158 c 0
 233 1158 218 1153 202 1141 c 0
EndSplineSet
EndChar

StartChar: ampersand
Encoding: 38 38 7
Width: 1065
Flags: MW
HStem: -18 211<442 483.5 442 499.5> 1184 188
VStem: 57 228<364.5 419 364.5 419.5> 184 195<997 1051 1004 1051> 569 187<1035.5 1087>
LayerCount: 2
Fore
SplineSet
725 434 m 1xd8
 757 498 782 571 801 653 c 1
 987 604 l 1
 967 500 932 397 881 295 c 1
 936 261 993 241 1053 236 c 1
 1040 -6 l 1
 955 -1 882 19 819 53 c 0
 796 66 769 81 739 100 c 1
 648 21 551 -18 448 -18 c 0
 345 -18 254 15 175 82 c 0
 96 149 57 244 57 367 c 0xe8
 57 472 101 569 188 658 c 0
 212 683 237 707 262 729 c 1
 214 835 188 924 184 997 c 1
 184 1004 l 1
 185 1098 211 1181 262 1254 c 0
 317 1333 384 1372 465 1372 c 0
 546 1372 614 1343 670 1284 c 0
 727 1224 756 1148 756 1055 c 0
 756 913 686 783 545 666 c 1
 611 565 671 488 725 434 c 1xd8
584 242 m 1
 512 325 435 423 354 537 c 1
 308 496 285 447 285 391 c 0
 285 338 304 291 342 251 c 0xe8
 378 212 419 193 465 193 c 0
 502 193 542 209 584 242 c 1
446 852 m 1
 488 879 516 904 531 925 c 1
 556 964 569 1010 569 1061 c 0
 569 1113 551 1151 516 1174 c 1
 479 1196 433 1180 407 1143 c 0
 390 1119 380 1090 379 1057 c 1
 379 1051 l 2
 379 990 401 924 446 852 c 1
EndSplineSet
EndChar

StartChar: quotesingle
Encoding: 39 39 8
Width: 346
Flags: MW
HStem: 1520 20G<45 45>
VStem: 45 214<1367.5 1540> 147 112<1179.5 1475.5>
LayerCount: 2
Fore
SplineSet
45 1540 m 1xc0
 223 1658 l 1
 248 1581 259 1510 259 1441 c 0
 259 1294 208 1156 118 995 c 1
 136 1066 147 1142 147 1217 c 0xa0
 147 1341 117 1460 45 1540 c 1xc0
EndSplineSet
EndChar

StartChar: parenleft
Encoding: 40 40 9
Width: 482
Flags: MW
HStem: -314 1926<287.5 467>
VStem: 23 192
LayerCount: 2
Fore
SplineSet
16 1316 m 1
 467 1612 l 1
 490 1578 l 1
 264 1381 216 943 216 670 c 0
 216 501 220 290 253 116 c 0
 283 -44 337 -188 434 -221 c 1
 421 -288 376 -314 353 -314 c 0
 222 -314 118 -12 86 151 c 0
 46 353 36 581 31 756 c 2
 16 1316 l 1
EndSplineSet
EndChar

StartChar: parenright
Encoding: 41 41 10
Width: 530
Flags: MW
HStem: -352 1984<110 199>
VStem: 339 186<385 962.5>
LayerCount: 2
Fore
SplineSet
0 1402 m 1
 199 1632 l 1
 332 1580 421 1508 457 1381 c 0
 503 1220 525 1049 525 876 c 0
 525 436 380 -16 110 -352 c 1
 66 -313 l 1
 286 -41 339 235 339 535 c 0
 339 663 329 795 319 933 c 0
 302 1176 264 1334 0 1402 c 1
EndSplineSet
EndChar

StartChar: asterisk
Encoding: 42 42 11
Width: 1019
Flags: MW
HStem: 57 1189<499 571>
VStem: -9 1034<616 656>
LayerCount: 2
Fore
SplineSet
-9 616 m 1
 218 865 l 1
 418 678 l 1
 194 454 l 1
 132 507 79 548 -9 616 c 1
507 761 m 1
 299 950 l 1
 571 1246 l 1
 587 1148 643 1073 727 979 c 1
 507 761 l 1
589 682 m 1
 806 897 l 1
 885 810 959 742 1025 656 c 1
 846 449 l 1
 589 682 l 1
499 57 m 1
 499 63 l 2
 499 143 444 233 288 372 c 1
 509 590 l 1
 763 356 l 1
 499 57 l 1
EndSplineSet
EndChar

StartChar: plus
Encoding: 43 43 12
Width: 1275
Flags: MW
HStem: 545 180<302 536 302 716 718 966>
VStem: 536 180<266.5 290 290 545>
LayerCount: 2
Fore
SplineSet
67 545 m 1
 253 784 l 1
 253 751 271 725 302 725 c 2
 538 725 l 1
 538 951 l 2
 538 1000 508 1015 477 1015 c 1
 718 1227 l 1
 718 725 l 1
 1236 725 l 1
 1050 470 l 1
 1050 528 1015 545 966 545 c 2
 716 545 l 1
 716 290 l 2
 716 243 749 215 793 215 c 1
 536 25 l 1
 536 545 l 1
 67 545 l 1
EndSplineSet
EndChar

StartChar: comma
Encoding: 44 44 13
Width: 422
Flags: MW
HStem: -476 963<-8 232>
VStem: -8 438
LayerCount: 2
Fore
SplineSet
-8 -476 m 1
 232 487 l 1
 430 186 l 1
 -8 -476 l 1
EndSplineSet
EndChar

StartChar: hyphen
Encoding: 45 45 14
Width: 770
Flags: MW
HStem: 532 169
VStem: 37 717
LayerCount: 2
Fore
SplineSet
667 713 m 2
 684 713 735 732 754 752 c 1
 625 531 l 1
 579 531 550 532 487 532 c 0
 402 532 287 531 175 526 c 0
 126 523 64 513 37 496 c 1
 90 628 100 658 135 747 c 1
 144 716 170 701 208 701 c 2
 667 713 l 2
EndSplineSet
EndChar

StartChar: period
Encoding: 46 46 15
Width: 425
Flags: MW
HStem: 31 411<210 210>
VStem: 4 412<237 237>
LayerCount: 2
Fore
SplineSet
4 237 m 1
 210 442 l 1
 416 237 l 1
 210 31 l 1
 4 237 l 1
EndSplineSet
EndChar

StartChar: slash
Encoding: 47 47 16
Width: 1320
Flags: MW
HStem: 39 1489<12 1264>
VStem: 12 1283
LayerCount: 2
Fore
SplineSet
12 39 m 1
 100 411 l 1
 474 534 957 1046 1264 1528 c 1
 1295 1511 l 1
 1003 937 546 432 12 39 c 1
EndSplineSet
EndChar

StartChar: zero
Encoding: 48 48 17
Width: 1010
Flags: MW
HStem: 34 1596
VStem: 60 86 864 174
LayerCount: 2
Fore
SplineSet
477 1493 m 0
 502 1517 524 1530 542 1530 c 0
 564 1530 594 1514 636 1477 c 0
 912 1234 950 1025 950 788 c 0
 950 531 860 343 576 91 c 0
 532 52 488 34 462 34 c 0
 436 34 407 52 372 89 c 0
 130 339 100 551 100 812 c 0
 100 1065 207 1247 477 1493 c 0
464 1248 m 0
 316 1248 256 1093 256 945 c 0
 256 725 353 300 577 300 c 0
 711 300 776 483 776 605 c 0
 776 798 691 1248 464 1248 c 0
EndSplineSet
EndChar

StartChar: one
Encoding: 49 49 18
Width: 735
Flags: MW
HStem: -20 1656
VStem: 354 223
LayerCount: 2
Fore
SplineSet
555 1557 m 1
 540 142 l 1
 398 127 261 83 97 9 c 1
 82 80 l 1
 340 168 345 341 345 612 c 2
 345 1250 l 1
 206 1250 106 1255 -34 1257 c 1
 -40 1295 l 1
 209 1350 352 1423 555 1557 c 1
EndSplineSet
EndChar

StartChar: two
Encoding: 50 50 19
Width: 1095
Flags: MW
HStem: 70 272
VStem: 25 1013
LayerCount: 2
Fore
SplineSet
812 273 m 1
 879 274 936 353 970 399 c 1
 990 399 l 1
 969 280 937 165 917 43 c 1
 776 61 637 70 496 70 c 0
 353 70 199 64 45 49 c 1
 45 79 l 1
 210 233 369 363 512 549 c 0
 642 718 756 869 756 980 c 0
 756 1104 722 1202 525 1313 c 0
 501 1326 477 1332 456 1332 c 0
 390 1332 341 1275 341 1199 c 0
 341 1131 380 1050 481 985 c 1
 330 771 l 1
 175 927 129 985 129 1064 c 0
 129 1208 413 1528 564 1528 c 0
 728 1528 980 1261 980 1092 c 0
 980 1033 933 920 900 867 c 0
 787 687 606 481 406 273 c 1
 812 273 l 1
EndSplineSet
EndChar

StartChar: three
Encoding: 51 51 20
Width: 1025
Flags: MW
HStem: 19 109
VStem: 796 149
LayerCount: 2
Fore
SplineSet
945 1462 m 1
 569 949 l 1
 805 862 935 722 935 556 c 0
 935 290 627 29 402 29 c 0
 248 29 85 132 -10 328 c 1
 194 565 l 1
 261 358 329 178 545 178 c 0
 673 178 756 265 756 391 c 0
 756 531 650 746 340 806 c 1
 659 1249 l 1
 514 1268 437 1268 353 1268 c 0
 294 1268 237 1260 124 1169 c 1
 74 1169 l 1
 195 1539 l 1
 303 1473 426 1462 564 1462 c 2
 945 1462 l 1
EndSplineSet
EndChar

StartChar: four
Encoding: 52 52 21
Width: 1020
Flags: MW
HStem: 456 221
VStem: 44 970 626 188
LayerCount: 2
Fore
SplineSet
626 639 m 1
 626 789 l 2
 626 834 622 910 612 1024 c 1
 839 1274 l 1
 819 1005 816 832 813 639 c 1
 896 646 945 669 1000 677 c 1
 998 575 994 549 992 455 c 1
 813 455 l 1
 819 309 821 191 834 102 c 1
 731 90 652 65 514 31 c 1
 567 150 610 296 637 455 c 1
 470 457 218 460 40 469 c 1
 188 821 376 1165 544 1517 c 1
 842 1517 l 1
 582 1238 401 988 244 652 c 1
 342 643 501 639 550 639 c 2
 626 639 l 1
EndSplineSet
EndChar

StartChar: five
Encoding: 53 53 22
Width: 1010
Flags: MW
HStem: 27 1588
VStem: 39 889
LayerCount: 2
Fore
SplineSet
649 1258 m 0
 610 1258 488 1272 372 1290 c 1
 364 1218 356 1066 356 1066 c 1
 775 1003 900 862 900 689 c 0
 900 489 624 27 370 27 c 0
 255 27 130 108 40 209 c 1
 61 322 89 421 105 496 c 0
 106 499 116 497 117 500 c 1
 231 395 356 218 479 218 c 0
 602 218 728 418 728 530 c 0
 728 737 490 863 219 863 c 0
 204 863 188 863 173 862 c 1
 250 1084 287 1294 300 1511 c 1
 440 1485 673 1480 881 1477 c 1
 829 1394 815 1348 764 1260 c 1
 717 1258 669 1258 649 1258 c 0
EndSplineSet
EndChar

StartChar: six
Encoding: 54 54 23
Width: 1035
Flags: MW
HStem: 47 1620
VStem: 150 849 870 129
LayerCount: 2
Fore
SplineSet
627 1558 m 1xc0
 870 1484 l 1
 870 1464 l 1xa0
 550 1370 360 1212 311 829 c 1
 408 905 565 1042 690 1095 c 1
 871 966 985 827 985 643 c 0
 985 387 712 100 517 30 c 1
 229 164 120 405 120 663 c 0
 120 941 336 1324 627 1558 c 1xc0
514 27 m 1
 514 29 516 30 517 30 c 1
 517 27 516 27 514 27 c 1
628 250 m 0
 702 250 791 366 791 479 c 0
 791 674 717 875 561 875 c 0
 495 875 413 838 316 748 c 1
 321 479 378 250 628 250 c 0
EndSplineSet
EndChar

StartChar: seven
Encoding: 55 55 24
Width: 935
Flags: MW
HStem: 1300 217
VStem: 50 961
LayerCount: 2
Fore
SplineSet
735 1287 m 1
 273 1287 l 2
 171 1287 154 1138 122 1084 c 1
 92 1084 l 1
 90 1237 70 1440 70 1512 c 1
 298 1484 558 1484 985 1484 c 1
 705 1099 494 450 467 31 c 1
 404 52 384 58 244 58 c 1
 244 277 340 505 735 1287 c 1
EndSplineSet
EndChar

StartChar: eight
Encoding: 56 56 25
Width: 1060
Flags: MW
HStem: 58 206 1643 45
VStem: 106 891 155 176
LayerCount: 2
Fore
SplineSet
165 1087 m 0
 165 1134 319 1528 610 1528 c 0
 640 1528 921 1406 921 1258 c 0
 921 1209 875 1064 650 884 c 1
 783 775 1000 630 1000 548 c 0
 1000 492 626 8 530 8 c 0
 437 8 100 353 100 451 c 0
 100 604 314 760 408 848 c 1
 394 859 l 1
 281 943 165 1028 165 1087 c 0
493 783 m 1
 391 690 307 624 307 549 c 0
 307 483 526 224 612 224 c 0
 647 224 783 391 783 453 c 0
 783 533 669 651 493 783 c 1
583 938 m 1
 687 1047 l 1
 732 1082 737 1137 737 1160 c 0
 737 1247 564 1376 477 1376 c 0
 426 1376 336 1291 336 1213 c 0
 336 1112 470 1020 557 957 c 2
 583 938 l 1
EndSplineSet
EndChar

StartChar: nine
Encoding: 57 57 26
Width: 1065
Flags: MW
HStem: 35 1609
VStem: 86 842
LayerCount: 2
Fore
SplineSet
478 -3 m 1
 235 71 l 1
 235 91 l 1
 555 185 745 343 794 726 c 1
 697 650 540 513 415 460 c 1
 234 589 120 728 120 912 c 0
 120 1168 393 1455 588 1525 c 1
 876 1391 985 1150 985 892 c 0
 985 614 769 231 478 -3 c 1
591 1528 m 1
 591 1526 589 1525 588 1525 c 1
 588 1528 589 1528 591 1528 c 1
477 1305 m 0
 403 1305 314 1189 314 1076 c 0
 314 881 388 680 544 680 c 0
 610 680 692 717 789 807 c 1
 784 1076 727 1305 477 1305 c 0
EndSplineSet
EndChar

StartChar: colon
Encoding: 58 58 27
Width: 427
Flags: MW
HStem: 31 1124<213 214>
VStem: 7 413
LayerCount: 2
Fore
SplineSet
7 237 m 1
 213 442 l 1
 419 237 l 1
 213 31 l 1
 7 237 l 1
8 950 m 1
 214 1155 l 1
 420 950 l 1
 214 744 l 1
 8 950 l 1
EndSplineSet
EndChar

StartChar: semicolon
Encoding: 59 59 28
Width: 429
Flags: MW
HStem: -392 1466
VStem: 0 412<869 869>
LayerCount: 2
Fore
SplineSet
70 293 m 1
 276 477 l 1
 322 386 348 268 348 172 c 0
 348 8 295 -171 215 -392 c 1
 208 -114 170 83 70 293 c 1
0 869 m 1
 206 1074 l 1
 412 869 l 1
 206 663 l 1
 0 869 l 1
EndSplineSet
EndChar

StartChar: less
Encoding: 60 60 29
Width: 733
Flags: MW
HStem: 1073 20G<621 621>
VStem: 68 652<157 575>
LayerCount: 2
Fore
SplineSet
618 54 m 1
 68 575 l 1
 621 1093 l 1
 713 1002 l 1
 253 580 l 1
 720 157 l 1
 618 54 l 1
EndSplineSet
EndChar

StartChar: equal
Encoding: 61 61 30
Width: 781
Flags: MW
HStem: 350 162<105 431 195 412> 690 154
VStem: 48 690<319 884>
LayerCount: 2
Fore
SplineSet
738 884 m 1
 625 690 l 1
 498 690 l 2
 435 690 325 688 226 684 c 0
 198 683 170 675 152 663 c 1
 236 871 l 1
 251 856 268 844 298 844 c 2
 656 853 l 2
 664 853 714 866 738 884 c 1
48 319 m 1
 138 543 l 1
 148 523 170 512 195 512 c 2
 431 512 l 2
 468 512 497 523 524 543 c 1
 412 350 l 1
 114 350 l 2
 96 350 66 337 48 319 c 1
EndSplineSet
EndChar

StartChar: greater
Encoding: 62 62 31
Width: 733
Flags: MW
HStem: 46 1039<117 120>
VStem: 18 652<149 567>
LayerCount: 2
Fore
SplineSet
670 567 m 1
 120 46 l 1
 18 149 l 1
 485 572 l 1
 25 994 l 1
 117 1085 l 1
 670 567 l 1
EndSplineSet
EndChar

StartChar: question
Encoding: 63 63 32
Width: 420
Flags: MW
HStem: 31 1635
VStem: 252 163<1195.5 1254>
LayerCount: 2
Fore
SplineSet
330 612 m 1
 189 447 l 1
 126 482 69 532 27 604 c 1
 151 841 252 1048 252 1187 c 0
 252 1321 170 1376 11 1436 c 1
 116 1541 151 1574 242 1666 c 1
 365 1552 415 1449 415 1316 c 0
 415 1075 212 846 212 724 c 0
 212 650 254 624 330 612 c 1
51 184 m 1
 204 335 l 1
 357 184 l 1
 204 31 l 1
 51 184 l 1
EndSplineSet
EndChar

StartChar: at
Encoding: 64 64 33
Width: 1305
Flags: MW
HStem: -41 86<492.5 642.5 489.5 672> 234 113<475.5 581.5> 237 83<832 946> 789 83<701 716.5> 1027 97<652.5 783>
VStem: 92 134<396 494.5> 368 134<437 521.5> 742 121 1117 111<583 683>
LayerCount: 2
Fore
SplineSet
840 237 m 0xbf80
 824 237 788 240 732 245 c 1
 735 274 735 294 738 315 c 1xbf80
 746 404 l 1
 675 327 624 279 593 261 c 0
 562 243 528 234 493 234 c 0
 458 234 429 254 404 294 c 1xdf80
 380 335 368 388 368 455 c 0
 368 588 406 690 474 761 c 0
 544 835 640 872 762 872 c 0
 813 872 869 863 928 846 c 1
 915 804 905 754 899 696 c 1
 873 490 l 2
 866 437 863 400 863 380 c 0
 863 360 867 345 874 335 c 0
 882 325 898 320 922 320 c 0
 970 320 1022 355 1058 412 c 0
 1097 473 1117 539 1117 611 c 0
 1117 755 1075 845 1006 916 c 0
 933 990 840 1027 726 1027 c 0
 579 1027 459 975 366 872 c 0
 273 768 226 642 226 493 c 0
 226 196 367 45 612 45 c 0
 673 45 722 52 759 65 c 0
 796 78 822 88 837 95 c 0
 852 102 867 110 882 120 c 0
 909 137 943 163 986 199 c 1
 1047 138 l 1
 1018 111 993 92 976 77 c 1
 877 -2 750 -41 594 -41 c 0
 391 -41 248 31 164 176 c 0
 116 257 92 347 92 445 c 0
 92 544 109 634 144 715 c 0
 245 956 481 1124 752 1124 c 0
 906 1124 1025 1076 1108 980 c 0
 1188 886 1228 775 1228 647 c 0
 1228 519 1194 419 1126 346 c 0
 1059 273 963 237 840 237 c 0xbf80
565 347 m 0xdf80
 598 347 640 378 691 439 c 0
 720 474 737 501 744 520 c 0
 751 542 758 576 765 623 c 1
 774 696 l 2
 775 703 776 709 776 716 c 2
 776 734 l 2
 776 771 746 789 687 789 c 0
 632 789 588 761 554 704 c 0
 519 647 502 573 502 482 c 0
 502 392 523 347 565 347 c 0xdf80
EndSplineSet
EndChar

StartChar: A.alt
Encoding: 65537 -1 34
Width: 1293
Flags: MW
HStem: 696 191
VStem: 1200 165
LayerCount: 2
Fore
SplineSet
195 1057 m 1
 403 1160 621 1367 767 1546 c 1
 915 1412 1067 1335 1215 1277 c 1
 1158 1215 1103 1194 1103 1105 c 2
 1103 433 l 2
 1103 327 1173 309 1233 250 c 1
 1181 179 1138 101 1089 36 c 1
 882 212 l 1
 898 330 905 540 905 736 c 1
 485 736 l 1
 464 262 225 -113 -20 -401 c 1
 -23 -399 -68 -357 -70 -354 c 1
 141 -72 281 337 281 675 c 0
 281 789 242 953 195 1057 c 1
489 887 m 1
 900 887 l 1
 900 938 903 1107 904 1191 c 1
 804 1254 787 1261 732 1278 c 0
 601 1319 489 1160 489 957 c 2
 489 887 l 1
EndSplineSet
EndChar

StartChar: B
Encoding: 66 66 35
Width: 1285
Flags: MW
HStem: 1112 20G
VStem: 265 239
LayerCount: 2
Fore
SplineSet
467 895 m 1
 861 1210 l 1
 840 1226 l 2
 754 1291 694 1335 585 1335 c 0
 551 1335 513 1330 467 1321 c 1
 467 895 l 1
174 1241 m 1
 754 1536 l 1
 898 1478 946 1448 1112 1332 c 1
 839 1095 l 1
 1076 991 1225 897 1225 675 c 0
 1225 395 982 248 693 69 c 2
 622 25 l 1
 435 185 348 247 110 277 c 1
 268 432 l 1
 268 1023 l 2
 268 1099 235 1178 174 1241 c 1
741 198 m 1
 745 196 l 1
 910 274 997 459 997 626 c 0
 997 798 905 952 711 952 c 0
 653 952 552 871 466 797 c 1
 466 705 463 637 463 544 c 1
 333 457 l 1
 570 339 650 289 741 198 c 1
EndSplineSet
EndChar

StartChar: C
Encoding: 67 67 36
Width: 1090
Flags: MW
HStem: 16 1597
VStem: 96 220 621 174
LayerCount: 2
Fore
SplineSet
1200 1398 m 1
 1022 1243 l 1
 974 1294 885 1349 805 1353 c 1
 805 1045 l 2
 805 945 805 829 827 697 c 1
 464 455 l 1
 606 345 766 275 953 275 c 0
 988 275 1023 276 1057 279 c 1
 857 32 l 1
 675 93 580 147 463 202 c 0
 70 388 135 668 120 1188 c 1
 888 1532 l 1
 1200 1398 l 1
606 1306 m 1
 527 1282 l 1
 386 1215 326 1140 326 976 c 0
 326 835 327 652 410 510 c 1
 504 571 602 692 614 787 c 0
 619 824 621 882 621 958 c 0
 621 1034 616 1158 606 1306 c 1
EndSplineSet
EndChar

StartChar: D
Encoding: 68 68 37
Width: 1245
Flags: MW
HStem: 34 1579
VStem: -40 1274 210 238
LayerCount: 2
Fore
SplineSet
60 230 m 1
 280 448 l 1
 280 710 l 2
 280 882 267 1016 184 1125 c 1
 339 1137 404 1166 573 1265 c 1
 388 1318 280 1318 97 1318 c 1
 97 1328 l 1
 316 1519 l 1
 990 1457 1175 1133 1175 580 c 1
 636 37 l 1
 448 128 344 172 60 230 c 1
633 1227 m 1
 513 1157 467 1059 467 1000 c 2
 467 865 l 2
 467 766 468 698 502 582 c 1
 337 419 l 1
 512 291 573 271 652 271 c 0
 812 271 956 517 956 697 c 0
 956 953 863 1090 633 1227 c 1
EndSplineSet
EndChar

StartChar: E
Encoding: 69 69 38
Width: 1150
Flags: MW
HStem: 923 193
VStem: 25 220 533 148
LayerCount: 2
Fore
SplineSet
1185 1365 m 1
 1024 1203 l 1
 1010 1213 l 1
 935 1274 869 1328 732 1347 c 1
 727 1251 728 1152 726 1056 c 1
 1119 1056 l 1
 1119 893 l 1
 730 893 l 1
 730 597 l 1
 447 490 l 1
 607 326 803 270 1068 270 c 1
 892 38 l 1
 333 133 100 430 100 1017 c 0
 100 1043 100 1069 101 1096 c 1
 803 1540 l 1
 927 1473 1056 1416 1185 1365 c 1
399 567 m 1
 556 624 l 1
 545 704 539 797 539 882 c 2
 539 1261 l 1
 325 1157 304 1038 304 910 c 0
 304 799 350 661 399 567 c 1
EndSplineSet
EndChar

StartChar: F
Encoding: 70 70 39
Width: 990
Flags: MW
HStem: 809 156
VStem: 59 958
LayerCount: 2
Fore
SplineSet
841 278 m 1
 588 -63 474 -186 417 -266 c 1
 276 -186 142 -58 20 118 c 1
 141 322 l 1
 220 216 334 28 453 28 c 0
 540 28 589 79 589 165 c 0
 589 366 183 798 87 1125 c 1
 285 1253 406 1384 544 1535 c 1
 693 1482 821 1435 990 1382 c 1
 832 1183 l 1
 765 1236 608 1316 545 1316 c 0
 431 1316 349 1200 349 1150 c 0
 349 1104 370 1060 450 919 c 1
 662 919 l 2
 735 919 842 923 965 937 c 1
 904 764 l 1
 515 764 l 1
 648 539 720 455 841 278 c 1
EndSplineSet
EndChar

StartChar: G
Encoding: 71 71 40
Width: 1405
Flags: MW
HStem: 34 1579
VStem: 55 175 498 186
LayerCount: 2
Fore
SplineSet
1253 1362 m 1
 976 1085 l 1
 1170 954 1289 889 1375 747 c 1
 1214 427 1040 186 727 36 c 1
 268 213 115 513 115 895 c 0
 115 922 116 948 120 978 c 1
 333 1281 508 1424 753 1533 c 1
 899 1493 1019 1426 1253 1362 c 1
700 1353 m 1
 700 929 l 1
 1014 1245 l 1
 931 1310 800 1340 700 1353 c 1
700 830 m 1
 700 824 700 759 717 687 c 1
 473 474 l 1
 552 354 656 266 792 266 c 0
 1019 266 1132 458 1132 634 c 0
 1132 743 1024 911 877 911 c 0
 822 911 762 888 700 830 c 1
427 531 m 1
 447 531 l 1
 466 576 504 635 504 687 c 2
 504 1291 l 1
 400 1203 301 1077 301 922 c 0
 301 797 346 631 427 531 c 1
EndSplineSet
EndChar

StartChar: H
Encoding: 72 72 41
Width: 1280
Flags: MW
HStem: -407 2020
VStem: 193 210
LayerCount: 2
Fore
SplineSet
233 692 m 0
 233 872 217 1047 178 1221 c 1
 373 1331 515 1436 696 1536 c 1
 825 1479 957 1432 1083 1398 c 1
 852 1238 l 1
 762 1284 624 1332 550 1332 c 0
 425 1332 423 1208 423 1169 c 2
 423 781 l 1
 832 1061 l 1
 977 925 1123 734 1230 549 c 1
 1127 333 854 -327 603 -327 c 0
 577 -327 497 -294 441 -240 c 1
 767 -140 965 137 965 462 c 0
 965 661 868 818 708 818 c 0
 642 818 579 784 486 724 c 1
 423 672 l 1
 423 398 l 2
 423 342 425 299 646 225 c 1
 525 43 l 1
 374 99 292 156 175 224 c 1
 225 404 233 505 233 692 c 0
EndSplineSet
EndChar

StartChar: I
Encoding: 73 73 42
Width: 986
Flags: MW
HStem: 1345 245 1623 20G
VStem: 23 987
LayerCount: 2
Fore
SplineSet
589 1050 m 2
 589 1107 l 1
 635 1145 685 1203 750 1274 c 1
 709 1268 674 1266 634 1266 c 0
 469 1266 409 1295 231 1295 c 0
 179 1295 129 1289 86 1277 c 1
 202 1521 l 1
 356 1521 510 1479 700 1479 c 0
 768 1479 847 1483 916 1490 c 1
 871 1402 812 1324 784 1282 c 1
 790 1080 859 852 859 684 c 0
 859 563 838 472 798 413 c 1
 811 422 l 2
 669 324 561 191 429 49 c 1
 82 242 l 2
 39 266 10 290 10 336 c 0
 10 356 24 397 31 417 c 1
 119 567 l 1
 164 446 331 295 495 295 c 0
 576 295 649 374 649 468 c 0
 649 821 589 904 589 1050 c 2
EndSplineSet
EndChar

StartChar: J
Encoding: 74 74 43
Width: 980
Flags: MW
HStem: 1358 213 1623 20G
VStem: -161 1087
LayerCount: 2
Fore
SplineSet
334 1269 m 0
 223 1269 126 1240 22 1186 c 1
 195 1531 l 1
 362 1487 448 1471 598 1471 c 0
 708 1471 803 1478 900 1496 c 1
 864 1409 845 1332 845 1264 c 0
 845 1231 859 1130 859 980 c 0
 859 668 831 552 703 332 c 0
 546 61 306 -182 4 -358 c 1
 -150 -190 l 1
 -81 -174 -12 -154 48 -133 c 0
 444 6 572 301 620 744 c 1
 587 745 488 749 441 749 c 0
 350 749 268 738 155 715 c 1
 277 955 l 1
 367 925 443 909 620 908 c 1
 636 1036 681 1213 714 1288 c 1
 659 1273 601 1268 543 1268 c 0
 471 1268 400 1269 334 1269 c 0
EndSplineSet
EndChar

StartChar: K
Encoding: 75 75 44
Width: 1290
Flags: MW
HStem: 34 1579
VStem: -1 1386
LayerCount: 2
Fore
SplineSet
308 1280 m 1
 197 1281 l 2
 164 1281 105 1274 20 1262 c 1
 95 1510 l 1
 282 1496 432 1483 612 1468 c 1
 528 1330 507 1157 507 1029 c 2
 507 937 l 1
 708 1182 891 1430 967 1527 c 1
 1050 1363 1153 1112 1270 965 c 1
 888 784 l 1
 1244 181 l 1
 1017 36 l 1
 904 294 820 475 687 714 c 1
 507 636 l 1
 495 492 354 402 285 331 c 1
 386 297 440 284 516 284 c 2
 632 284 l 1
 495 46 l 1
 361 82 215 104 35 116 c 1
 300 373 308 628 308 931 c 2
 308 1280 l 1
507 782 m 1
 507 732 l 1
 668 805 830 879 991 956 c 1
 853 1219 l 1
 507 782 l 1
EndSplineSet
EndChar

StartChar: L
Encoding: 76 76 45
Width: 1025
Flags: MW
HStem: 34 1580
VStem: 286 191<714.5 728> 667 155
LayerCount: 2
Fore
SplineSet
1048 1511 m 0
 1069 1495 1089 1461 1105 1411 c 1
 1015 1405 959 1392 856 1368 c 1
 846 1300 842 1228 842 1149 c 0
 842 1008 851 929 851 857 c 0
 851 803 813 699 738 638 c 0
 651 567 573 505 367 360 c 1
 616 290 793 253 1037 250 c 1
 988 166 l 2
 970 135 903 34 844 34 c 0
 813 34 701 58 384 131 c 0
 260 160 224 183 100 209 c 1
 272 426 286 554 286 702 c 0
 286 754 266 824 229 910 c 0
 167 1055 139 1121 139 1160 c 0
 139 1262 406 1362 539 1408 c 0
 789 1493 966 1524 1005 1524 c 0
 1021 1524 1035 1520 1048 1511 c 0
632 848 m 2
 632 1203 l 2
 632 1233 638 1272 667 1323 c 1
 667 1343 l 1
 493 1284 403 1246 403 1104 c 0
 403 1084 477 901 477 731 c 0
 477 698 447 590 399 502 c 1
 411 497 l 1
 516 567 632 639 632 848 c 2
EndSplineSet
EndChar

StartChar: M
Encoding: 77 77 46
Width: 1680
Flags: MW
HStem: 31 1504<473 525 525 910 525 1483>
VStem: 176 249<1296 1304> 356 180<551.5 843> 806 209 1258 213
LayerCount: 2
Fore
SplineSet
592 249 m 1xb8
 473 31 l 1
 312 100 196 165 95 225 c 1
 118 247 l 1
 253 372 356 468 356 635 c 0xb8
 356 704 338 783 299 884 c 2
 278 938 l 1
 199 1134 176 1193 176 1251 c 0
 176 1357 252 1438 525 1535 c 1
 545 1479 l 1
 458 1435 425 1383 425 1315 c 0xd8
 425 1277 435 1234 452 1184 c 1
 550 1306 708 1465 764 1517 c 1
 854 1460 904 1410 1021 1326 c 1
 1270 1533 l 1
 1303 1510 l 2
 1408 1436 1493 1378 1615 1306 c 1
 1520 1205 1488 1126 1474 951 c 1
 1474 528 l 2
 1474 336 1493 323 1587 263 c 1
 1597 257 l 1
 1483 31 l 1
 1296 126 1273 203 1273 504 c 2
 1273 784 l 2
 1273 910 1306 1001 1419 1138 c 1
 1296 1236 1201 1280 1137 1303 c 1
 1052 1245 995 1193 995 1080 c 2
 995 466 l 2
 995 368 1012 318 1089 272 c 1
 910 31 l 1
 819 122 777 157 707 225 c 1
 732 249 798 323 798 396 c 2
 798 1193 l 1
 746 1236 703 1269 675 1269 c 0
 632 1269 595 1217 499 1111 c 2
 482 1092 l 1
 520 980 536 884 536 802 c 0
 536 597 438 472 342 359 c 1
 397 314 493 274 592 249 c 1xb8
EndSplineSet
EndChar

StartChar: N
Encoding: 78 78 47
Width: 1269
Flags: MW
HStem: 31 1504<473 524 524 1050>
VStem: 176 246<1292.5 1297.5> 359 181 831 211
LayerCount: 2
Fore
SplineSet
592 249 m 1xb0
 473 31 l 1
 312 100 197 165 95 225 c 1
 265 383 358 484 358 635 c 0
 358 704 339 783 299 884 c 0
 195 1145 176 1207 176 1251 c 0
 176 1344 235 1433 524 1535 c 1
 545 1479 l 1
 454 1425 422 1376 422 1316 c 0xd0
 422 1269 442 1215 469 1146 c 1
 574 1272 719 1434 807 1535 c 1
 949 1448 1041 1402 1204 1324 c 1
 1123 1255 1058 1143 1042 968 c 1
 1042 467 l 2
 1042 344 1074 302 1166 257 c 1
 1050 31 l 1
 863 131 834 225 834 410 c 2
 834 784 l 2
 834 907 919 1060 982 1153 c 1
 882 1225 814 1257 757 1257 c 0
 674 1257 615 1189 519 1078 c 1
 499 1054 l 1
 528 954 540 870 540 796 c 0
 540 593 445 476 342 359 c 1
 398 314 492 274 592 249 c 1xb0
EndSplineSet
EndChar

StartChar: O
Encoding: 79 79 48
Width: 1535
Flags: MW
HStem: 33 154
VStem: 720 194
LayerCount: 2
Fore
SplineSet
100 923 m 1
 284 1239 516 1532 853 1532 c 1
 853 1297 l 1
 1072 1517 l 1
 1177 1332 1273 1183 1495 1048 c 1
 1495 1029 l 2
 1495 617 1262 43 784 43 c 0
 580 43 175 69 100 923 c 1
871 1275 m 1
 853 1275 l 1
 856 958 858 700 929 524 c 1
 752 439 677 351 609 256 c 1
 706 197 784 187 878 187 c 0
 1117 187 1280 399 1280 674 c 0
 1280 959 1125 1117 871 1275 c 1
554 316 m 1
 633 414 668 520 668 641 c 2
 668 1385 l 1
 443 1312 346 1090 346 860 c 0
 346 651 427 434 554 316 c 1
EndSplineSet
EndChar

StartChar: P
Encoding: 80 80 49
Width: 1250
Flags: MW
HStem: -383 1996
VStem: 60 1204 305 210
LayerCount: 2
Fore
SplineSet
527 -98 m 1
 431 -156 357 -224 212 -316 c 1
 253 -161 280 17 295 249 c 1
 120 318 l 1
 290 492 l 1
 290 1285 l 1
 70 1345 l 1
 219 1532 l 1
 531 1435 l 1
 518 1245 l 1
 799 1525 l 1
 1014 1359 1175 1148 1175 915 c 0
 1175 589 1041 359 821 47 c 1
 486 197 l 1
 486 41 507 -44 527 -98 c 1
833 276 m 1
 912 276 997 546 997 706 c 0
 997 869 870 1265 691 1265 c 0
 625 1265 495 1110 495 955 c 2
 495 416 l 1
 833 276 l 1
EndSplineSet
EndChar

StartChar: Q
Encoding: 81 81 50
Width: 1525
Flags: MW
HStem: -361 74<2044 2136> 33 154
VStem: 694 193
LayerCount: 2
Fore
SplineSet
100 923 m 1
 284 1239 462 1509 853 1532 c 1
 853 1297 l 1
 1072 1517 l 1
 1177 1332 1273 1183 1495 1048 c 1
 1495 1029 l 2
 1495 771 1403 449 1217 245 c 1
 1426 -114 1788 -287 2300 -287 c 0
 2352 -287 2374 -285 2425 -282 c 1
 2425 -338 l 1
 2302 -359 2197 -361 2075 -361 c 0
 1660 -361 1310 -207 998 86 c 1
 933 58 862 43 784 43 c 0
 580 43 175 69 100 923 c 1
853 1275 m 1
 856 958 858 700 929 524 c 1
 752 439 677 351 609 256 c 1
 706 197 784 187 878 187 c 0
 1117 187 1280 399 1280 674 c 0
 1280 959 1125 1117 853 1275 c 1
554 316 m 1
 633 414 668 520 668 641 c 2
 668 1385 l 1
 443 1312 346 1090 346 860 c 0
 346 651 427 434 554 316 c 1
EndSplineSet
EndChar

StartChar: R
Encoding: 82 82 51
Width: 1234
Flags: MW
HStem: 34 1579
VStem: 11 1449
LayerCount: 2
Fore
SplineSet
460 47 m 1
 60 218 l 1
 248 406 311 621 311 881 c 0
 311 1013 281 1105 211 1277 c 1
 169 1295 123 1307 73 1314 c 1
 340 1526 l 1
 405 1480 484 1398 494 1232 c 1
 584 1316 723 1440 782 1522 c 1
 999 1393 1140 1247 1253 1157 c 1
 865 880 l 1
 1135 333 l 2
 1159 285 1198 252 1254 229 c 1
 1011 50 l 1
 844 361 765 546 629 849 c 1
 971 1089 l 1
 920 1147 836 1242 724 1310 c 1
 495 1103 l 1
 495 1101 l 2
 495 905 493 666 313 381 c 1
 549 266 l 1
 568 259 593 255 626 255 c 2
 641 255 l 1
 460 47 l 1
EndSplineSet
EndChar

StartChar: S
Encoding: 83 83 52
Width: 1435
Flags: MW
HStem: 33 1612
VStem: 1435 16
LayerCount: 2
Fore
SplineSet
639 1545 m 0
 808 1545 1007 1457 1204 1457 c 0
 1266 1457 1345 1478 1441 1519 c 1
 1442 1516 1445 1516 1445 1515 c 0
 1344 1305 1241 1230 1118 1230 c 0
 975 1230 775 1338 630 1338 c 0
 455 1338 320 1251 320 1073 c 0
 320 1028 320 846 559 846 c 0
 662 846 707 908 775 1051 c 1
 816 1056 854 1059 890 1059 c 0
 1239 1059 1371 823 1371 608 c 0
 1371 374 1177 120 848 33 c 1
 621 63 80 271 80 696 c 0
 80 990 364 1545 639 1545 c 0
303 796 m 1
 289 782 l 1
 313 532 666 262 952 262 c 0
 1141 262 1250 424 1250 574 c 0
 1250 703 1129 823 949 823 c 0
 848 823 755 754 686 618 c 1
 574 624 446 697 303 796 c 1
EndSplineSet
EndChar

StartChar: T
Encoding: 84 84 53
Width: 1220
Flags: MW
HStem: 49 127 1421 189 1623 20G
VStem: 697 239
LayerCount: 2
Fore
SplineSet
1257 216 m 1
 1096 100 937 48 790 48 c 0
 445 48 185 336 100 766 c 1
 236 948 404 1112 627 1315 c 1
 558 1315 495 1318 443 1318 c 0
 357 1318 276 1310 138 1266 c 1
 325 1518 l 1
 521 1500 668 1490 843 1490 c 0
 1002 1490 1152 1498 1295 1513 c 1
 1167 1275 l 1
 1104 1297 1012 1315 891 1315 c 1
 891 491 l 1
 767 470 708 415 580 326 c 1
 700 242 808 207 923 207 c 0
 1017 207 1116 230 1230 269 c 1
 1257 216 l 1
679 678 m 2
 679 1231 l 1
 555 1115 348 962 348 761 c 0
 348 603 408 517 525 375 c 1
 617 465 679 566 679 678 c 2
EndSplineSet
EndChar

StartChar: U
Encoding: 85 85 54
Width: 1275
Flags: MW
HStem: 34 1679
VStem: 107 131 995 223
LayerCount: 2
Fore
SplineSet
1200 296 m 1
 1023 39 l 1
 813 185 l 1
 851 248 883 297 883 467 c 1
 483 59 l 1
 379 140 263 161 75 229 c 1
 244 355 335 627 335 779 c 0
 335 930 97 1137 97 1261 c 0
 97 1367 179 1521 349 1622 c 1
 402 1587 l 1
 301 1509 268 1438 268 1375 c 0
 268 1349 331 1195 552 1068 c 1
 552 1064 l 2
 552 839 482 641 342 405 c 1
 445 335 512 323 567 323 c 0
 619 323 734 442 879 610 c 1
 879 1149 l 2
 879 1181 846 1225 740 1301 c 1
 920 1533 l 1
 1162 1389 l 1
 1083 1299 1070 1219 1070 1136 c 0
 1070 1098 1073 1059 1073 1019 c 2
 1073 625 l 2
 1073 464 1112 352 1200 296 c 1
EndSplineSet
EndChar

StartChar: V
Encoding: 86 86 55
Width: 1190
Flags: MW
HStem: 1623 20G
VStem: 65 1131 274 222
LayerCount: 2
Fore
SplineSet
216 1551 m 1xc0
 286 1550 l 1
 272 1524 264 1499 264 1476 c 0
 264 1328 434 1366 449 1204 c 1
 805 1528 l 1
 1005 1300 1115 984 1115 864 c 0
 1115 703 1069 591 952 445 c 0
 861 331 761 192 658 40 c 1
 540 91 420 180 131 226 c 1
 200 330 274 403 274 529 c 2
 274 934 l 2xa0
 274 1037 229 1121 142 1189 c 0
 100 1222 75 1260 75 1305 c 0
 75 1334 86 1365 110 1400 c 2
 216 1551 l 1xc0
697 278 m 1
 865 445 910 561 910 626 c 0
 910 881 762 1260 667 1260 c 1
 619 1246 553 1192 472 1108 c 1
 475 1080 476 1052 476 1007 c 1
 458 380 l 1
 697 278 l 1
EndSplineSet
EndChar

StartChar: W
Encoding: 87 87 56
Width: 1645
Flags: MW
HStem: 1623 20G
VStem: 45 1717
LayerCount: 2
Fore
SplineSet
1267 219 m 2
 1107 43 l 1
 969 104 791 220 791 220 c 1
 791 220 643 108 593 43 c 1
 366 100 233 178 106 212 c 1
 194 308 243 373 276 417 c 0
 325 482 365 546 365 585 c 0
 365 611 356 643 335 686 c 2
 93 1168 l 2
 76 1201 75 1213 75 1220 c 0
 75 1238 80 1259 380 1541 c 1
 457 1520 l 1
 371 1415 319 1317 319 1256 c 0
 319 1229 336 1200 373 1131 c 1
 505 1255 612 1366 748 1526 c 1
 998 1227 l 1
 1292 1521 l 1
 1424 1313 1580 1033 1580 805 c 0
 1580 563 1425 393 1267 219 c 2
1156 1264 m 1
 1003 1110 l 1
 1003 854 991 616 977 362 c 1
 1037 328 1057 284 1156 246 c 1
 1270 358 1376 464 1376 589 c 0
 1376 804 1322 985 1156 1264 c 1
424 1043 m 1
 493 912 558 824 558 760 c 0
 558 696 501 563 347 359 c 1
 497 290 565 255 633 255 c 0
 674 255 718 290 779 363 c 1
 793 600 799 851 799 1085 c 0
 799 1124 697 1227 646 1271 c 1
 424 1043 l 1
EndSplineSet
EndChar

StartChar: X
Encoding: 88 88 57
Width: 1120
Flags: MW
HStem: 3 21G
VStem: -41 1325
LayerCount: 2
Fore
SplineSet
471 850 m 1
 323 591 298 474 298 133 c 1
 204 108 110 73 0 22 c 1
 76 273 182 594 419 921 c 1
 201 1239 l 2
 171 1282 125 1286 48 1292 c 1
 123 1381 202 1448 304 1527 c 1
 550 1104 l 1
 852 1544 l 1
 905 1522 925 1519 1170 1399 c 1
 1016 1202 l 1
 944 1268 924 1285 822 1333 c 1
 789 1299 718 1188 600 1012 c 1
 958 419 l 2
 992 362 1058 335 1155 305 c 1
 874 11 l 1
 755 319 585 627 471 850 c 1
EndSplineSet
EndChar

StartChar: Y
Encoding: 89 89 58
Width: 1275
Flags: MW
HStem: -618 2331
VStem: 107 132 996 217
LayerCount: 2
Fore
SplineSet
1200 296 m 1
 1085 30 952 -388 595 -388 c 0
 487 -388 404 -259 221 -259 c 0
 156 -259 88 -287 15 -326 c 1
 5 -316 l 1
 103 -110 196 -49 288 -49 c 0
 420 -49 552 -172 705 -172 c 0
 903 -172 973 -35 973 23 c 0
 973 83 887 224 883 467 c 1
 483 79 l 1
 374 140 263 177 75 239 c 1
 244 365 335 627 335 779 c 0
 335 930 97 1137 97 1261 c 0
 97 1367 179 1521 349 1622 c 1
 402 1587 l 1
 301 1509 268 1438 268 1375 c 0
 268 1349 331 1195 552 1068 c 1
 552 839 482 651 342 415 c 1
 445 345 512 333 567 333 c 0
 619 333 734 442 879 610 c 1
 879 1149 l 2
 879 1181 846 1225 740 1301 c 1
 920 1533 l 1
 1162 1389 l 1
 1083 1299 1073 1219 1073 1136 c 2
 1073 625 l 2
 1073 464 1112 352 1200 296 c 1
EndSplineSet
EndChar

StartChar: Z
Encoding: 90 90 59
Width: 1045
Flags: MW
HStem: -500 180 1623 20G
VStem: -84 54
LayerCount: 2
Fore
SplineSet
467 1495 m 2
 1040 1495 l 1
 570 1024 l 1
 891 838 1020 590 1020 378 c 0
 1020 10 629 -316 200 -316 c 0
 169 -316 118 -314 87 -301 c 0
 28 -276 0 -118 0 6 c 0
 0 426 453 691 622 721 c 1
 540 785 456 864 328 919 c 1
 688 1279 l 1
 614 1293 530 1300 446 1300 c 0
 302 1300 157 1279 59 1239 c 1
 185 1522 l 1
 285 1500 332 1495 467 1495 c 2
161 155 m 1
 161 -15 258 -132 440 -132 c 0
 626 -132 818 17 818 286 c 0
 818 355 811 468 730 577 c 1
 560 577 169 457 161 155 c 1
EndSplineSet
EndChar

StartChar: bracketleft
Encoding: 91 91 60
Width: 398
Flags: MW
HStem: -78 55<271 423 271 423> 1473 51<271 427 271 271>
VStem: 105 166<-23 1473 -23 1524 -23 1524>
LayerCount: 2
Fore
SplineSet
423 -78 m 1
 105 -78 l 1
 105 1524 l 1
 427 1524 l 1
 427 1473 l 1
 271 1473 l 1
 271 -23 l 1
 423 -23 l 1
 423 -78 l 1
EndSplineSet
EndChar

StartChar: backslash
Encoding: 92 92 61
Width: 712
Flags: MW
HStem: 1 21G<594 692 594 594> 1519 20G<9 107 107 107>
VStem: 9 683
LayerCount: 2
Fore
SplineSet
107 1539 m 1
 692 1 l 1
 594 1 l 1
 9 1539 l 1
 107 1539 l 1
EndSplineSet
EndChar

StartChar: bracketright
Encoding: 93 93 62
Width: 438
Flags: MW
HStem: -77 55<11 163 11 329 11 163> 1474 51<7 163 7 329>
VStem: 163 166<-22 1474 1474 1474>
LayerCount: 2
Fore
SplineSet
329 -77 m 1
 11 -77 l 1
 11 -22 l 1
 163 -22 l 1
 163 1474 l 1
 7 1474 l 1
 7 1525 l 1
 329 1525 l 1
 329 -77 l 1
EndSplineSet
EndChar

StartChar: asciicircum
Encoding: 94 94 63
Width: 518
Flags: MW
HStem: 1175 342<32.5 283 40 283 222 445 222 465>
VStem: 18 466<1186.5 1193.5>
LayerCount: 2
Fore
SplineSet
58 1175 m 2
 40 1175 l 2
 25 1175 18 1181 18 1192 c 0
 18 1195 19 1199 22 1203 c 2
 206 1509 l 2
 209 1514 215 1517 222 1517 c 2
 283 1517 l 2
 292 1517 298 1514 301 1509 c 2
 481 1203 l 2
 483 1199 484 1195 484 1192 c 0
 484 1181 478 1175 465 1175 c 2
 445 1175 l 2
 438 1175 434 1176 431 1179 c 2
 251 1377 l 1
 137 1258 73 1177 68 1176 c 0
 63 1175 60 1175 58 1175 c 2
EndSplineSet
EndChar

StartChar: underscore
Encoding: 95 95 64
Width: 1130
Flags: MW
HStem: -349 79<-38.5 1166 -32 1162>
VStem: -52 1239<-329 -282.5 -289 -282.5>
LayerCount: 2
Fore
SplineSet
-52 -329 m 2
 -52 -289 l 2
 -52 -276 -45 -270 -32 -270 c 2
 1166 -270 l 2
 1180 -270 1187 -276 1187 -289 c 1
 1183 -329 l 1
 1183 -342 1176 -349 1162 -349 c 2
 -32 -349 l 2
 -45 -349 -52 -342 -52 -329 c 2
EndSplineSet
EndChar

StartChar: grave
Encoding: 96 96 65
Width: 520
Flags: MW
HStem: 1315 344<386 448>
VStem: 217 231
LayerCount: 2
Fore
SplineSet
217 1629 m 1
 386 1659 l 1
 423 1559 441 1469 448 1315 c 1
 217 1629 l 1
EndSplineSet
EndChar

StartChar: a
Encoding: 97 97 66
Width: 832
Flags: MW
HStem: 29 1047<326 420>
VStem: 113 170<290.5 309> 494 165
LayerCount: 2
Fore
SplineSet
81 854 m 1
 420 1076 l 1
 740 900 l 1
 688 855 662 804 661 747 c 2
 657 334 l 2
 656 286 683 247 768 186 c 1
 628 31 l 1
 484 170 l 1
 326 29 l 1
 226 66 129 124 77 172 c 1
 102 203 113 259 113 309 c 2
 110 737 l 2
 109 779 99 818 81 854 c 1
496 821 m 1
 352 913 l 1
 320 897 281 864 281 819 c 2
 283 317 l 2
 283 264 326 225 393 186 c 1
 492 268 l 1
 496 821 l 1
EndSplineSet
EndChar

StartChar: b
Encoding: 98 98 67
Width: 766
Flags: MW
HStem: 14 1497<363 420>
VStem: 119 164 538 161<354.5 608.5>
LayerCount: 2
Fore
SplineSet
61 1334 m 1
 69 1358 l 1
 174 1389 262 1465 363 1511 c 1
 404 1485 l 1
 325 1417 286 1332 285 1175 c 2
 284 924 l 1
 424 1073 l 1
 605 952 699 692 699 525 c 0
 699 497 691 466 678 446 c 2
 420 14 l 1
 75 225 l 1
 108 297 119 336 119 418 c 2
 111 1195 l 2
 110 1246 101 1308 61 1334 c 1
286 835 m 1
 281 341 l 1
 293 272 408 225 429 225 c 0
 461 225 538 330 538 379 c 0
 538 638 437 804 334 875 c 1
 286 835 l 1
EndSplineSet
EndChar

StartChar: c
Encoding: 99 99 68
Width: 687
Flags: MW
HStem: 29 1063<334 354>
VStem: 56 130<621.5 661>
LayerCount: 2
Fore
SplineSet
606 337 m 1
 334 29 l 1
 18 282 56 412 56 578 c 0
 56 744 135 888 354 1092 c 1
 632 923 l 1
 494 767 l 1
 397 828 351 882 297 882 c 0
 230 882 186 745 186 694 c 0
 186 549 208 421 315 317 c 0
 388 246 445 265 550 388 c 1
 606 337 l 1
EndSplineSet
EndChar

StartChar: d
Encoding: 100 100 69
Width: 753
Flags: MW
HStem: 52 1356
VStem: 76 176 504 170
LayerCount: 2
Fore
SplineSet
76 878 m 1
 210 939 297 988 355 1019 c 1
 303 1112 237 1203 153 1304 c 1
 349 1408 l 1
 580 1120 688 739 674 331 c 1
 529 215 473 171 404 52 c 1
 247 108 168 173 86 247 c 1
 81 448 79 675 76 878 c 1
504 296 m 1
 508 571 477 765 392 945 c 1
 334 916 286 881 257 846 c 1
 249 678 251 531 260 371 c 1
 304 316 386 264 445 242 c 1
 504 296 l 1
EndSplineSet
EndChar

StartChar: e
Encoding: 101 101 70
Width: 699
Flags: MW
HStem: 31 1049<373 461>
VStem: 103 158
LayerCount: 2
Fore
SplineSet
614 250 m 1
 461 31 l 1
 81 222 l 1
 116 426 108 649 69 893 c 1
 373 1077 l 1
 373 1080 l 1
 375 1079 l 1
 376 1079 l 1
 650 874 l 1
 273 375 l 1
 287 352 318 324 343 308 c 0
 434 250 501 247 614 250 c 1
326 900 m 0
 311 900 284 889 280 866 c 0
 254 707 259 567 268 461 c 1
 421 696 l 2
 429 709 447 739 447 756 c 0
 447 802 365 900 326 900 c 0
EndSplineSet
EndChar

StartChar: f
Encoding: 102 102 71
Width: 529
Flags: MW
HStem: 880 178<295 447 295 295>
VStem: 117 178<592.5 880>
LayerCount: 2
Fore
SplineSet
492 1231 m 1
 442 1261 345 1287 278 1295 c 1
 232 1223 l 1
 245 1196 277 1098 284 1058 c 1
 447 1058 l 1
 447 880 l 1
 295 880 l 1
 295 755 289 570 286 458 c 0
 283 331 240 78 60 -364 c 1
 42 -354 31 -354 11 -346 c 1
 58 -198 89 -79 103 183 c 0
 113 372 117 530 117 655 c 0
 117 780 115 892 113 991 c 0
 111 1045 95 1113 52 1154 c 1
 168 1279 205 1331 321 1455 c 1
 445 1440 492 1428 627 1401 c 1
 575 1329 542 1286 492 1231 c 1
EndSplineSet
EndChar

StartChar: g
Encoding: 103 103 72
Width: 862
Flags: MW
HStem: 0 21G<618 618>
VStem: 125 153<339 357 338 697> 506 162
LayerCount: 2
Fore
SplineSet
83 818 m 1
 405 1076 l 1
 740 910 l 1
 697 870 669 802 669 754 c 2
 665 341 l 2
 664 283 728 139 775 108 c 1
 437 -310 l 1
 318 -277 161 -257 31 -245 c 1
 273 67 l 1
 200 106 167 132 83 202 c 1
 105 231 119 277 125 339 c 1
 125 697 l 2
 125 742 112 782 83 818 c 1
494 -155 m 1
 618 0 l 1
 535 69 527 131 506 272 c 1
 224 -101 l 1
 298 -103 397 -120 494 -155 c 1
385 209 m 1
 506 349 l 1
 507 809 l 1
 337 896 l 1
 298 870 279 846 279 826 c 2
 278 357 l 2
 278 319 287 292 300 276 c 0
 331 238 356 223 385 209 c 1
EndSplineSet
EndChar

StartChar: h
Encoding: 104 104 73
Width: 797
Flags: MW
HStem: -330 1843<332 416>
VStem: 120 175 569 143<307.5 384.5>
LayerCount: 2
Fore
SplineSet
393 190 m 1
 239 15 l 1
 172 55 102 119 58 155 c 1
 113 209 113 271 115 332 c 1
 120 1066 l 1
 120 1095 l 2
 120 1178 114 1302 70 1373 c 1
 332 1513 l 1
 296 1353 296 1174 296 997 c 2
 296 931 l 1
 464 1080 l 1
 645 897 712 681 712 468 c 0
 712 147 558 -164 416 -330 c 1
 327 -294 l 1
 485 -131 569 73 569 286 c 0
 569 483 498 687 348 874 c 1
 297 831 l 1
 294 353 l 2
 293 246 310 239 393 190 c 1
EndSplineSet
EndChar

StartChar: i
Encoding: 105 105 74
Width: 416
Flags: MW
HStem: 31 1409<148 206>
VStem: 102 183<301.5 333 333 342 301.5 813>
LayerCount: 2
Fore
SplineSet
18 917 m 1
 169 1088 l 1
 339 955 l 1
 325 930 293 892 289 857 c 1
 285 342 l 1
 285 333 l 2
 285 270 307 231 359 210 c 1
 206 31 l 1
 58 155 l 1
 97 201 102 232 102 278 c 2
 102 813 l 2
 102 845 87 874 18 917 c 1
368 1353 m 1
 89 1148 l 1
 148 1440 l 1
 368 1353 l 1
EndSplineSet
EndChar

StartChar: j
Encoding: 106 106 75
Width: 441
Flags: MW
HStem: -368 1808
VStem: 115 184<813 829>
LayerCount: 2
Fore
SplineSet
35 913 m 1
 169 1080 l 1
 349 992 l 1
 319 924 299 911 299 759 c 0
 299 700 298 517 297 460 c 0
 295 338 266 136 60 -368 c 1
 42 -358 19 -349 11 -346 c 1
 80 -107 110 29 112 352 c 2
 115 813 l 2
 115 845 94 869 35 913 c 1
379 1353 m 1
 100 1148 l 1
 159 1440 l 1
 379 1353 l 1
EndSplineSet
EndChar

StartChar: k
Encoding: 107 107 76
Width: 577
Flags: MW
HStem: 754 181<30 327 283 327 283 327 392 459>
VStem: 108 173
LayerCount: 2
Fore
SplineSet
358 195 m 1
 209 19 l 1
 133 72 93 103 45 147 c 1
 73 169 108 232 108 282 c 2
 106 754 l 1
 30 754 l 1
 107 899 l 1
 108 1080 l 2
 109 1215 108 1327 71 1387 c 1
 320 1511 l 1
 297 1451 286 1324 283 1237 c 1
 451 1416 l 1
 515 1347 568 1277 617 1202 c 1
 392 935 l 1
 553 935 l 1
 459 754 l 1
 283 754 l 1
 279 319 l 2
 278 242 306 229 358 195 c 1
344 1223 m 1
 283 1166 l 1
 283 935 l 1
 327 935 l 1
 448 1100 l 1
 425 1172 379 1199 344 1223 c 1
EndSplineSet
EndChar

StartChar: l
Encoding: 108 108 77
Width: 400
Flags: MW
HStem: 25 1510<177 298>
VStem: 85 177<341 1024 341 1089 341 1138>
LayerCount: 2
Fore
SplineSet
337 210 m 1
 177 25 l 1
 23 147 l 1
 56 192 83 221 85 282 c 1
 85 1089 l 2
 85 1187 84 1332 35 1394 c 1
 298 1535 l 1
 262 1375 263 1201 262 1024 c 1
 262 341 l 1
 260 269 276 249 337 210 c 1
EndSplineSet
EndChar

StartChar: m
Encoding: 109 109 78
Width: 1193
Flags: MW
HStem: 18 1062<412 601>
VStem: 120 168 492 171<295.5 334 295.5 766> 853 181<209.5 335>
LayerCount: 2
Fore
SplineSet
278 948 m 1
 278 947 l 1
 412 1080 l 1
 640 928 l 1
 770 1080 l 1
 1084 864 l 1
 1049 769 l 1
 1034 335 l 1
 1034 254 1057 238 1127 197 c 1
 985 31 l 1
 869 106 853 137 853 282 c 1
 860 747 l 2
 860 774 798 813 708 878 c 1
 672 823 l 1
 663 334 l 1
 663 257 687 225 754 197 c 1
 601 18 l 1
 433 155 l 1
 471 200 491 235 492 282 c 1
 492 766 l 2
 492 786 411 844 333 887 c 1
 289 828 l 1
 288 335 l 2
 288 264 317 226 363 210 c 1
 210 31 l 1
 58 155 l 1
 96 201 111 236 112 282 c 2
 120 794 l 2
 120 826 58 871 10 903 c 1
 128 1063 l 1
 278 948 l 1
EndSplineSet
EndChar

StartChar: n
Encoding: 110 110 79
Width: 818
Flags: MW
HStem: 31 1052<210 407 407 617>
VStem: 116 172<298.5 329 329 335 298.5 797> 492 174
LayerCount: 2
Fore
SplineSet
133 1063 m 1
 283 947 l 1
 407 1083 l 1
 711 860 l 1
 681 769 l 1
 666 319 l 1
 666 243 708 234 759 197 c 1
 617 31 l 1
 516 95 485 108 485 259 c 2
 485 280 l 1
 492 747 l 2
 492 775 401 844 333 887 c 1
 297 833 l 1
 288 335 l 1
 288 329 l 2
 288 268 310 240 363 210 c 1
 210 31 l 1
 58 155 l 1
 96 201 116 236 116 282 c 2
 116 797 l 2
 116 829 61 873 12 905 c 1
 133 1063 l 1
EndSplineSet
EndChar

StartChar: o
Encoding: 111 111 80
Width: 747
Flags: MW
HStem: 14 1070
VStem: 90 161 521 170
LayerCount: 2
Fore
SplineSet
253 825 m 1
 250 359 l 1
 262 286 380 247 403 247 c 0
 461 247 521 317 521 388 c 0
 521 635 421 787 310 875 c 1
 253 825 l 1
61 804 m 1
 213 892 300 965 383 1084 c 1
 559 972 658 755 686 588 c 0
 696 529 691 487 659 437 c 2
 396 14 l 1
 51 225 l 1
 82 283 90 336 90 427 c 2
 90 702 l 1
 87 750 71 786 61 804 c 1
EndSplineSet
EndChar

StartChar: p
Encoding: 112 112 81
Width: 789
Flags: MW
HStem: -360 1444<73 418>
VStem: 118 164<-113.5 9> 121 169<713 799> 542 171<361 622>
LayerCount: 2
Fore
SplineSet
290 766 m 1xb0
 281 326 l 1
 366 270 418 240 448 240 c 0
 510 240 542 317 542 405 c 0
 542 593 471 781 337 887 c 1
 309 864 290 832 290 766 c 1xb0
302 -251 m 1xd0
 207 -269 134 -307 73 -360 c 1
 43 -331 l 1
 82 -280 118 -190 118 -37 c 1
 120 192 l 1
 48 241 l 1xd0
 73 287 101 297 120 366 c 1
 121 713 l 2
 121 766 115 829 77 859 c 2xb0
 8 914 l 1
 134 1068 l 1
 292 930 l 1
 418 1084 l 1
 590 972 713 708 713 536 c 0
 713 492 703 456 682 429 c 1
 425 31 l 1
 283 120 l 1
 282 9 l 2
 282 0 296 -86 302 -251 c 1xd0
EndSplineSet
EndChar

StartChar: q
Encoding: 113 113 82
Width: 755
Flags: MW
HStem: -381 21G<570 570>
VStem: 77 162<293 366> 448 178
LayerCount: 2
Fore
SplineSet
26 818 m 1
 359 1076 l 1
 665 906 l 1
 631 871 628 813 627 746 c 2
 626 -122 l 2
 626 -151 663 -200 695 -225 c 1
 570 -381 l 1
 475 -308 446 -290 447 -171 c 2
 448 190 l 1
 382 131 316 76 269 29 c 1
 188 70 117 139 42 202 c 1
 61 233 77 247 77 339 c 2
 74 719 l 2
 73 758 50 787 26 818 c 1
448 809 m 1
 297 900 l 1
 281 885 240 861 240 834 c 2
 239 366 l 2
 239 329 248 303 264 289 c 0
 313 246 316 227 369 215 c 1
 448 261 l 1
 448 809 l 1
EndSplineSet
EndChar

StartChar: r
Encoding: 114 114 83
Width: 658
Flags: MW
HStem: 16 1064<245 407>
VStem: 111 178
LayerCount: 2
Fore
SplineSet
142 1063 m 1
 284 948 l 1
 407 1080 l 1
 484 1032 563 976 623 878 c 1
 490 701 l 1
 419 822 370 869 329 894 c 1
 296 849 l 1
 289 335 l 1
 289 330 l 2
 289 254 317 244 392 197 c 1
 245 16 l 1
 56 170 l 1
 93 215 111 235 112 282 c 1
 110 794 l 1
 108 826 67 867 20 899 c 1
 142 1063 l 1
EndSplineSet
Substitution2: "Single Substitution lookup 3 subtable" uniA75B
EndChar

StartChar: s
Encoding: 115 115 84
Width: 793
Flags: MW
HStem: 31 1048
VStem: 97 159
LayerCount: 2
Fore
SplineSet
488 245 m 0
 524 245 561 275 561 323 c 0
 561 360 535 421 431 591 c 1
 256 379 l 1
 357 321 432 245 488 245 c 0
57 262 m 1
 194 408 l 1
 152 480 108 665 97 785 c 1
 161 888 247 968 382 1079 c 1
 484 1045 556 986 693 953 c 1
 739 950 l 1
 562 738 l 1
 738 396 l 1
 636 303 520 175 435 31 c 1
 328 108 213 215 57 262 c 1
324 585 m 1
 515 799 l 1
 402 873 338 899 302 899 c 0
 261 899 256 866 256 832 c 0
 256 764 276 675 324 585 c 1
EndSplineSet
Substitution2: "Single Substitution lookup 1 subtable" longs
EndChar

StartChar: t
Encoding: 116 116 85
Width: 550
Flags: MW
HStem: 880 179<42 488 304 488 307 488 307 488>
VStem: 129 175
LayerCount: 2
Fore
SplineSet
415 194 m 1
 262 31 l 1
 194 87 111 153 70 187 c 1
 115 232 126 257 127 339 c 2
 131 880 l 1
 42 880 l 1
 42 929 l 1
 133 1059 194 1153 333 1360 c 1
 365 1352 l 1
 338 1251 317 1150 307 1059 c 1
 488 1059 l 1
 488 880 l 1
 304 880 l 1
 304 335 l 2
 304 260 322 252 415 194 c 1
EndSplineSet
EndChar

StartChar: u
Encoding: 117 117 86
Width: 855
Flags: MW
HStem: 31 1049<167 329 167 657>
VStem: 109 197 510 196<832 879>
LayerCount: 2
Fore
SplineSet
435 926 m 1
 558 1080 l 1
 748 959 l 1
 729 923 706 898 706 860 c 1
 692 331 l 1
 692 325 l 2
 692 260 739 218 791 197 c 1
 657 31 l 1
 490 177 l 1
 329 31 l 1
 62 215 l 1
 101 261 109 295 109 341 c 2
 119 828 l 2
 119 858 93 888 42 917 c 1
 167 1080 l 1
 346 975 l 1
 331 920 306 892 306 856 c 2
 291 302 l 2
 290 281 319 257 349 236 c 0
 358 230 371 226 385 226 c 0
 422 226 430 227 512 307 c 1
 510 832 l 2
 510 862 480 896 435 926 c 1
EndSplineSet
EndChar

StartChar: v
Encoding: 118 118 87
Width: 772
Flags: MW
HStem: 31 1057<419 491>
VStem: 116 174 539 152<450.5 498.5>
LayerCount: 2
Fore
SplineSet
290 771 m 2
 284 314 l 1
 355 265 389 240 448 240 c 0
 507 240 539 296 539 412 c 0
 539 585 460 813 351 898 c 1
 294 850 290 816 290 771 c 2
653 365 m 1
 419 31 l 1
 190 120 120 157 39 192 c 1
 82 251 116 327 116 457 c 2
 117 728 l 2
 117 781 109 823 68 858 c 2
 0 914 l 1
 133 1063 l 1
 292 930 l 1
 491 1088 l 1
 661 885 691 683 691 473 c 0
 691 428 676 394 653 365 c 1
EndSplineSet
EndChar

StartChar: w
Encoding: 119 119 88
Width: 1138
Flags: MW
HStem: 21 1059<784 855>
VStem: 126 160 491 174<712 810.5> 911 156<346 593>
LayerCount: 2
Fore
SplineSet
162 1068 m 1
 358 928 l 1
 489 1071 l 1
 665 928 l 1
 855 1080 l 1
 991 969 1067 681 1067 505 c 0
 1067 473 1056 407 1026 365 c 2
 784 21 l 1
 780 23 569 166 515 202 c 1
 370 31 l 1
 65 260 l 1
 100 315 120 365 121 410 c 2
 126 813 l 2
 126 835 116 850 99 864 c 2
 45 906 l 1
 162 1068 l 1
442 225 m 1
 474 271 489 287 490 417 c 2
 491 712 l 2
 491 780 442 841 367 881 c 1
 316 835 297 807 296 772 c 2
 286 387 l 1
 286 305 394 254 442 225 c 1
665 785 m 2
 661 330 l 1
 705 284 785 226 820 226 c 0
 869 226 911 306 911 386 c 0
 911 555 875 735 741 887 c 1
 703 859 665 836 665 785 c 2
EndSplineSet
EndChar

StartChar: x
Encoding: 120 120 89
Width: 751
Flags: MW
HStem: 1074 20G
VStem: -38 764
LayerCount: 2
Fore
SplineSet
181 285 m 2
 185 133 l 1
 108 113 32 72 -38 24 c 1
 5 166 104 393 243 622 c 1
 206 708 182 775 147 842 c 0
 109 916 65 931 13 928 c 1
 60 987 115 1033 220 1094 c 1
 271 1003 301 927 352 799 c 1
 390 869 467 983 539 1080 c 1
 726 986 l 1
 626 820 l 1
 575 855 528 873 500 888 c 1
 479 855 418 756 392 713 c 1
 453 570 515 431 583 313 c 0
 615 258 651 238 713 233 c 1
 623 132 591 99 511 31 c 1
 434 176 342 342 272 522 c 1
 217 419 179 339 181 285 c 2
EndSplineSet
EndChar

StartChar: y
Encoding: 121 121 90
Width: 763
Flags: MW
HStem: -379 1459<133 179>
VStem: 112 184 513 134
LayerCount: 2
Fore
SplineSet
376 61 m 1
 291 87 l 1
 64 191 l 1
 91 231 112 291 112 350 c 2
 120 827 l 2
 120 860 102 890 55 921 c 1
 179 1080 l 1
 336 977 l 1
 322 925 296 918 296 866 c 1
 283 332 l 2
 283 301 353 243 449 225 c 1
 491 352 513 532 513 847 c 0
 513 878 483 897 434 930 c 1
 547 1080 l 1
 711 965 l 1
 655 871 667 708 592 435 c 0
 494 80 393 -134 133 -379 c 1
 -16 -252 l 1
 161 -171 280 -86 376 61 c 1
EndSplineSet
EndChar

StartChar: z
Encoding: 122 122 91
Width: 625
Flags: MW
HStem: -302 141<45 289> 890 168
VStem: -44 95<-21.5 -4.5> 416 133<57 336.5>
LayerCount: 2
Fore
SplineSet
-44 -124 m 0
 -44 115 47 351 280 461 c 1
 232 516 170 563 95 593 c 1
 334 884 l 1
 174 904 108 874 8 840 c 1
 58 1104 l 1
 124 1073 165 1058 257 1058 c 0
 276 1058 402 1063 577 1070 c 1
 303 716 l 1
 467 593 549 421 549 252 c 0
 549 120 498 -16 396 -142 c 0
 327 -227 236 -302 113 -302 c 0
 -23 -302 -44 -245 -44 -124 c 0
416 114 m 0
 416 179 399 255 365 329 c 1
 181 303 51 204 51 18 c 0
 51 -61 131 -161 225 -161 c 0
 353 -161 416 0 416 114 c 0
EndSplineSet
EndChar

StartChar: braceleft
Encoding: 123 123 92
Width: 363
Flags: MW
HStem: -78 55<334 478 416 478 416 478> 1471 52
VStem: 155 148<895 902 902 1368 1368 1373> 168 137<94 516 516 529>
LayerCount: 2
Fore
SplineSet
478 -78 m 1xd0
 399 -78 l 2
 269 -78 168 -30 168 94 c 2
 168 516 l 2xd0
 168 586 134 684 36 711 c 0
 21 715 17 718 17 728 c 0
 17 740 24 742 38 744 c 0
 133 757 155 818 155 895 c 2
 155 1368 l 2
 155 1491 285 1524 377 1524 c 2
 482 1524 l 1
 482 1473 l 1
 400 1470 l 1
 335 1464 303 1416 303 1373 c 2
 303 902 l 2xe0
 303 836 243 764 173 727 c 1
 248 688 305 621 305 529 c 2
 305 82 l 2
 305 24 346 -23 416 -23 c 2
 478 -23 l 1
 478 -78 l 1xd0
EndSplineSet
EndChar

StartChar: bar
Encoding: 124 124 93
Width: 156
Flags: MW
HStem: 0 21G<49 156 49 49>
VStem: 49 107<0 1534 0 1534>
LayerCount: 2
Fore
SplineSet
156 1534 m 1
 156 0 l 1
 49 0 l 1
 49 1534 l 1
 156 1534 l 1
EndSplineSet
EndChar

StartChar: braceright
Encoding: 125 125 94
Width: 516
Flags: MW
HStem: -78 55<37 99 99 116 37 99> 1471 52
VStem: 210 137<82 94 94 516> 212 148<902 1368>
LayerCount: 2
Fore
SplineSet
116 -78 m 2xe0
 37 -78 l 1
 37 -23 l 1
 99 -23 l 2
 169 -23 210 24 210 82 c 2
 210 529 l 2xe0
 210 621 267 688 342 727 c 1
 272 764 212 836 212 902 c 2
 212 1373 l 2
 212 1416 180 1464 115 1470 c 1
 33 1473 l 1
 33 1524 l 1
 138 1524 l 2
 230 1524 360 1491 360 1368 c 2
 360 895 l 2xd0
 360 818 382 757 477 744 c 0
 491 742 498 740 498 728 c 0
 498 718 494 715 479 711 c 0
 381 684 347 586 347 516 c 2
 347 94 l 2
 347 -30 246 -78 116 -78 c 2xe0
EndSplineSet
EndChar

StartChar: asciitilde
Encoding: 126 126 95
Width: 555
Flags: MW
HStem: 749 222<163 423>
VStem: 22 555<789.5 930>
LayerCount: 2
Fore
SplineSet
347 766 m 2
 172 841 l 2
 163 845 155 848 147 848 c 0
 139 848 131 845 124 837 c 0
 108 820 82 791 76 783 c 0
 70 775 64 768 55 768 c 0
 52 768 48 769 45 771 c 2
 30 779 l 2
 24 782 22 787 22 792 c 0
 22 799 26 807 30 813 c 0
 47 842 74 883 118 941 c 0
 129 956 148 971 178 971 c 0
 191 971 206 968 223 961 c 2
 428 876 l 2
 435 873 443 871 450 871 c 0
 460 871 470 875 476 883 c 2
 523 935 l 2
 529 943 535 949 543 949 c 0
 545 949 548 949 550 948 c 2
 563 943 l 2
 572 940 577 934 577 926 c 0
 577 921 576 914 570 905 c 0
 554 881 523 840 466 773 c 0
 451 756 433 749 413 749 c 0
 392 749 369 756 347 766 c 2
EndSplineSet
EndChar

StartChar: exclamdown
Encoding: 161 161 97
Width: 340
Flags: MW
HStem: -509 1601<76 166>
VStem: 92 140
LayerCount: 2
Fore
SplineSet
319 939 m 1
 166 788 l 1
 13 939 l 1
 166 1092 l 1
 319 939 l 1
348 -277 m 1
 76 -509 l 1
 109 572 l 1
 220 669 l 1
 223 524 225 340 233 164 c 0
 241 -10 277 -182 348 -277 c 1
EndSplineSet
EndChar

StartChar: cent
Encoding: 162 162 98
Width: 687
Flags: MW
HStem: 0 21G<352 413 352 352>
VStem: 56 130<621.5 661> 352 61<0 68 68 68 287 821>
LayerCount: 2
Fore
SplineSet
608 337 m 1
 413 120 l 1
 413 0 l 1
 352 0 l 1
 352 68 l 1
 325 29 l 1
 50 256 56 421 56 578 c 0
 56 744 133 888 352 1092 c 1
 352 1124 l 1
 414 1124 l 1
 414 1054 l 1
 634 923 l 1
 496 767 l 1
 465 786 436 804 413 821 c 1
 413 278 l 1
 451 287 497 323 552 388 c 1
 608 337 l 1
313 317 m 0
 326 304 339 294 352 287 c 1
 352 863 l 1
 332 875 314 882 295 882 c 0
 228 882 186 745 186 694 c 0
 186 549 206 421 313 317 c 0
EndSplineSet
EndChar

StartChar: sterling
Encoding: 163 163 99
Width: 1137
Flags: MW
HStem: 567 92<461 689 443 721> 570 93<117 251 85 265> 1407 111
VStem: 265 196<663 722.5 659 729>
LayerCount: 2
Fore
SplineSet
251 570 m 1x50
 85 570 l 1
 117 663 l 1
 265 663 l 1x50
 265 795 201 925 161 1031 c 0
 147 1067 131 1101 131 1137 c 0
 131 1173 147 1202 179 1217 c 0
 406 1321 577 1381 801 1460 c 0
 894 1493 966 1518 993 1518 c 0
 1016 1518 1085 1502 1099 1407 c 1
 1011 1401 911 1398 812 1370 c 0
 746 1351 659 1322 566 1278 c 0
 433 1216 387 1184 387 1083 c 0
 387 1021 461 786 461 659 c 1
 721 659 l 1
 689 567 l 1
 443 567 l 1xb0
 421 487 378 420 319 352 c 1
 603 275 796 257 1071 249 c 1
 948 64 l 2
 933 42 910 31 876 31 c 0
 857 31 798 41 703 61 c 0
 665 69 126 181 28 202 c 1
 147 324 215 411 251 570 c 1x50
EndSplineSet
EndChar

StartChar: currency
Encoding: 164 164 100
Width: 1024
Flags: MW
HStem: 319 123<464.5 556.5> 936 124<476.5 561.5 476.5 587>
VStem: 119 173<638.5 731> 738 171<653 741 653 764.5>
LayerCount: 2
Fore
SplineSet
517 442 m 0
 664 442 738 548 738 689 c 0
 738 840 657 936 517 936 c 0
 372 936 292 823 292 689 c 0
 292 559 382 442 517 442 c 0
909 701 m 0
 909 605 881 527 825 468 c 1
 884 411 937 353 994 297 c 0
 995 296 996 294 996 292 c 0
 996 289 995 286 992 282 c 2
 929 215 l 2
 926 211 922 210 919 210 c 0
 914 210 910 213 906 216 c 2
 729 379 l 1
 675 339 603 319 510 319 c 0
 419 319 345 341 288 385 c 1
 115 211 l 2
 113 208 111 207 109 207 c 0
 106 207 102 210 98 213 c 1
 31 289 l 2
 28 292 27 294 27 297 c 0
 27 300 28 303 32 306 c 2
 203 470 l 1
 149 527 119 596 119 681 c 0
 119 781 152 859 209 919 c 1
 37 1074 l 2
 31 1080 28 1085 28 1090 c 0
 28 1094 30 1098 33 1102 c 2
 102 1176 l 2
 104 1178 106 1179 108 1179 c 0
 111 1179 115 1177 119 1173 c 2
 303 1003 l 1
 362 1042 434 1060 519 1060 c 0
 604 1060 675 1042 732 1003 c 1
 906 1171 l 2
 908 1173 911 1174 913 1174 c 0
 916 1174 918 1173 921 1170 c 2
 987 1104 l 2
 992 1099 994 1095 994 1092 c 0
 994 1090 993 1088 992 1087 c 2
 827 930 l 1
 874 880 909 781 909 701 c 0
EndSplineSet
EndChar

StartChar: yen
Encoding: 165 165 101
Width: 1085
Flags: MW
HStem: 0 68<332 454 667 788 332 454> 431 86<127 454 127 454 667 986> 741 86<127 359 127 359 127 395 742 986> 1297 68<68 161 68 494 407 407 407 494 717 736.5>
VStem: 454 213<68 431 68 431 517 602 602 602>
LayerCount: 2
Fore
SplineSet
127 741 m 1
 127 827 l 1
 359 827 l 1
 161 1297 l 1
 68 1297 l 1
 68 1365 l 1
 494 1365 l 1
 494 1297 l 1
 407 1297 l 1
 636 746 l 1
 788 1114 l 2
 814 1177 827 1215 827 1229 c 0
 827 1265 815 1286 792 1293 c 0
 781 1296 756 1297 717 1297 c 1
 717 1365 l 1
 1045 1365 l 1
 1045 1297 l 1
 1005 1295 981 1293 974 1291 c 0
 956 1286 935 1262 910 1218 c 0
 886 1174 872 1146 868 1133 c 1
 742 827 l 1
 986 827 l 1
 986 741 l 1
 706 741 l 1
 667 646 l 1
 667 517 l 1
 986 517 l 1
 986 431 l 1
 667 431 l 1
 667 68 l 1
 788 68 l 1
 788 0 l 1
 332 0 l 1
 332 68 l 1
 454 68 l 1
 454 431 l 1
 127 431 l 1
 127 517 l 1
 454 517 l 1
 454 602 l 1
 395 741 l 1
 127 741 l 1
EndSplineSet
EndChar

StartChar: brokenbar
Encoding: 166 166 102
Width: 944
Flags: MW
HStem: -341 1706<437 544 437 544>
VStem: 437 107<-341 314 -341 314 693 1365>
LayerCount: 2
Fore
SplineSet
437 693 m 1
 437 1365 l 1
 544 1365 l 1
 544 693 l 1
 437 693 l 1
437 -341 m 1
 437 314 l 1
 544 314 l 1
 544 -341 l 1
 437 -341 l 1
EndSplineSet
EndChar

StartChar: section
Encoding: 167 167 103
Width: 973
Flags: MW
HStem: -292 63<446 505> 1290 62<470.5 541.5>
VStem: 125 194<1023.5 1179.5> 144 239 674 188 754 173<416.5 585>
LayerCount: 2
Fore
SplineSet
618 1119 m 1xd8
 629 1206 l 1
 629 1253 589 1290 494 1290 c 0
 447 1290 406 1276 371 1248 c 0
 336 1221 319 1193 319 1166 c 0
 319 1121 333 1083 361 1052 c 1
 386 1021 452 977 557 919 c 1
 804 786 927 652 927 518 c 0
 927 465 910 416 877 371 c 0xe4
 844 326 786 279 705 230 c 1
 758 187 799 143 829 99 c 1
 897 -10 865 -190 685 -256 c 1
 626 -280 551 -292 459 -292 c 0
 367 -292 291 -270 232 -226 c 0
 173 -183 144 -133 144 -76 c 0
 144 -12 196 35 263 35 c 0
 296 35 325 25 348 5 c 0
 395 -34 387 -69 370 -112 c 0
 361 -134 357 -152 357 -166 c 0xd8
 357 -194 396 -229 496 -229 c 0
 546 -229 588 -216 622 -191 c 0
 657 -166 674 -134 674 -96 c 0
 674 -59 663 -26 641 1 c 1
 610 35 538 82 426 142 c 0
 314 202 225 266 159 334 c 1
 94 403 61 464 61 519 c 0
 61 574 78 625 111 672 c 0
 144 719 201 772 282 831 c 1
 177 906 125 984 125 1063 c 0xe8
 125 1143 160 1211 231 1267 c 0
 302 1324 391 1352 497 1352 c 0
 604 1352 689 1329 754 1283 c 0
 819 1237 851 1187 851 1134 c 0
 851 1070 799 1024 732 1024 c 0
 665 1024 618 1067 618 1119 c 1xd8
616 611 m 1
 338 791 l 1
 272 742 239 690 239 635 c 0
 239 606 249 576 269 545 c 1
 290 516 324 484 371 450 c 1
 654 267 l 1
 692 299 716 324 726 342 c 0
 745 375 754 404 754 429 c 0
 754 487 708 548 616 611 c 1
EndSplineSet
EndChar

StartChar: dieresis
Encoding: 168 168 104
Width: 882
Flags: MW
HStem: 1085 331<264 320>
VStem: 264 549
LayerCount: 2
Fore
SplineSet
551 1113 m 1
 629 1398 l 1
 705 1379 743 1363 813 1330 c 1
 722 1244 653 1183 551 1113 c 1
264 1085 m 1
 320 1416 l 1
 391 1398 437 1381 498 1351 c 1
 422 1254 360 1177 264 1085 c 1
EndSplineSet
EndChar

StartChar: copyright
Encoding: 169 169 105
Width: 1311
Flags: MW
HStem: 171 44<591 718.5 591 724.5> 316 83<659.5 671.5> 841 133<800.5 816.5> 974 60<583 632> 1136 45<592.5 717.5>
VStem: 159 43<614.5 740.5 614.5 745.5> 340 146<627.5 828> 1107 45<612.5 738.5>
LayerCount: 2
Fore
SplineSet
620 974 m 0xdf
 531 974 486 901 486 755 c 0
 486 706 491 659 501 614 c 0
 512 569 523 535 534 512 c 1
 546 490 559 470 574 452 c 0
 605 417 640 399 679 399 c 0
 757 399 812 443 845 530 c 1
 847 539 l 1
 889 539 l 1
 911 540 l 1
 902 519 l 1
 877 456 840 406 792 370 c 0
 745 334 696 316 647 316 c 0
 550 316 479 355 426 422 c 0
 369 494 340 579 340 676 c 0
 340 745 363 819 408 896 c 0
 463 988 537 1034 629 1034 c 0xdf
 678 1034 727 1017 776 984 c 0
 785 977 795 974 806 974 c 0
 827 974 845 989 860 1019 c 1
 864 1025 l 1
 924 1025 l 1
 834 850 l 1
 829 841 l 1
 787 841 l 1xef
 766 911 730 953 681 967 c 0
 664 972 644 974 620 974 c 0xdf
655 1181 m 0
 794 1181 917 1124 1008 1033 c 0
 1104 936 1152 817 1152 676 c 0
 1152 535 1104 416 1008 318 c 0
 911 220 793 171 656 171 c 0
 517 171 399 220 302 318 c 0
 207 415 159 535 159 676 c 0
 159 815 207 933 302 1031 c 0
 400 1131 518 1181 655 1181 c 0
975 1000 m 1
 886 1091 779 1136 656 1136 c 0
 529 1136 422 1091 334 1002 c 0
 246 913 202 805 202 676 c 0
 202 553 245 445 330 354 c 0
 417 261 526 215 656 215 c 0
 781 215 887 259 974 348 c 0
 1063 439 1107 549 1107 676 c 0
 1107 801 1055 920 975 1000 c 1
EndSplineSet
EndChar

StartChar: ordfeminine
Encoding: 170 170 106
Width: 576
Flags: MW
HStem: 836 683
VStem: 71 119<1019.5 1032> 337 115
LayerCount: 2
Fore
SplineSet
48 1364 m 1
 286 1519 l 1
 510 1396 l 1
 473 1364 455 1329 454 1289 c 2
 452 1050 l 2
 451 1016 470 989 529 946 c 1
 431 837 l 1
 331 935 l 1
 292 899 257 868 220 836 c 1
 150 862 82 903 46 936 c 1
 63 958 71 997 71 1032 c 2
 69 1282 l 2
 68 1311 61 1338 48 1364 c 1
339 1340 m 1
 238 1405 l 1
 216 1394 188 1371 188 1339 c 2
 190 1038 l 2
 190 1001 220 973 267 946 c 1
 336 1003 l 1
 339 1340 l 1
EndSplineSet
EndChar

StartChar: guillemotleft
Encoding: 171 171 107
Width: 1155
Flags: MW
HStem: 99 952<502 503 502 999>
VStem: 11 1096<168 575>
LayerCount: 2
Fore
SplineSet
503 99 m 1
 11 575 l 1
 502 1051 l 1
 611 984 l 1
 292 581 l 1
 611 168 l 1
 503 99 l 1
999 99 m 1
 507 575 l 1
 998 1051 l 1
 1107 984 l 1
 788 581 l 1
 1107 168 l 1
 999 99 l 1
EndSplineSet
EndChar

StartChar: logicalnot
Encoding: 172 172 108
Width: 690
Flags: MW
HStem: 621 60<96 594 96 539>
VStem: 539 55<494 621 621 621>
LayerCount: 2
Fore
SplineSet
96 621 m 1
 96 681 l 1
 594 681 l 1
 594 494 l 1
 539 494 l 1
 539 621 l 1
 96 621 l 1
EndSplineSet
EndChar

StartChar: uni00AD
Encoding: 173 173 109
Width: 690
Flags: MW
HStem: 616 70<96 591 96 591>
VStem: 96 495<616 686 616 686>
LayerCount: 2
Fore
SplineSet
96 616 m 1
 96 686 l 1
 591 686 l 1
 591 616 l 1
 96 616 l 1
EndSplineSet
EndChar

StartChar: registered
Encoding: 174 174 110
Width: 1311
Flags: MW
HStem: 195 44<563.5 698.5 563.5 706.5> 331 119 339 56<340 356 356 362.5 596 612 340 356> 619 57<555 602 552 676> 971 56<340 356 340 711 555 555 555 610> 1141 45<565 698>
VStem: 106 45<630.5 752.5 630.5 758.5> 401 154<676 960 960 961.5> 772 145<774.5 801> 916 58<512 522 481.5 527 481.5 527> 1114 45<625 747.5>
LayerCount: 2
Fore
SplineSet
632 1186 m 0xbf60
 777 1186 911 1129 1006 1040 c 0
 1108 944 1159 828 1159 691 c 0
 1159 554 1108 437 1006 340 c 0
 905 243 781 195 632 195 c 0
 486 195 362 243 259 340 c 0
 157 435 106 552 106 691 c 0
 106 826 157 942 258 1038 c 0
 361 1137 486 1186 632 1186 c 0xbf60
555 971 m 1
 555 676 l 1
 676 676 l 1
 740 683 772 723 772 795 c 0
 772 807 771 812 767 853 c 0
 763 894 751 936 726 953 c 0
 709 965 670 971 610 971 c 2
 555 971 l 1
904 462 m 1
 912 475 916 491 916 512 c 2
 916 527 l 1
 960 524 l 1
 974 522 l 1
 974 509 l 2
 974 454 964 410 945 378 c 0
 926 347 893 331 847 331 c 0
 802 331 764 344 735 370 c 0
 706 396 689 424 684 455 c 0
 673 516 669 548 658 575 c 0
 646 604 627 619 602 619 c 2
 552 619 l 1
 551 416 l 2
 551 411 557 407 570 402 c 0
 583 397 591 395 596 395 c 2
 612 395 l 1
 612 339 l 1
 340 339 l 1
 340 395 l 1xbfa0
 356 395 l 2
 369 395 401 407 401 416 c 2
 401 960 l 2
 401 963 375 971 356 971 c 2xdf60
 340 971 l 1
 340 1027 l 1
 711 1027 l 1
 802 1022 864 989 897 928 c 0
 910 903 917 873 917 836 c 0xbfa0
 917 713 863 642 754 622 c 1
 791 595 804 551 816 515 c 1
 823 498 830 482 838 469 c 0
 855 444 891 446 904 462 c 1
971 1009 m 1xdf60
 877 1097 764 1141 632 1141 c 0
 498 1141 385 1097 292 1009 c 0
 198 920 151 814 151 691 c 0
 151 570 197 465 288 374 c 1
 380 284 495 239 632 239 c 0
 765 239 877 282 970 368 c 0
 1066 458 1114 564 1114 686 c 0
 1114 809 1066 916 971 1009 c 1xdf60
EndSplineSet
EndChar

StartChar: overscore
Encoding: 175 175 111
Width: 690
Flags: MW
HStem: 1333 70<88 583 88 583>
VStem: 88 495<1333 1403 1333 1403>
LayerCount: 2
Fore
SplineSet
88 1333 m 1
 88 1403 l 1
 583 1403 l 1
 583 1333 l 1
 88 1333 l 1
EndSplineSet
EndChar

StartChar: degree
Encoding: 176 176 112
Width: 644
Flags: MW
HStem: 582 195 582 946 1322 206
VStem: 41 97 479 121<876.5 1139>
LayerCount: 2
Fore
SplineSet
258 1503 m 1xb8
 290 1537 330 1540 378 1494 c 0
 526 1350 600 1208 600 1070 c 0
 600 921 525 770 374 618 c 1
 324 570 277 570 235 618 c 0
 -24 913 -32 1209 258 1503 c 1xb8
181 1305 m 0
 153 1284 138 1247 138 1196 c 0
 138 1145 162 1071 210 973 c 1
 276 842 335 777 388 777 c 0
 405 777 419 782 434 792 c 0
 464 814 479 851 479 902 c 0
 479 954 455 1029 407 1125 c 0
 343 1256 282 1322 228 1322 c 0
 211 1322 196 1317 181 1305 c 0
EndSplineSet
EndChar

StartChar: plusminus
Encoding: 177 177 113
Width: 1275
Flags: MW
HStem: 10 180<302 966> 545 180<302 536 302 716 718 966>
VStem: 538 180<725 841 841 865.5>
LayerCount: 2
Fore
SplineSet
67 545 m 1
 253 784 l 1
 253 751 271 725 302 725 c 2
 538 725 l 1
 538 841 l 2
 538 890 508 905 477 905 c 1
 718 1117 l 1
 718 725 l 1
 1236 725 l 1
 1050 470 l 1
 1050 528 1015 545 966 545 c 2
 716 545 l 1
 716 490 l 2
 716 443 749 415 793 415 c 1
 536 225 l 1
 536 545 l 1
 67 545 l 1
67 10 m 1
 253 249 l 1
 253 216 271 190 302 190 c 2
 1236 190 l 1
 1050 -65 l 1
 1050 -7 1015 10 966 10 c 2
 67 10 l 1
EndSplineSet
EndChar

StartChar: uni00B2
Encoding: 178 178 114
Width: 678
Flags: MW
HStem: 651 171<317.5 399.5> 1399 150
VStem: 426 168<1110.5 1286> 592 19<891 906>
LayerCount: 2
Fore
SplineSet
494 822 m 1x90
 533 821 585 861 592 906 c 1
 611 891 l 1
 571 631 l 1x90
 489 644 423 651 376 651 c 0
 259 651 131 645 33 636 c 1
 280 895 426 1043 426 1178 c 0
 426 1260 385 1322 280 1386 c 1
 246 1405 220 1402 201 1389 c 1
 187 1378 180 1361 180 1340 c 0
 180 1329 183 1314 189 1299 c 0
 212 1245 251 1215 296 1186 c 1
 267 1140 252 1116 223 1072 c 0
 212 1054 201 1040 189 1023 c 1
 103 1110 63 1174 63 1226 c 0
 63 1280 98 1348 167 1428 c 0
 236 1509 292 1549 335 1549 c 0
 379 1549 433 1515 498 1448 c 0
 562 1381 594 1317 594 1255 c 0
 594 1221 584 1187 563 1154 c 0xe0
 499 1052 410 968 284 822 c 1
 494 822 l 1x90
EndSplineSet
EndChar

StartChar: uni00B3
Encoding: 179 179 115
Width: 640
Flags: MW
HStem: 640 94<251 373.5>
VStem: 495 109<846.5 1028.5>
LayerCount: 2
Fore
SplineSet
414 1272 m 1
 429 1260 l 1
 538 1150 604 1079 604 978 c 0
 604 895 565 818 485 747 c 1
 402 676 329 640 260 640 c 0
 242 640 226 642 210 646 c 0
 132 668 71 731 25 834 c 1
 72 892 116 943 162 998 c 1
 183 879 212 811 257 763 c 0
 279 739 306 734 337 734 c 0
 410 734 495 807 495 886 c 0
 495 923 480 957 455 991 c 0
 408 1052 322 1089 229 1117 c 1
 283 1187 351 1280 422 1378 c 1
 341 1389 284 1394 245 1394 c 0
 174 1394 113 1385 99 1304 c 0
 98 1304 75 1312 74 1312 c 1
 88 1373 97 1412 111 1468 c 1
 121 1514 132 1559 145 1609 c 1
 210 1560 284 1533 365 1530 c 0
 436 1527 518 1525 590 1523 c 1
 472 1356 459 1337 414 1272 c 1
EndSplineSet
EndChar

StartChar: acute
Encoding: 180 180 116
Width: 1420
Flags: MW
HStem: 1375 344<1157 1219>
VStem: 1157 231
LayerCount: 2
Fore
SplineSet
1219 1719 m 1
 1388 1689 l 1
 1157 1375 l 1
 1164 1529 1182 1619 1219 1719 c 1
EndSplineSet
EndChar

StartChar: uni00B5
Encoding: 181 181 117
Width: 855
Flags: MW
HStem: -381 21G<104 104>
VStem: 109 197 510 196<832 879>
LayerCount: 2
Fore
SplineSet
435 926 m 1
 558 1080 l 1
 748 959 l 1
 729 923 706 898 706 860 c 1
 692 331 l 1
 692 325 l 2
 692 260 739 218 791 197 c 1
 657 31 l 1
 490 177 l 1
 316 32 l 1
 104 -381 l 1
 34 -351 l 1
 76 -187 109 295 109 341 c 2
 119 828 l 2
 119 858 93 888 42 917 c 1
 167 1080 l 1
 346 975 l 1
 331 920 306 892 306 856 c 2
 291 302 l 2
 290 281 319 257 349 236 c 0
 358 230 371 226 385 226 c 0
 422 226 430 227 512 307 c 1
 510 832 l 2
 510 862 480 896 435 926 c 1
EndSplineSet
EndChar

StartChar: paragraph
Encoding: 182 182 118
Width: 1387
Flags: MW
HStem: 114 84<842.5 947 866 947 947 948> 120 84<1169 1210> 1289 87<659 702> 1294 74 1304 73<884 992 923 992 992 1003.5 923 1022>
VStem: 715 164<1392 1438> 757 76<221 224> 763 62 1031 169<1412.5 1467> 1076 76<220 222> 1082 61
LayerCount: 2
Fore
SplineSet
1152 228 m 0x5140
 1152 212 1161 204 1177 204 c 0x4940
 1246 204 1299 216 1331 222 c 0
 1358 228 1388 219 1388 194 c 2
 1388 173 l 2
 1388 147 1376 142 1351 137 c 0
 1315 130 1252 120 1168 120 c 0
 1153 120 1146 109 1145 88 c 2x4920
 1141 -40 l 1
 1138 -68 1133 -83 1112 -83 c 0
 1092 -83 1088 -68 1087 -39 c 1
 1084 -11 1085 32 1082 93 c 0
 1081 108 1071 116 1052 115 c 0
 1033 114 971 114 948 114 c 2
 850 114 l 2
 835 114 826 104 825 83 c 0
 824 42 824 -6 821 -40 c 1
 820 -68 815 -83 795 -83 c 0
 771 -83 768 -68 767 -39 c 0
 765 -7 766 37 763 92 c 0
 762 106 754 114 740 114 c 2x8920
 654 114 l 2
 314 114 1 383 1 744 c 0
 1 1106 319 1376 659 1376 c 2
 691 1376 l 2
 707 1376 715 1384 715 1400 c 1
 708 1464 l 1
 708 1468 l 2xa420
 708 1491 734 1511 757 1511 c 1
 799 1503 l 1
 840 1510 l 1
 861 1510 880 1494 880 1460 c 0
 880 1458 880 1457 879 1438 c 1
 879 1394 894 1377 923 1377 c 2
 992 1377 l 2
 1015 1377 1031 1398 1031 1427 c 1
 1028 1466 l 1x8c80
 1028 1492 1052 1511 1075 1511 c 1
 1119 1503 l 1
 1155 1510 l 1
 1166 1510 1175 1506 1186 1499 c 1
 1196 1489 1200 1477 1200 1457 c 1
 1195 1400 l 1
 1195 1380 1201 1369 1216 1368 c 0x9180
 1251 1365 1295 1361 1320 1357 c 0
 1346 1352 1358 1346 1358 1318 c 0
 1358 1294 1341 1281 1316 1281 c 0
 1309 1281 1302 1282 1295 1284 c 0
 1267 1290 1235 1294 1219 1294 c 0
 1207 1294 1199 1292 1195 1288 c 0
 1190 1284 1187 1279 1187 1272 c 0
 1172 998 1152 505 1152 228 c 0x5140
869 1283 m 0x8a40
 860 1152 833 781 833 222 c 0
 833 208 840 198 866 198 c 2
 947 198 l 2
 997 198 1064 200 1069 205 c 0
 1073 210 1076 216 1076 222 c 2
 1042 1283 l 2
 1041 1296 1035 1303 1022 1304 c 1
 892 1304 l 2
 876 1304 869 1296 869 1283 c 0x8a40
700 1289 m 2xa220
 683 1288 l 2
 493 1277 375 1080 375 735 c 0
 375 396 513 226 719 203 c 0
 721 202 734 202 735 202 c 2
 749 208 l 2
 755 210 757 218 757 224 c 2
 723 1267 l 2
 723 1274 721 1281 714 1285 c 0
 709 1288 704 1289 700 1289 c 2xa220
EndSplineSet
EndChar

StartChar: middot
Encoding: 183 183 119
Width: 427
Flags: MW
HStem: 743 411<214 214>
VStem: 8 412<949 949>
LayerCount: 2
Fore
SplineSet
8 949 m 1
 214 1154 l 1
 420 949 l 1
 214 743 l 1
 8 949 l 1
EndSplineSet
EndChar

StartChar: cedilla
Encoding: 184 184 120
Width: 1024
Flags: MW
HStem: -439 60<490.5 503 438 582> -211 70<502 642>
VStem: 599 148<-315.5 -259>
LayerCount: 2
Fore
SplineSet
425 -196 m 1
 555 0 l 1
 622 0 l 1
 523 -154 l 1
 555 -145 580 -141 614 -141 c 0
 670 -141 747 -198 747 -280 c 0
 747 -390 629 -439 535 -439 c 0
 446 -439 380 -425 322 -403 c 1
 342 -358 l 1
 379 -371 418 -379 458 -379 c 0
 548 -379 599 -346 599 -285 c 0
 599 -233 556 -211 512 -211 c 0
 492 -211 471 -216 455 -225 c 1
 425 -196 l 1
EndSplineSet
EndChar

StartChar: uni00B9
Encoding: 185 185 121
Width: 442
Flags: MW
HStem: 590 987<125 411>
VStem: 264 143
LayerCount: 2
Fore
SplineSet
125 590 m 1
 106 619 l 1
 233 684 264 819 264 1128 c 0
 264 1200 261 1257 253 1359 c 1
 179 1359 100 1361 25 1361 c 1
 19 1390 l 1
 178 1415 289 1484 411 1577 c 1
 403 681 l 1
 316 675 226 643 125 590 c 1
EndSplineSet
EndChar

StartChar: ordmasculine
Encoding: 186 186 122
Width: 570
Flags: MW
HStem: 816 708
VStem: 91 112<1044 1271> 383 117
LayerCount: 2
Fore
SplineSet
204 1353 m 1
 203 1044 l 1
 211 995 291 970 306 970 c 0
 343 970 383 1016 383 1064 c 0
 383 1227 316 1328 242 1386 c 1
 204 1353 l 1
72 1339 m 1
 174 1397 236 1445 294 1524 c 1
 408 1451 478 1307 497 1196 c 0
 504 1158 500 1128 479 1096 c 2
 299 816 l 1
 65 955 l 1
 86 993 91 1029 91 1088 c 2
 91 1271 l 1
 90 1303 79 1327 72 1339 c 1
EndSplineSet
EndChar

StartChar: guillemotright
Encoding: 187 187 123
Width: 1155
Flags: MW
HStem: 99 952<149 150 150 645>
VStem: 41 1096<168 575 575 984>
LayerCount: 2
Fore
SplineSet
1137 575 m 1
 645 99 l 1
 537 168 l 1
 857 581 l 1
 537 984 l 1
 646 1051 l 1
 1137 575 l 1
641 575 m 1
 149 99 l 1
 41 168 l 1
 361 581 l 1
 41 984 l 1
 150 1051 l 1
 641 575 l 1
EndSplineSet
EndChar

StartChar: onequarter
Encoding: 188 188 124
Width: 1312
Flags: MW
HStem: 250 152 260 132
VStem: 314 143 978 130
LayerCount: 2
Fore
SplineSet
978 393 m 1x70
 978 467 l 2x70
 978 492 976 527 970 601 c 1
 1025 669 1070 727 1124 794 c 1
 1113 624 1110 525 1108 403 c 1
 1153 407 1187 411 1222 418 c 1
 1221 354 1218 310 1217 249 c 1
 1109 252 l 1xb0
 1112 162 1115 121 1122 66 c 1
 1061 58 988 40 896 14 c 1
 926 89 953 150 967 255 c 1
 871 256 757 259 657 260 c 1
 752 509 842 709 936 958 c 1
 1004 960 1062 963 1127 965 c 1
 981 790 869 615 776 399 c 1
 827 395 885 392 912 392 c 0
 933 392 968 393 978 393 c 1x70
175 590 m 1
 156 619 l 1
 283 684 314 819 314 1128 c 0
 314 1200 311 1257 303 1359 c 1
 229 1359 150 1361 75 1361 c 1
 73 1371 70 1384 69 1390 c 1
 228 1415 339 1484 461 1577 c 1
 458 1255 456 1003 453 681 c 1
 366 675 276 643 175 590 c 1
266 -70 m 2
 220 -70 l 2
 207 -70 200 -63 200 -49 c 0
 200 -46 201 -42 202 -39 c 2
 951 1415 l 2
 954 1422 959 1425 968 1425 c 2
 1009 1425 l 2
 1024 1425 1031 1419 1031 1406 c 0
 1031 1403 1030 1400 1028 1397 c 2
 282 -59 l 2
 279 -66 274 -70 266 -70 c 2
EndSplineSet
EndChar

StartChar: onehalf
Encoding: 189 189 125
Width: 1352
Flags: MW
HStem: 22 171<972.5 1054.5> 770 150
VStem: 314 143 1081 168<481.5 657> 1247 19<262 277>
LayerCount: 2
Fore
SplineSet
1149 193 m 1xa8
 1188 192 1240 232 1247 277 c 1
 1266 262 l 1
 1226 2 l 1xa8
 1144 15 1078 22 1031 22 c 0
 914 22 786 16 688 7 c 1
 935 266 1081 414 1081 549 c 0
 1081 631 1040 693 935 757 c 1
 901 776 875 773 856 760 c 1
 842 749 835 732 835 711 c 0
 835 700 838 685 844 670 c 0
 867 616 906 586 951 557 c 1
 922 511 907 487 878 443 c 0
 867 425 856 411 844 394 c 1
 758 481 718 545 718 597 c 0
 718 651 753 719 822 799 c 0
 891 880 947 920 990 920 c 0
 1034 920 1088 886 1153 819 c 0
 1217 752 1249 688 1249 626 c 0
 1249 592 1239 558 1218 525 c 0xf0
 1154 423 1065 339 939 193 c 1
 1149 193 l 1xa8
175 590 m 1
 156 619 l 1
 283 684 314 819 314 1128 c 0
 314 1200 311 1257 303 1359 c 1
 229 1359 150 1361 75 1361 c 1
 73 1371 70 1384 69 1390 c 1
 228 1415 339 1484 461 1577 c 1
 458 1255 456 1003 453 681 c 1
 366 675 276 643 175 590 c 1
266 -70 m 2
 220 -70 l 2
 207 -70 200 -63 200 -49 c 0
 200 -46 201 -42 202 -39 c 2
 951 1415 l 2
 954 1422 959 1425 968 1425 c 2
 1009 1425 l 2
 1024 1425 1031 1419 1031 1406 c 0
 1031 1403 1030 1400 1028 1397 c 2
 282 -59 l 2
 279 -66 274 -70 266 -70 c 2
EndSplineSet
EndChar

StartChar: threequarters
Encoding: 190 190 126
Width: 1384
Flags: MW
HStem: 250 152 260 132 640 94<314 436.5>
VStem: 558 109<846.5 1028.5> 1068 130
LayerCount: 2
Fore
SplineSet
477 1272 m 1x78
 492 1260 l 1
 601 1150 667 1079 667 978 c 0
 667 895 628 818 548 747 c 1
 465 676 392 640 323 640 c 0
 305 640 289 642 273 646 c 0
 195 668 134 731 88 834 c 1
 135 892 179 943 225 998 c 1
 246 879 275 811 320 763 c 0
 342 739 369 734 400 734 c 0
 473 734 558 807 558 886 c 0
 558 923 543 957 518 991 c 0
 471 1052 385 1089 292 1117 c 1
 346 1187 414 1280 485 1378 c 1
 404 1389 347 1394 308 1394 c 0
 237 1394 176 1385 162 1304 c 0
 161 1304 138 1312 137 1312 c 1
 151 1373 160 1412 174 1468 c 1
 184 1514 195 1559 208 1609 c 1
 273 1560 347 1533 428 1530 c 0
 499 1527 581 1525 653 1523 c 1
 535 1356 522 1337 477 1272 c 1x78
1068 393 m 1
 1068 467 l 2x78
 1068 492 1066 527 1060 601 c 1
 1115 669 1160 727 1214 794 c 1
 1203 624 1200 525 1198 403 c 1
 1243 407 1277 411 1312 418 c 1
 1311 354 1308 310 1307 249 c 1
 1199 252 l 1xb8
 1202 162 1205 121 1212 66 c 1
 1151 58 1078 40 986 14 c 1
 1016 89 1043 150 1057 255 c 1
 961 256 836 259 736 260 c 1
 831 509 932 709 1026 958 c 1
 1094 960 1152 963 1217 965 c 1
 1071 790 948 615 855 399 c 1
 906 395 975 392 1002 392 c 0
 1023 392 1058 393 1068 393 c 1
356 -70 m 2
 310 -70 l 2
 297 -70 290 -63 290 -49 c 0
 290 -46 291 -42 292 -39 c 2
 1041 1415 l 2
 1044 1422 1049 1425 1058 1425 c 2
 1099 1425 l 2
 1114 1425 1121 1419 1121 1406 c 0
 1121 1403 1120 1400 1118 1397 c 2
 372 -59 l 2
 369 -66 364 -70 356 -70 c 2
EndSplineSet
EndChar

StartChar: questiondown
Encoding: 191 191 127
Width: 406
Flags: MW
HStem: -544 1635
VStem: -18 163<-132 -73.5>
LayerCount: 2
Fore
SplineSet
67 510 m 1
 208 675 l 1
 271 640 325 592 370 518 c 1
 246 281 145 74 145 -65 c 0
 145 -199 227 -254 386 -314 c 1
 281 -419 246 -452 155 -544 c 1
 32 -430 -18 -327 -18 -194 c 0
 -18 47 185 276 185 398 c 0
 185 472 143 498 67 510 c 1
346 938 m 1
 193 787 l 1
 40 938 l 1
 193 1091 l 1
 346 938 l 1
EndSplineSet
EndChar

StartChar: Agrave
Encoding: 192 192 128
Width: 1420
Flags: MW
HStem: 696 191
VStem: 1200 165 1280 165
LayerCount: 2
Fore
SplineSet
217 1629 m 1xa0
 386 1659 l 1
 423 1559 441 1469 448 1315 c 1
 217 1629 l 1xa0
195 1057 m 1xc0
 403 1160 621 1367 767 1546 c 1
 915 1412 1067 1335 1215 1277 c 1
 1158 1215 1103 1194 1103 1105 c 2
 1103 433 l 2
 1103 327 1173 309 1233 250 c 1
 1181 179 1138 101 1089 36 c 1
 882 212 l 1
 898 330 905 540 905 736 c 1
 485 736 l 1
 464 262 225 -113 -20 -401 c 1
 -23 -399 -68 -357 -70 -354 c 1
 141 -72 281 337 281 675 c 0
 281 789 242 953 195 1057 c 1xc0
489 887 m 1
 900 887 l 1
 900 938 903 1107 904 1191 c 1
 804 1254 787 1261 732 1278 c 0
 601 1319 489 1160 489 957 c 2
 489 887 l 1
EndSplineSet
EndChar

StartChar: Aacute
Encoding: 193 193 129
Width: 1405
Flags: MW
HStem: 696 191
VStem: 1200 165
LayerCount: 2
Fore
SplineSet
209 1006 m 1
 375 1135 477 1242 599 1341 c 1
 536 1359 475 1369 421 1369 c 0
 263 1369 183 1278 55 1194 c 1
 13 1257 l 1
 192 1402 320 1488 518 1569 c 1
 783 1488 981 1420 1215 1277 c 1
 1158 1215 1103 1194 1103 1105 c 2
 1103 433 l 2
 1103 327 1173 309 1233 250 c 1
 1181 179 1138 101 1089 36 c 1
 882 212 l 1
 898 330 905 540 905 736 c 1
 485 736 l 1
 464 262 225 -113 -20 -401 c 1
 -23 -399 -68 -357 -70 -354 c 1
 141 -72 281 337 281 675 c 0
 281 789 256 902 209 1006 c 1
904 1198 m 1
 841 1243 766 1282 689 1311 c 1
 500 1167 489 1126 489 957 c 2
 489 887 l 1
 900 887 l 1
 900 938 903 1114 904 1198 c 1
1069 1773 m 1
 1238 1743 l 1
 1007 1429 l 1
 1014 1583 1032 1673 1069 1773 c 1
EndSplineSet
EndChar

StartChar: Acircumflex
Encoding: 194 194 130
Width: 1405
Flags: MW
HStem: 696 191
VStem: 1200 165
LayerCount: 2
Fore
SplineSet
209 1006 m 1
 375 1135 477 1242 599 1341 c 1
 536 1359 475 1369 421 1369 c 0
 263 1369 183 1278 55 1194 c 1
 13 1257 l 1
 192 1402 320 1488 518 1569 c 1
 783 1488 981 1420 1215 1277 c 1
 1158 1215 1103 1194 1103 1105 c 2
 1103 433 l 2
 1103 327 1173 309 1233 250 c 1
 1181 179 1138 101 1089 36 c 1
 882 212 l 1
 898 330 905 540 905 736 c 1
 485 736 l 1
 464 262 225 -113 -20 -401 c 1
 -23 -399 -68 -357 -70 -354 c 1
 141 -72 281 337 281 675 c 0
 281 789 256 902 209 1006 c 1
904 1198 m 1
 841 1243 766 1282 689 1311 c 1
 500 1167 489 1126 489 957 c 2
 489 887 l 1
 900 887 l 1
 900 938 903 1114 904 1198 c 1
613 1667 m 1
 505 1621 439 1589 358 1541 c 1
 435 1666 517 1769 613 1825 c 1
 709 1769 791 1666 868 1541 c 1
 787 1589 721 1621 613 1667 c 1
EndSplineSet
EndChar

StartChar: Atilde
Encoding: 195 195 131
Width: 1405
Flags: MW
HStem: 696 191
VStem: 1290 165
LayerCount: 2
Fore
SplineSet
285 1057 m 1
 493 1160 711 1367 857 1546 c 1
 1005 1412 1157 1335 1305 1277 c 1
 1248 1215 1193 1194 1193 1105 c 2
 1193 433 l 2
 1193 327 1263 309 1323 250 c 1
 1271 179 1228 101 1179 36 c 1
 972 212 l 1
 988 330 995 540 995 736 c 1
 575 736 l 1
 554 262 315 -113 70 -401 c 1
 67 -399 22 -357 20 -354 c 1
 231 -72 371 337 371 675 c 0
 371 789 332 953 285 1057 c 1
579 887 m 1
 990 887 l 1
 990 938 993 1107 994 1191 c 1
 894 1254 877 1261 822 1278 c 0
 691 1319 579 1160 579 957 c 2
 579 887 l 1
1162 1794 m 1
 1327 1647 l 1
 1299 1584 1243 1523 1166 1475 c 1
 989 1575 804 1691 694 1691 c 0
 680 1691 666 1689 655 1685 c 0
 572 1655 522 1586 506 1448 c 1
 291 1658 l 1
 367 1784 457 1833 580 1833 c 0
 714 1833 854 1709 976 1673 c 0
 996 1667 1013 1664 1029 1664 c 0
 1099 1664 1135 1738 1162 1794 c 1
EndSplineSet
EndChar

StartChar: Adieresis
Encoding: 196 196 132
Width: 1420
Flags: MW
HStem: 696 191
VStem: 1280 165
LayerCount: 2
Fore
SplineSet
502 1530 m 1
 721 1489 l 1
 637 1406 541 1327 431 1254 c 1
 502 1530 l 1
1039 1476 m 1
 1254 1525 l 1
 1300 1327 l 1
 1203 1359 1120 1407 1039 1476 c 1
275 1057 m 1
 483 1160 701 1367 847 1546 c 1
 995 1412 1147 1335 1295 1277 c 1
 1238 1215 1183 1194 1183 1105 c 2
 1183 433 l 2
 1183 327 1253 309 1313 250 c 1
 1261 179 1218 101 1169 36 c 1
 962 212 l 1
 978 330 985 540 985 736 c 1
 565 736 l 1
 544 262 305 -113 60 -401 c 1
 57 -399 12 -357 10 -354 c 1
 90 -265 146 -171 185 -69 c 0
 278 176 361 435 361 675 c 0
 361 789 322 953 275 1057 c 1
569 887 m 1
 980 887 l 1
 980 938 983 1107 984 1191 c 1
 884 1254 867 1261 812 1278 c 0
 681 1319 569 1160 569 957 c 2
 569 887 l 1
EndSplineSet
MultipleSubs2: "cv14_Ae_Oe_Ue subtable" A e
EndChar

StartChar: Aring
Encoding: 197 197 133
Width: 1293
Flags: MW
HStem: 574 169
VStem: 1222 167
LayerCount: 2
Fore
SplineSet
565 1714 m 1
 711 1859 802 1828 859 1786 c 1
 958 1709 1051 1600 1060 1524 c 0
 1068 1454 1047 1356 938 1260 c 1
 1073 1216 1198 1164 1337 1090 c 1
 1280 1035 1224 1016 1224 937 c 2
 1224 340 l 2
 1224 246 1295 230 1355 177 c 1
 1303 114 1259 45 1210 -13 c 1
 1001 143 l 1
 1017 248 1024 435 1024 609 c 1
 600 609 l 1
 579 188 338 -145 91 -401 c 1
 88 -400 42 -362 40 -360 c 1
 253 -109 395 255 395 555 c 0
 395 656 369 757 322 849 c 1
 490 965 593 1059 716 1147 c 1
 652 1163 590 1172 536 1172 c 0
 376 1172 296 1091 167 1016 c 1
 124 1072 l 1
 292 1192 415 1266 593 1334 c 1
 494 1477 480 1624 565 1714 c 1
1023 1020 m 1
 960 1060 884 1094 807 1121 c 1
 616 992 605 955 605 806 c 2
 605 743 l 1
 1019 743 l 1
 1019 789 1022 945 1023 1020 c 1
617 1678 m 1
 595 1650 589 1610 606 1561 c 1
 629 1482 777 1311 895 1329 c 1
 912 1333 924 1342 935 1356 c 0
 958 1385 962 1425 948 1474 c 0
 939 1503 914 1540 871 1586 c 1
 779 1679 706 1720 657 1707 c 0
 641 1702 627 1693 617 1678 c 1
EndSplineSet
EndChar

StartChar: AE
Encoding: 198 198 134
Width: 1950
GlyphClass: 2
Flags: MW
HStem: 696 191 923 193
VStem: 825 220 1100 165 1333 148
LayerCount: 2
Fore
SplineSet
1985 1365 m 1
 1824 1203 l 1
 1810 1213 l 1
 1735 1274 1669 1328 1532 1347 c 1
 1527 1251 1528 1152 1526 1056 c 1
 1919 1056 l 1
 1919 893 l 1
 1530 893 l 1
 1530 597 l 1
 1247 490 l 1
 1407 326 1603 270 1868 270 c 1
 1692 38 l 1
 1245 114 1012 319 937 698 c 1
 485 698 l 1
 464 224 225 -113 -20 -401 c 1
 -23 -399 -68 -357 -70 -354 c 1
 133 -76 281 307 281 637 c 0
 281 751 256 864 209 968 c 1
 373 1098 470 1203 592 1302 c 1
 533 1319 474 1331 421 1331 c 0
 263 1331 183 1240 55 1156 c 1
 13 1219 l 1
 192 1364 330 1454 528 1535 c 1
 777 1459 958 1390 1173 1264 c 1
 1603 1540 l 1
 1730 1486 1838 1425 1985 1365 c 1
904 1160 m 1
 846 1195 766 1238 681 1271 c 1
 500 1122 489 1085 489 919 c 2
 489 849 l 1
 900 849 l 1
 900 900 903 1076 904 1160 c 1
1199 567 m 1
 1356 624 l 1
 1345 704 1339 797 1339 882 c 2
 1339 1261 l 1
 1125 1157 1104 1038 1104 910 c 0
 1104 799 1150 661 1199 567 c 1
EndSplineSet
Ligature2: "ccmp subtable" A afii301 E
EndChar

StartChar: Ccedilla
Encoding: 199 199 135
Width: 1090
Flags: MW
HStem: 16 1597
VStem: 46 220 571 174
LayerCount: 2
Fore
SplineSet
475 -54 m 1
 589 118 l 1
 526 146 472 174 413 202 c 0
 20 388 85 668 70 1188 c 1
 838 1532 l 1
 1150 1398 l 1
 972 1243 l 1
 924 1294 835 1349 755 1353 c 1
 755 1045 l 2
 755 945 755 829 777 697 c 1
 414 455 l 1
 556 345 716 275 903 275 c 0
 938 275 973 276 1007 279 c 1
 807 32 l 1
 742 53 689 74 641 94 c 1
 573 -12 l 1
 605 -3 630 1 664 1 c 0
 720 1 797 -56 797 -138 c 0
 797 -248 679 -297 585 -297 c 0
 496 -297 430 -283 372 -261 c 1
 392 -216 l 1
 429 -229 468 -237 508 -237 c 0
 598 -237 649 -204 649 -143 c 0
 649 -91 606 -69 562 -69 c 0
 542 -69 521 -74 505 -83 c 1
 475 -54 l 1
556 1306 m 1
 477 1282 l 1
 336 1215 276 1140 276 976 c 0
 276 835 277 652 360 510 c 1
 454 571 552 692 564 787 c 0
 569 824 571 882 571 958 c 0
 571 1034 566 1158 556 1306 c 1
EndSplineSet
EndChar

StartChar: Egrave
Encoding: 200 200 136
Width: 1215
Flags: MW
HStem: 923 193
VStem: 25 220 533 148
LayerCount: 2
Fore
SplineSet
1185 1365 m 1
 1024 1203 l 1
 1010 1213 l 1
 935 1274 869 1328 732 1347 c 1
 727 1251 728 1152 726 1056 c 1
 1119 1056 l 1
 1119 893 l 1
 730 893 l 1
 730 597 l 1
 447 490 l 1
 607 326 803 270 1068 270 c 1
 892 38 l 1
 333 133 100 430 100 1017 c 0
 100 1043 100 1069 101 1096 c 1
 803 1540 l 1
 927 1473 1056 1416 1185 1365 c 1
399 567 m 1
 556 624 l 1
 545 704 539 797 539 882 c 2
 539 1261 l 1
 325 1157 304 1038 304 910 c 0
 304 799 350 661 399 567 c 1
177 1718 m 1
 346 1748 l 1
 383 1648 401 1558 408 1404 c 1
 177 1718 l 1
EndSplineSet
EndChar

StartChar: Eacute
Encoding: 201 201 137
Width: 1215
Flags: MW
HStem: 923 193
VStem: 25 220 533 148
LayerCount: 2
Fore
SplineSet
1185 1365 m 1
 1024 1203 l 1
 1010 1213 l 1
 935 1274 869 1328 732 1347 c 1
 727 1251 728 1152 726 1056 c 1
 1119 1056 l 1
 1119 893 l 1
 730 893 l 1
 730 597 l 1
 447 490 l 1
 607 326 803 270 1068 270 c 1
 892 38 l 1
 333 133 100 430 100 1017 c 0
 100 1043 100 1069 101 1096 c 1
 803 1540 l 1
 927 1473 1056 1416 1185 1365 c 1
399 567 m 1
 556 624 l 1
 545 704 539 797 539 882 c 2
 539 1261 l 1
 325 1157 304 1038 304 910 c 0
 304 799 350 661 399 567 c 1
1065 1874 m 1
 1234 1844 l 1
 1003 1530 l 1
 1010 1684 1028 1774 1065 1874 c 1
EndSplineSet
EndChar

StartChar: Ecircumflex
Encoding: 202 202 138
Width: 1215
Flags: MW
HStem: 923 193
VStem: 25 220 533 148
LayerCount: 2
Fore
SplineSet
1185 1365 m 1
 1024 1203 l 1
 1010 1213 l 1
 935 1274 869 1328 732 1347 c 1
 727 1251 728 1152 726 1056 c 1
 1119 1056 l 1
 1119 893 l 1
 730 893 l 1
 730 597 l 1
 447 490 l 1
 607 326 803 270 1068 270 c 1
 892 38 l 1
 333 133 100 430 100 1017 c 0
 100 1043 100 1069 101 1096 c 1
 803 1540 l 1
 927 1473 1056 1416 1185 1365 c 1
399 567 m 1
 556 624 l 1
 545 704 539 797 539 882 c 2
 539 1261 l 1
 325 1157 304 1038 304 910 c 0
 304 799 350 661 399 567 c 1
792 1668 m 1
 684 1622 618 1590 537 1542 c 1
 614 1667 696 1770 792 1826 c 1
 888 1770 970 1667 1047 1542 c 1
 966 1590 900 1622 792 1668 c 1
EndSplineSet
EndChar

StartChar: Edieresis
Encoding: 203 203 139
Width: 1195
Flags: MW
HStem: 923 193
VStem: 25 220 533 148
LayerCount: 2
Fore
SplineSet
929 1565 m 1
 1203 1620 l 1
 1196 1538 1199 1502 1200 1417 c 1
 1103 1449 1010 1496 929 1565 c 1
654 1552 m 1
 344 1356 l 1
 318 1432 309 1511 320 1611 c 1
 654 1552 l 1
1185 1365 m 1xe0
 1024 1203 l 1
 1010 1213 l 1
 935 1274 869 1328 732 1347 c 1
 727 1251 728 1152 726 1056 c 1
 1119 1056 l 1
 1119 893 l 1
 730 893 l 1
 730 597 l 1
 447 490 l 1
 607 326 803 270 1068 270 c 1
 892 38 l 1
 333 133 100 430 100 1017 c 0
 100 1043 100 1069 101 1096 c 1
 803 1540 l 1
 927 1473 1056 1416 1185 1365 c 1xe0
399 567 m 1
 556 624 l 1
 545 704 539 797 539 882 c 2
 539 1261 l 1
 325 1157 304 1038 304 910 c 0
 304 799 350 661 399 567 c 1
EndSplineSet
EndChar

StartChar: Igrave
Encoding: 204 204 140
Width: 1062
Flags: MW
HStem: 1345 245 1623 20G
VStem: 23 987
LayerCount: 2
Fore
SplineSet
589 1050 m 2
 589 1107 l 1
 635 1145 685 1203 750 1274 c 1
 709 1268 674 1266 634 1266 c 0
 469 1266 409 1295 231 1295 c 0
 179 1295 129 1289 86 1277 c 1
 202 1521 l 1
 356 1521 510 1479 700 1479 c 0
 768 1479 847 1483 916 1490 c 1
 871 1402 812 1324 784 1282 c 1
 790 1080 859 852 859 684 c 0
 859 563 838 472 798 413 c 1
 811 422 l 2
 669 324 561 191 429 49 c 1
 82 242 l 2
 39 266 10 290 10 336 c 0
 10 356 24 397 31 417 c 1
 119 567 l 1
 164 446 331 295 495 295 c 0
 576 295 649 374 649 468 c 0
 649 821 589 904 589 1050 c 2
418 1903 m 1
 587 1933 l 1
 624 1833 642 1743 649 1589 c 1
 418 1903 l 1
EndSplineSet
EndChar

StartChar: Iacute
Encoding: 205 205 141
Width: 1062
Flags: MW
HStem: 1345 245 1623 20G
VStem: 23 987
LayerCount: 2
Fore
SplineSet
589 1050 m 2
 589 1107 l 1
 635 1145 685 1203 750 1274 c 1
 709 1268 674 1266 634 1266 c 0
 469 1266 409 1295 231 1295 c 0
 179 1295 129 1289 86 1277 c 1
 202 1521 l 1
 356 1521 510 1479 700 1479 c 0
 768 1479 847 1483 916 1490 c 1
 871 1402 812 1324 784 1282 c 1
 790 1080 859 852 859 684 c 0
 859 563 838 472 798 413 c 1
 811 422 l 2
 669 324 561 191 429 49 c 1
 82 242 l 2
 39 266 10 290 10 336 c 0
 10 356 24 397 31 417 c 1
 119 567 l 1
 164 446 331 295 495 295 c 0
 576 295 649 374 649 468 c 0
 649 821 589 904 589 1050 c 2
629 1934 m 1
 798 1904 l 1
 567 1590 l 1
 574 1744 592 1834 629 1934 c 1
EndSplineSet
EndChar

StartChar: Icircumflex
Encoding: 206 206 142
Width: 1062
Flags: MW
HStem: 1345 245 1623 20G
VStem: 23 987
LayerCount: 2
Fore
SplineSet
589 1050 m 2
 589 1107 l 1
 635 1145 685 1203 750 1274 c 1
 709 1268 674 1266 634 1266 c 0
 469 1266 409 1295 231 1295 c 0
 179 1295 129 1289 86 1277 c 1
 202 1521 l 1
 356 1521 510 1479 700 1479 c 0
 768 1479 847 1483 916 1490 c 1
 871 1402 812 1324 784 1282 c 1
 790 1080 859 852 859 684 c 0
 859 563 838 472 798 413 c 1
 811 422 l 2
 669 324 561 191 429 49 c 1
 82 242 l 2
 39 266 10 290 10 336 c 0
 10 356 24 397 31 417 c 1
 119 567 l 1
 164 446 331 295 495 295 c 0
 576 295 649 374 649 468 c 0
 649 821 589 904 589 1050 c 2
578 1740 m 1
 470 1694 404 1662 323 1614 c 1
 400 1739 482 1842 578 1898 c 1
 674 1842 756 1739 833 1614 c 1
 752 1662 686 1694 578 1740 c 1
EndSplineSet
EndChar

StartChar: Idieresis
Encoding: 207 207 143
Width: 1062
Flags: MW
HStem: 1345 245 1623 20G
VStem: 23 987
LayerCount: 2
Fore
SplineSet
589 1050 m 2
 589 1107 l 1
 635 1145 685 1203 750 1274 c 1
 709 1268 674 1266 634 1266 c 0
 469 1266 409 1295 231 1295 c 0
 179 1295 129 1289 86 1277 c 1
 202 1521 l 1
 356 1521 510 1479 700 1479 c 0
 768 1479 847 1483 916 1490 c 1
 871 1402 812 1324 784 1282 c 1
 790 1080 859 852 859 684 c 0
 859 563 838 472 798 413 c 1
 811 422 l 2
 669 324 561 191 429 49 c 1
 82 242 l 2
 39 266 10 290 10 336 c 0
 10 356 24 397 31 417 c 1
 119 567 l 1
 164 446 331 295 495 295 c 0
 576 295 649 374 649 468 c 0
 649 821 589 904 589 1050 c 2
590 1597 m 1
 666 1796 l 1
 740 1783 777 1772 846 1749 c 1
 757 1689 690 1646 590 1597 c 1
310 1578 m 1
 365 1809 l 1
 434 1796 479 1785 538 1764 c 1
 464 1696 404 1642 310 1578 c 1
EndSplineSet
EndChar

StartChar: Eth
Encoding: 208 208 144
Width: 1245
Flags: MW
HStem: 34 1579
VStem: -40 1274 210 238
LayerCount: 2
Fore
SplineSet
60 230 m 1
 280 448 l 1
 280 677 l 1
 121 677 l 2
 90 677 33 657 2 623 c 1
 106 876 l 1
 106 843 124 817 155 817 c 2
 277 817 l 1
 271 939 249 1039 184 1125 c 1
 339 1137 404 1166 573 1265 c 1
 388 1318 280 1318 97 1318 c 1
 97 1328 l 1
 316 1519 l 1
 990 1457 1175 1133 1175 580 c 1
 636 37 l 1
 448 128 344 172 60 230 c 1
633 1227 m 1
 513 1157 467 1059 467 1000 c 2
 467 865 l 1
 467 817 l 1
 700 817 l 2
 752 817 834 849 865 883 c 1
 869 875 l 1
 678 602 l 1
 678 660 643 677 594 677 c 2
 479 677 l 1
 484 648 491 617 502 582 c 1
 337 419 l 1
 512 291 573 271 652 271 c 0
 812 271 956 517 956 697 c 0
 956 953 863 1090 633 1227 c 1
EndSplineSet
EndChar

StartChar: Ntilde
Encoding: 209 209 145
Width: 1374
Flags: MW
HStem: 31 1504<473 524 524 1050>
VStem: 176 246<1292.5 1297.5> 359 181 831 211
LayerCount: 2
Fore
SplineSet
592 249 m 1xb0
 473 31 l 1
 312 100 197 165 95 225 c 1
 265 383 358 484 358 635 c 0
 358 704 339 783 299 884 c 0
 195 1145 176 1207 176 1251 c 0
 176 1344 235 1433 524 1535 c 1
 545 1479 l 1
 454 1425 422 1376 422 1316 c 0xd0
 422 1269 442 1215 469 1146 c 1
 574 1272 719 1434 807 1535 c 1
 949 1448 1041 1402 1204 1324 c 1
 1123 1255 1058 1143 1042 968 c 1
 1042 467 l 2
 1042 344 1074 302 1166 257 c 1
 1050 31 l 1
 863 131 834 225 834 410 c 2
 834 784 l 2
 834 907 919 1060 982 1153 c 1
 882 1225 814 1257 757 1257 c 0
 674 1257 615 1189 519 1078 c 1
 499 1054 l 1
 528 954 540 870 540 796 c 0
 540 593 445 476 342 359 c 1
 398 314 492 274 592 249 c 1xb0
1319 1794 m 1
 1484 1647 l 1
 1456 1584 1400 1523 1323 1475 c 1
 1146 1575 961 1691 851 1691 c 0
 837 1691 823 1689 812 1685 c 0
 729 1655 679 1586 663 1448 c 1
 448 1658 l 1
 524 1784 614 1833 737 1833 c 0
 871 1833 1011 1709 1133 1673 c 0
 1153 1667 1170 1664 1186 1664 c 0
 1256 1664 1292 1738 1319 1794 c 1
EndSplineSet
EndChar

StartChar: Ograve
Encoding: 210 210 146
Width: 1626
Flags: MW
HStem: 33 154
VStem: 720 194
LayerCount: 2
Fore
SplineSet
100 923 m 1
 284 1239 516 1532 853 1532 c 1
 853 1297 l 1
 1072 1517 l 1
 1177 1332 1273 1183 1495 1048 c 1
 1495 1029 l 2
 1495 617 1262 43 784 43 c 0
 580 43 175 69 100 923 c 1
871 1275 m 1
 853 1275 l 1
 856 958 858 700 929 524 c 1
 752 439 677 351 609 256 c 1
 706 197 784 187 878 187 c 0
 1117 187 1280 399 1280 674 c 0
 1280 959 1125 1117 871 1275 c 1
554 316 m 1
 633 414 668 520 668 641 c 2
 668 1385 l 1
 443 1312 346 1090 346 860 c 0
 346 651 427 434 554 316 c 1
810 1845 m 1
 979 1875 l 1
 1016 1775 1034 1685 1041 1531 c 1
 810 1845 l 1
EndSplineSet
EndChar

StartChar: Oacute
Encoding: 211 211 147
Width: 1626
Flags: MW
HStem: 33 154
VStem: 720 194
LayerCount: 2
Fore
SplineSet
100 923 m 1
 284 1239 516 1532 853 1532 c 1
 853 1297 l 1
 1072 1517 l 1
 1177 1332 1273 1183 1495 1048 c 1
 1495 1029 l 2
 1495 617 1262 43 784 43 c 0
 580 43 175 69 100 923 c 1
871 1275 m 1
 853 1275 l 1
 856 958 858 700 929 524 c 1
 752 439 677 351 609 256 c 1
 706 197 784 187 878 187 c 0
 1117 187 1280 399 1280 674 c 0
 1280 959 1125 1117 871 1275 c 1
554 316 m 1
 633 414 668 520 668 641 c 2
 668 1385 l 1
 443 1312 346 1090 346 860 c 0
 346 651 427 434 554 316 c 1
1078 1859 m 1
 1247 1829 l 1
 1016 1515 l 1
 1023 1669 1041 1759 1078 1859 c 1
EndSplineSet
EndChar

StartChar: Ocircumflex
Encoding: 212 212 148
Width: 1626
Flags: MW
HStem: 33 154
VStem: 720 194
LayerCount: 2
Fore
SplineSet
100 923 m 1
 284 1239 516 1532 853 1532 c 1
 853 1297 l 1
 1072 1517 l 1
 1177 1332 1273 1183 1495 1048 c 1
 1495 1029 l 2
 1495 617 1262 43 784 43 c 0
 580 43 175 69 100 923 c 1
871 1275 m 1
 853 1275 l 1
 856 958 858 700 929 524 c 1
 752 439 677 351 609 256 c 1
 706 197 784 187 878 187 c 0
 1117 187 1280 399 1280 674 c 0
 1280 959 1125 1117 871 1275 c 1
554 316 m 1
 633 414 668 520 668 641 c 2
 668 1385 l 1
 443 1312 346 1090 346 860 c 0
 346 651 427 434 554 316 c 1
877 1707 m 1
 769 1661 703 1629 622 1581 c 1
 699 1706 781 1809 877 1865 c 1
 973 1809 1055 1706 1132 1581 c 1
 1051 1629 985 1661 877 1707 c 1
EndSplineSet
EndChar

StartChar: Otilde
Encoding: 213 213 149
Width: 1626
Flags: MW
HStem: 33 154
VStem: 720 194
LayerCount: 2
Fore
SplineSet
100 923 m 1
 284 1239 516 1532 853 1532 c 1
 853 1297 l 1
 1072 1517 l 1
 1177 1332 1273 1183 1495 1048 c 1
 1495 1029 l 2
 1495 617 1262 43 784 43 c 0
 580 43 175 69 100 923 c 1
871 1275 m 1
 853 1275 l 1
 856 958 858 700 929 524 c 1
 752 439 677 351 609 256 c 1
 706 197 784 187 878 187 c 0
 1117 187 1280 399 1280 674 c 0
 1280 959 1125 1117 871 1275 c 1
554 316 m 1
 633 414 668 520 668 641 c 2
 668 1385 l 1
 443 1312 346 1090 346 860 c 0
 346 651 427 434 554 316 c 1
1165 1847 m 1
 1330 1700 l 1
 1302 1637 1246 1576 1169 1528 c 1
 992 1628 807 1744 697 1744 c 0
 683 1744 669 1742 658 1738 c 0
 575 1708 525 1639 509 1501 c 1
 294 1711 l 1
 370 1837 460 1886 583 1886 c 0
 717 1886 857 1762 979 1726 c 0
 999 1720 1016 1717 1032 1717 c 0
 1102 1717 1138 1791 1165 1847 c 1
EndSplineSet
EndChar

StartChar: Odieresis
Encoding: 214 214 150
Width: 1642
Flags: MW
HStem: 33 154
VStem: 720 194
LayerCount: 2
Fore
SplineSet
1230 1437 m 1
 1504 1488 l 1
 1486 1385 1506 1296 1472 1203 c 1
 1380 1259 1297 1344 1230 1437 c 1
212 1248 m 1
 186 1324 177 1432 188 1532 c 1
 524 1472 l 1
 441 1429 303 1337 212 1248 c 1
100 923 m 1
 284 1239 516 1532 853 1532 c 1
 853 1297 l 1
 1072 1517 l 1
 1177 1332 1273 1183 1495 1048 c 1
 1495 1029 l 2
 1495 617 1262 43 784 43 c 0
 580 43 175 69 100 923 c 1
853 1275 m 1
 856 958 858 700 929 524 c 1
 752 439 677 351 609 256 c 1
 706 197 784 187 878 187 c 0
 1117 187 1280 399 1280 674 c 0
 1280 959 1125 1117 853 1275 c 1
554 316 m 1
 633 414 668 520 668 641 c 2
 668 1385 l 1
 443 1312 346 1090 346 860 c 0
 346 651 427 434 554 316 c 1
EndSplineSet
MultipleSubs2: "cv14_Ae_Oe_Ue subtable" O e
EndChar

StartChar: multiply
Encoding: 215 215 151
Width: 1275
Flags: MW
HStem: 119 990<995 995>
VStem: 253 791<778 797>
LayerCount: 2
Fore
SplineSet
295 155 m 1
 258 456 l 1
 281 433 312 427 334 449 c 2
 501 616 l 1
 341 776 l 2
 307 810 275 800 253 778 c 1
 274 1098 l 1
 629 743 l 1
 995 1109 l 1
 1044 797 l 1
 1003 838 966 826 931 791 c 2
 754 614 l 1
 935 434 l 2
 968 401 1011 404 1042 435 c 1
 995 119 l 1
 627 487 l 1
 295 155 l 1
EndSplineSet
EndChar

StartChar: Oslash
Encoding: 216 216 152
Width: 1535
Flags: MW
HStem: 33 154
VStem: 720 194
LayerCount: 2
Fore
SplineSet
100 923 m 1
 284 1239 516 1532 853 1532 c 1
 853 1297 l 1
 1072 1517 l 1
 1106 1457 1139 1400 1176 1347 c 1
 1294 1520 l 1
 1471 1520 l 1
 1272 1227 l 1
 1331 1164 1401 1105 1495 1048 c 1
 1495 1029 l 2
 1495 617 1262 43 784 43 c 0
 708 43 604 47 500 95 c 1
 430 -8 l 1
 252 -8 l 1
 378 176 l 1
 248 293 136 512 100 923 c 1
1280 674 m 0
 1280 830 1233 948 1150 1048 c 1
 889 665 l 1
 899 613 912 566 929 524 c 1
 771 448 694 370 631 287 c 1
 610 255 l 1
 706 197 784 187 878 187 c 0
 1117 187 1280 399 1280 674 c 0
346 860 m 0
 346 678 407 489 507 366 c 1
 666 599 l 1
 667 613 668 627 668 641 c 2
 668 1385 l 1
 443 1312 346 1090 346 860 c 0
853 1275 m 1
 854 1133 855 1003 862 887 c 1
 1044 1153 l 1
 993 1195 935 1235 853 1275 c 1
EndSplineSet
EndChar

StartChar: Ugrave
Encoding: 217 217 153
Width: 1406
Flags: MW
HStem: 34 1679
VStem: 107 131 995 223
LayerCount: 2
Fore
SplineSet
1200 296 m 1
 1023 39 l 1
 813 185 l 1
 851 248 883 297 883 467 c 1
 483 59 l 1
 379 140 263 161 75 229 c 1
 244 355 335 627 335 779 c 0
 335 930 97 1137 97 1261 c 0
 97 1367 179 1521 349 1622 c 1
 402 1587 l 1
 301 1509 268 1438 268 1375 c 0
 268 1349 331 1195 552 1068 c 1
 552 1064 l 2
 552 839 482 641 342 405 c 1
 445 335 512 323 567 323 c 0
 619 323 734 442 879 610 c 1
 879 1149 l 2
 879 1181 846 1225 740 1301 c 1
 920 1533 l 1
 1162 1389 l 1
 1083 1299 1070 1219 1070 1136 c 0
 1070 1098 1073 1059 1073 1019 c 2
 1073 625 l 2
 1073 464 1112 352 1200 296 c 1
526 1772 m 1
 695 1802 l 1
 732 1702 750 1612 757 1458 c 1
 526 1772 l 1
EndSplineSet
EndChar

StartChar: Uacute
Encoding: 218 218 154
Width: 1406
Flags: MW
HStem: 34 1679
VStem: 107 131 995 223
LayerCount: 2
Fore
SplineSet
1200 296 m 1
 1023 39 l 1
 813 185 l 1
 851 248 883 297 883 467 c 1
 483 59 l 1
 379 140 263 161 75 229 c 1
 244 355 335 627 335 779 c 0
 335 930 97 1137 97 1261 c 0
 97 1367 179 1521 349 1622 c 1
 402 1587 l 1
 301 1509 268 1438 268 1375 c 0
 268 1349 331 1195 552 1068 c 1
 552 1064 l 2
 552 839 482 641 342 405 c 1
 445 335 512 323 567 323 c 0
 619 323 734 442 879 610 c 1
 879 1149 l 2
 879 1181 846 1225 740 1301 c 1
 920 1533 l 1
 1162 1389 l 1
 1083 1299 1070 1219 1070 1136 c 0
 1070 1098 1073 1059 1073 1019 c 2
 1073 625 l 2
 1073 464 1112 352 1200 296 c 1
763 1813 m 1
 932 1783 l 1
 701 1469 l 1
 708 1623 726 1713 763 1813 c 1
EndSplineSet
EndChar

StartChar: Ucircumflex
Encoding: 219 219 155
Width: 1406
Flags: MW
HStem: 34 1679
VStem: 107 131 995 223
LayerCount: 2
Fore
SplineSet
1200 296 m 1
 1023 39 l 1
 813 185 l 1
 851 248 883 297 883 467 c 1
 483 59 l 1
 379 140 263 161 75 229 c 1
 244 355 335 627 335 779 c 0
 335 930 97 1137 97 1261 c 0
 97 1367 179 1521 349 1622 c 1
 402 1587 l 1
 301 1509 268 1438 268 1375 c 0
 268 1349 331 1195 552 1068 c 1
 552 1064 l 2
 552 839 482 641 342 405 c 1
 445 335 512 323 567 323 c 0
 619 323 734 442 879 610 c 1
 879 1149 l 2
 879 1181 846 1225 740 1301 c 1
 920 1533 l 1
 1162 1389 l 1
 1083 1299 1070 1219 1070 1136 c 0
 1070 1098 1073 1059 1073 1019 c 2
 1073 625 l 2
 1073 464 1112 352 1200 296 c 1
674 1763 m 1
 566 1717 500 1685 419 1637 c 1
 496 1762 578 1865 674 1921 c 1
 770 1865 852 1762 929 1637 c 1
 848 1685 782 1717 674 1763 c 1
EndSplineSet
EndChar

StartChar: Udieresis
Encoding: 220 220 156
Width: 1364
Flags: MW
HStem: 34 1679
VStem: 147 131 1035 223
LayerCount: 2
Fore
SplineSet
574 1320 m 1
 743 1562 l 1
 862 1469 l 1
 780 1385 683 1338 574 1320 c 1
440 1337 m 1
 526 1616 l 1
 659 1569 l 1
 614 1456 530 1392 440 1337 c 1
1240 296 m 1
 1063 39 l 1
 853 185 l 1
 891 248 923 297 923 467 c 1
 523 59 l 1
 419 140 303 161 115 229 c 1
 284 355 375 627 375 779 c 0
 375 930 117 1157 117 1281 c 0
 117 1425 199 1521 369 1622 c 1
 422 1587 l 1
 330 1498 286 1438 286 1383 c 0
 286 1299 392 1225 592 1068 c 1
 592 839 522 641 382 405 c 1
 485 335 552 323 607 323 c 0
 659 323 774 442 919 610 c 1
 919 1139 l 2
 919 1171 886 1215 780 1291 c 1
 960 1523 l 1
 1202 1379 l 1
 1123 1289 1110 1209 1110 1126 c 0
 1110 1088 1113 1049 1113 1009 c 2
 1113 625 l 2
 1113 464 1152 352 1240 296 c 1
EndSplineSet
MultipleSubs2: "cv14_Ae_Oe_Ue subtable" U e
EndChar

StartChar: Yacute
Encoding: 221 221 157
Width: 1346
Flags: MW
HStem: -618 2331
VStem: 107 132 996 217
LayerCount: 2
Fore
SplineSet
1200 296 m 1
 1085 30 952 -388 595 -388 c 0
 487 -388 404 -259 221 -259 c 0
 156 -259 88 -287 15 -326 c 1
 5 -316 l 1
 103 -110 196 -49 288 -49 c 0
 420 -49 552 -172 705 -172 c 0
 903 -172 973 -35 973 23 c 0
 973 83 887 224 883 467 c 1
 483 79 l 1
 374 140 263 177 75 239 c 1
 244 365 335 627 335 779 c 0
 335 930 97 1137 97 1261 c 0
 97 1367 179 1521 349 1622 c 1
 402 1587 l 1
 301 1509 268 1438 268 1375 c 0
 268 1349 331 1195 552 1068 c 1
 552 839 482 651 342 415 c 1
 445 345 512 333 567 333 c 0
 619 333 734 442 879 610 c 1
 879 1149 l 2
 879 1181 846 1225 740 1301 c 1
 920 1533 l 1
 1162 1389 l 1
 1083 1299 1073 1219 1073 1136 c 2
 1073 625 l 2
 1073 464 1112 352 1200 296 c 1
679 1697 m 1
 848 1667 l 1
 617 1353 l 1
 624 1507 642 1597 679 1697 c 1
EndSplineSet
EndChar

StartChar: Thorn
Encoding: 222 222 158
Width: 1250
Flags: MW
HStem: -383 1996
VStem: 60 1204 305 210
LayerCount: 2
Fore
SplineSet
527 -98 m 1
 431 -156 357 -224 212 -316 c 1
 253 -161 280 17 295 249 c 1
 120 318 l 1
 290 492 l 1
 290 1285 l 1
 70 1345 l 1
 219 1532 l 1
 531 1435 l 1
 518 965 l 1
 799 1245 l 1
 1014 1126 1175 964 1175 795 c 0
 1175 517 1041 311 821 47 c 1
 486 197 l 1
 486 41 507 -44 527 -98 c 1
833 276 m 1
 912 276 997 474 997 586 c 0
 997 701 870 985 691 985 c 0
 625 985 495 830 495 675 c 2
 495 416 l 1
 833 276 l 1
EndSplineSet
EndChar

StartChar: germandbls
Encoding: 223 223 159
Width: 888
GlyphClass: 2
Flags: MW
HStem: 870 171<419 495.5 419 590 295 495.5>
VStem: 117 178<592.5 870> 280 41 667 153<183 226>
LayerCount: 2
Fore
SplineSet
535 1148 m 1xd0
 485 1178 345 1287 278 1295 c 1
 232 1223 l 1
 245 1196 277 1088 284 1048 c 1xd0
 338 1046 391 1041 447 1041 c 0
 544 1041 632 1044 746 1054 c 1
 779 995 l 1
 606 739 l 1
 769 580 820 476 820 316 c 0
 820 50 631 -236 281 -428 c 1xb0
 280 -375 280 -341 280 -323 c 1
 432 -254 667 -66 667 149 c 0
 667 303 626 429 420 544 c 1
 590 870 l 1
 295 870 l 1
 295 745 289 570 286 458 c 0
 283 331 240 78 60 -364 c 1
 42 -354 31 -354 11 -346 c 1
 58 -198 89 -79 103 183 c 0
 113 372 117 530 117 655 c 0
 117 780 115 892 113 991 c 0
 111 1045 95 1113 52 1154 c 1xd0
 168 1279 205 1331 321 1455 c 1xb0
 429 1433 641 1289 776 1262 c 1
 716 1196 620 1169 535 1148 c 1xd0
EndSplineSet
Ligature2: "ccmp subtable" longs z
Ligature2: "ccmp subtable" longs afii301 z
EndChar

StartChar: ae
Encoding: 230 230 160
Width: 1054
GlyphClass: 2
Flags: MW
HStem: 31 1049<258 346 258 816>
VStem: 458 158
LayerCount: 2
Fore
SplineSet
105 861 m 1
 258 1080 l 1
 517 949 l 1
 728 1077 l 1
 728 1080 l 1
 730 1079 l 1
 731 1079 l 1
 1005 874 l 1
 629 376 l 1
 629 372 l 1
 644 350 674 323 698 308 c 0
 789 250 856 247 969 250 c 1
 816 31 l 1
 556 161 l 1
 346 34 l 1
 346 31 l 1
 344 32 l 1
 343 32 l 1
 69 237 l 1
 445 735 l 2
 445 736 444 737 444 738 c 0
 430 761 400 787 376 803 c 0
 285 861 218 864 105 861 c 1
681 900 m 0
 666 900 639 889 635 866 c 0
 628 824 623 784 620 745 c 0
 616 692 615 638 616 582 c 0
 617 538 620 497 623 461 c 1
 776 696 l 2
 784 709 802 739 802 756 c 0
 802 802 720 900 681 900 c 0
393 211 m 0
 408 211 435 222 439 245 c 0
 446 286 450 326 453 365 c 0
 457 418 459 472 458 527 c 0
 457 572 454 613 451 650 c 1
 298 415 l 2
 290 402 272 372 272 355 c 0
 272 309 354 211 393 211 c 0
EndSplineSet
Ligature2: "ccmp subtable" a afii301 e
EndChar

StartChar: ccedilla
Encoding: 231 231 161
Width: 785
Flags: MW
HStem: -341 60<269.5 276 211 370> -114 71
VStem: 56 130<621.5 661> 372 158<-217.5 -149>
LayerCount: 2
Fore
SplineSet
606 337 m 1
 395 98 l 1
 296 -56 l 1
 332 -46 362 -43 392 -43 c 0
 455 -43 530 -98 530 -182 c 0
 530 -292 417 -341 323 -341 c 0
 216 -341 151 -329 95 -305 c 1
 115 -260 l 1
 152 -273 191 -281 231 -281 c 0
 321 -281 372 -248 372 -187 c 0
 372 -111 278 -99 228 -127 c 1
 198 -98 l 1
 300 56 l 1
 21 291 56 418 56 578 c 0
 56 744 135 888 354 1092 c 1
 632 923 l 1
 494 767 l 1
 397 828 351 882 297 882 c 0
 230 882 186 745 186 694 c 0
 186 549 208 421 315 317 c 0
 388 246 445 265 550 388 c 1
 606 337 l 1
EndSplineSet
EndChar

StartChar: eth
Encoding: 240 240 162
Width: 842
Flags: MW
HStem: 52 1356
VStem: 76 176 504 170
LayerCount: 2
Fore
SplineSet
76 878 m 1
 210 939 298 988 355 1019 c 1
 343 1041 330 1063 316 1085 c 1
 302 1109 l 1
 116 1034 l 1
 161 1186 l 1
 227 1213 l 1
 200 1247 184 1266 153 1304 c 1
 349 1408 l 1
 369 1384 413 1319 431 1293 c 1
 650 1380 l 1
 605 1229 l 1
 494 1185 l 1
 500 1174 l 1
 626 926 685 636 674 331 c 1
 529 215 473 171 404 52 c 1
 247 108 168 173 86 247 c 1
 81 448 79 675 76 878 c 1
504 296 m 1
 508 571 476 765 392 945 c 1
 334 916 286 881 257 846 c 1
 249 678 251 531 260 371 c 1
 304 316 386 264 445 242 c 1
 504 296 l 1
EndSplineSet
EndChar

StartChar: oslash
Encoding: 248 248 163
Width: 747
Flags: MW
HStem: 1 21G<40 119 40 40>
VStem: 90 161 521 170
LayerCount: 2
Fore
SplineSet
61 804 m 1
 213 892 300 965 383 1084 c 1
 435 1050 481 1007 520 959 c 1
 587 1092 l 1
 694 1092 l 1
 579 875 l 1
 636 781 671 677 686 588 c 0
 696 529 691 487 659 437 c 2
 396 14 l 1
 191 139 l 1
 119 1 l 1
 40 1 l 1
 128 177 l 1
 51 225 l 1
 82 283 90 336 90 427 c 2
 90 702 l 1
 87 750 71 786 61 804 c 1
521 388 m 0
 521 498 501 590 469 665 c 1
 280 306 l 1
 320 267 386 247 403 247 c 0
 461 247 521 317 521 388 c 0
253 825 m 1
 250 420 l 1
 419 757 l 1
 386 805 349 844 310 875 c 1
 253 825 l 1
EndSplineSet
EndChar

StartChar: thorn
Encoding: 254 254 164
Width: 766
Flags: MW
HStem: -360 1871<72 363>
VStem: 117 166 538 161<354.5 608.5>
LayerCount: 2
Fore
SplineSet
301 -251 m 1
 206 -269 133 -307 72 -360 c 1
 42 -331 l 1
 81 -280 117 -190 117 -37 c 2
 111 1195 l 2
 110 1246 101 1308 61 1334 c 1
 69 1358 l 1
 174 1389 262 1465 363 1511 c 1
 404 1485 l 1
 325 1417 286 1332 285 1175 c 2
 284 924 l 1
 424 1073 l 1
 605 952 699 692 699 525 c 0
 699 497 691 466 678 446 c 2
 420 14 l 1
 282 98 l 1
 281 9 l 2
 281 0 295 -86 301 -251 c 1
286 835 m 1
 281 341 l 1
 293 272 408 225 429 225 c 0
 461 225 538 330 538 379 c 0
 538 638 437 804 334 875 c 1
 286 835 l 1
EndSplineSet
EndChar

StartChar: OE
Encoding: 338 338 165
Width: 1800
GlyphClass: 2
Flags: MW
HStem: 33 154 923 193
VStem: 720 194 1235 220 1743 148
LayerCount: 2
Fore
SplineSet
1835 1365 m 1
 1674 1203 l 1
 1660 1213 l 1
 1585 1274 1519 1328 1382 1347 c 1
 1376 1056 l 1
 1767 1056 l 1
 1767 893 l 1
 1380 893 l 1
 1380 597 l 1
 1097 490 l 1
 1257 326 1453 270 1718 270 c 1
 1542 38 l 1
 1386 64 1255 106 1148 166 c 1
 1046 89 925 43 784 43 c 0
 580 43 175 69 100 943 c 1
 245 1221 463 1477 853 1532 c 1
 853 1391 854 1269 856 1162 c 1
 1453 1540 l 1
 1580 1486 1688 1425 1835 1365 c 1
554 316 m 1
 633 414 668 520 668 641 c 2
 668 1385 l 1
 443 1312 346 1090 346 860 c 0
 346 651 427 434 554 316 c 1
1049 567 m 1
 1206 624 l 1
 1195 704 1189 797 1189 882 c 2
 1189 1261 l 1
 975 1157 954 1038 954 910 c 0
 954 761 1000 661 1049 567 c 1
878 187 m 0
 939 187 999 202 1052 230 c 1
 965 297 898 380 849 481 c 1
 727 409 666 335 609 256 c 1
 706 197 784 187 878 187 c 0
EndSplineSet
Ligature2: "ccmp subtable" O afii301 E
EndChar

StartChar: oe
Encoding: 339 339 166
Width: 1127
GlyphClass: 2
Flags: MW
HStem: 14 1070
VStem: 90 161 521 168
LayerCount: 2
Fore
SplineSet
1042 250 m 1
 889 31 l 1
 521 215 l 1
 396 14 l 1
 51 225 l 1
 82 283 90 336 90 427 c 2
 90 702 l 1
 87 750 71 786 61 804 c 1
 213 892 300 965 383 1084 c 1
 448 1042 503 986 548 923 c 1
 801 1077 l 1
 801 1080 l 1
 803 1079 l 1
 804 1079 l 1
 1078 874 l 1
 701 375 l 1
 715 352 746 324 771 308 c 0
 862 250 929 247 1042 250 c 1
253 825 m 1
 250 359 l 1
 262 286 380 247 403 247 c 0
 461 247 521 317 521 388 c 0
 521 635 421 787 310 875 c 1
 253 825 l 1
754 900 m 0
 739 900 712 889 708 866 c 0
 689 753 686 649 689 561 c 0
 690 556 690 551 690 546 c 0
 692 516 693 487 696 461 c 1
 849 696 l 2
 857 709 875 739 875 756 c 0
 875 802 793 900 754 900 c 0
EndSplineSet
Ligature2: "ccmp subtable" o afii301 e
EndChar

StartChar: Scaron
Encoding: 352 352 167
Width: 1475
Flags: MW
HStem: 33 1418
VStem: 1441 16
LayerCount: 2
Fore
SplineSet
626 1363 m 0
 797 1363 987 1256 1186 1256 c 0
 1248 1256 1322 1273 1419 1309 c 1
 1424 1304 l 1
 1322 1119 1223 1056 1099 1056 c 0
 955 1056 763 1181 617 1181 c 0
 441 1181 305 1104 305 948 c 0
 305 908 305 748 546 748 c 0
 649 748 695 803 763 928 c 1
 1152 975 1364 760 1364 539 c 0
 1364 333 1168 110 837 33 c 1
 608 59 63 242 63 616 c 0
 63 875 349 1363 626 1363 c 0
287 704 m 1
 273 692 l 1
 298 472 653 234 942 234 c 0
 1132 234 1242 377 1242 509 c 0
 1242 622 1120 728 939 728 c 0
 837 728 743 667 674 548 c 1
 561 553 432 617 287 704 c 1
816 1528 m 1
 924 1574 990 1606 1071 1654 c 1
 994 1529 912 1426 816 1370 c 1
 720 1426 638 1529 561 1654 c 1
 642 1606 708 1574 816 1528 c 1
EndSplineSet
EndChar

StartChar: scaron
Encoding: 353 353 168
Width: 897
Flags: MW
HStem: 31 1348
VStem: 137 159
LayerCount: 2
Fore
SplineSet
528 245 m 0
 564 245 601 275 601 323 c 0
 601 360 575 421 471 591 c 1
 296 379 l 1
 397 321 472 245 528 245 c 0
97 262 m 1
 234 408 l 1
 192 480 148 665 137 785 c 1
 201 888 287 968 422 1079 c 1
 524 1045 596 986 733 953 c 1
 779 950 l 1
 602 738 l 1
 778 396 l 1
 676 303 560 175 475 31 c 1
 368 108 253 215 97 262 c 1
364 585 m 1
 555 799 l 1
 442 873 378 899 342 899 c 0
 301 899 296 866 296 832 c 0
 296 764 316 675 364 585 c 1
462 1253 m 1
 570 1299 636 1331 717 1379 c 1
 640 1254 558 1151 462 1095 c 1
 366 1151 284 1254 207 1379 c 1
 288 1331 354 1299 462 1253 c 1
EndSplineSet
EndChar

StartChar: Ydieresis
Encoding: 376 376 169
Width: 1346
Flags: MW
HStem: -618 2331
VStem: 107 132 996 217
LayerCount: 2
Fore
SplineSet
1200 296 m 1
 1085 30 952 -388 595 -388 c 0
 487 -388 404 -259 221 -259 c 0
 156 -259 88 -287 15 -326 c 1
 5 -316 l 1
 103 -110 196 -49 288 -49 c 0
 420 -49 552 -172 705 -172 c 0
 903 -172 973 -35 973 23 c 0
 973 83 887 224 883 467 c 1
 483 79 l 1
 374 140 263 177 75 239 c 1
 244 365 335 627 335 779 c 0
 335 930 97 1137 97 1261 c 0
 97 1367 179 1521 349 1622 c 1
 402 1587 l 1
 301 1509 268 1438 268 1375 c 0
 268 1349 331 1195 552 1068 c 1
 552 839 482 651 342 415 c 1
 445 345 512 333 567 333 c 0
 619 333 734 442 879 610 c 1
 879 1149 l 2
 879 1181 846 1225 740 1301 c 1
 920 1533 l 1
 1162 1389 l 1
 1083 1299 1073 1219 1073 1136 c 2
 1073 625 l 2
 1073 464 1112 352 1200 296 c 1
724 1463 m 1
 802 1748 l 1
 878 1729 916 1713 986 1680 c 1
 895 1594 826 1533 724 1463 c 1
437 1435 m 1
 493 1766 l 1
 564 1748 610 1731 671 1701 c 1
 595 1604 533 1527 437 1435 c 1
EndSplineSet
EndChar

StartChar: Zcaron
Encoding: 381 381 170
Width: 1214
Flags: MW
HStem: -620 164 1317 18
VStem: -37 56
LayerCount: 2
Fore
SplineSet
535 1200 m 2
 1129 1200 l 1
 641 770 l 1
 974 601 1108 374 1108 181 c 0
 1108 -155 703 -452 258 -452 c 0
 225 -452 172 -450 140 -439 c 0
 79 -416 50 -272 50 -159 c 0
 50 225 520 466 695 494 c 1
 610 552 523 624 390 674 c 1
 764 1003 l 1
 689 1021 640 1021 561 1021 c 0
 365 1021 246 1012 111 966 c 1
 242 1225 l 1
 378 1201 354 1200 535 1200 c 2
217 -23 m 1
 217 -178 318 -284 507 -284 c 0
 699 -284 899 -148 899 97 c 0
 899 160 891 263 807 362 c 1
 631 362 225 253 217 -23 c 1
612 1428 m 1
 720 1474 786 1506 867 1554 c 1
 790 1429 708 1326 612 1270 c 1
 516 1326 434 1429 357 1554 c 1
 438 1506 504 1474 612 1428 c 1
EndSplineSet
EndChar

StartChar: zcaron
Encoding: 382 382 171
Width: 776
Flags: MW
HStem: -302 141<165 409> 890 168
VStem: 76 95<-21.5 -4.5> 536 133<57 336.5>
LayerCount: 2
Fore
SplineSet
76 -124 m 0
 76 115 167 351 400 461 c 1
 352 516 290 563 215 593 c 1
 454 884 l 1
 294 904 228 874 128 840 c 1
 178 1104 l 1
 244 1073 285 1058 377 1058 c 0
 396 1058 522 1063 697 1070 c 1
 423 716 l 1
 587 593 669 421 669 252 c 0
 669 120 618 -16 516 -142 c 0
 447 -227 356 -302 233 -302 c 0
 97 -302 76 -245 76 -124 c 0
536 114 m 0
 536 179 519 255 485 329 c 1
 301 303 171 204 171 18 c 0
 171 -61 251 -161 345 -161 c 0
 473 -161 536 0 536 114 c 0
402 1263 m 1
 510 1309 576 1341 657 1389 c 1
 580 1264 498 1161 402 1105 c 1
 306 1161 224 1264 147 1389 c 1
 228 1341 294 1309 402 1263 c 1
EndSplineSet
EndChar

StartChar: longs
Encoding: 383 383 172
Width: 456
Flags: MW
HStem: -364 1819
VStem: 116 179
LayerCount: 2
Fore
SplineSet
607 1403 m 1
 488 1227 l 1
 438 1257 345 1287 278 1295 c 1
 232 1223 l 1
 283 1120 295 976 295 880 c 0
 295 755 289 570 286 458 c 0
 283 331 240 78 60 -364 c 1
 42 -354 31 -354 11 -346 c 1
 58 -198 89 -79 103 183 c 0
 117 447 119 711 113 991 c 0
 111 1045 95 1113 52 1154 c 1
 321 1455 l 1
 445 1440 472 1430 607 1403 c 1
EndSplineSet
EndChar

StartChar: florin
Encoding: 402 402 173
Width: 1024
Flags: MW
HStem: -266 86<134.5 140.5> 723 86<170.5 338 197 328 612 817> 1314 85
VStem: -133 1223
LayerCount: 2
Fore
SplineSet
1090 1235 m 0
 1090 1172 1052 1141 977 1141 c 0
 938 1141 910 1161 894 1202 c 1
 883 1226 878 1262 851 1291 c 0
 809 1337 732 1313 688 1219 c 0
 655 1150 632 1046 621 907 c 1
 612 809 l 1
 838 809 l 2
 853 809 859 805 856 797 c 1
 842 735 l 2
 840 727 832 723 817 723 c 2
 604 723 l 1
 567 403 l 2
 543 188 484 20 390 -100 c 0
 304 -211 201 -266 80 -266 c 0
 16 -266 -37 -249 -79 -215 c 0
 -115 -186 -133 -154 -133 -120 c 0
 -133 -87 -126 -60 -112 -40 c 0
 -98 -20 -81 -10 -60 -10 c 0
 -19 -10 3 -23 22 -40 c 1
 37 -55 49 -75 56 -102 c 0
 64 -129 75 -148 90 -161 c 0
 105 -174 123 -180 146 -180 c 0
 191 -180 213 -150 233 -79 c 0
 252 -14 269 103 285 270 c 2
 328 723 l 1
 176 723 l 2
 165 723 161 729 164 741 c 2
 178 797 l 2
 180 805 186 809 197 809 c 2
 338 809 l 1
 363 1003 420 1147 510 1241 c 0
 565 1299 613 1337 653 1355 c 0
 717 1384 776 1399 830 1399 c 0
 939 1399 993 1376 1032 1344 c 0
 1071 1313 1090 1276 1090 1235 c 0
EndSplineSet
EndChar

StartChar: circumflex
Encoding: 710 710 174
Width: 598
Flags: MW
HStem: 1293 284
VStem: 80 510<1293 1293>
LayerCount: 2
Fore
SplineSet
335 1419 m 1
 227 1373 161 1341 80 1293 c 1
 157 1418 239 1521 335 1577 c 1
 431 1521 513 1418 590 1293 c 1
 509 1341 443 1373 335 1419 c 1
EndSplineSet
EndChar

StartChar: caron
Encoding: 711 711 175
Width: 598
Flags: MW
HStem: 1240 284
VStem: 82 510<1524 1524>
LayerCount: 2
Fore
SplineSet
337 1398 m 1
 445 1444 511 1476 592 1524 c 1
 515 1399 433 1296 337 1240 c 1
 241 1296 159 1399 82 1524 c 1
 163 1476 229 1444 337 1398 c 1
EndSplineSet
EndChar

StartChar: ring
Encoding: 730 730 176
Width: 570
Flags: MW
HStem: 911 496
VStem: 138 78<1071 1230> 342 80
LayerCount: 2
Fore
SplineSet
217 1287 m 1
 216 1071 l 1
 222 1036 278 1019 289 1019 c 0
 314 1019 342 1051 342 1085 c 0
 342 1199 296 1270 244 1310 c 1
 217 1287 l 1
125 1277 m 1
 196 1318 240 1351 280 1407 c 1
 360 1356 409 1255 422 1177 c 0
 427 1151 424 1130 410 1107 c 2
 284 911 l 1
 120 1008 l 1
 135 1035 138 1060 138 1102 c 2
 138 1230 l 1
 137 1252 130 1269 125 1277 c 1
EndSplineSet
EndChar

StartChar: tilde
Encoding: 732 732 177
Width: 546
Flags: MW
HStem: 1341 142<16.5 247>
VStem: -211 1036<1297 1308>
LayerCount: 2
Fore
SplineSet
660 1444 m 1
 825 1297 l 1
 797 1234 741 1173 664 1125 c 1
 487 1225 302 1341 192 1341 c 0
 178 1341 164 1339 153 1335 c 0
 70 1305 20 1236 4 1098 c 1
 -211 1308 l 1
 -135 1434 -45 1483 78 1483 c 0
 212 1483 352 1359 474 1323 c 0
 494 1317 511 1314 527 1314 c 0
 597 1314 633 1388 660 1444 c 1
EndSplineSet
EndChar

StartChar: gravecomb
Encoding: 768 768 178
Width: 0
Flags: MW
HStem: 1315 344<-134 -72>
VStem: -303 231
LayerCount: 2
Fore
SplineSet
-303 1629 m 1
 -134 1659 l 1
 -97 1559 -79 1469 -72 1315 c 1
 -303 1629 l 1
EndSplineSet
EndChar

StartChar: acutecomb
Encoding: 769 769 179
Width: 0
Flags: MW
HStem: 1375 344<-259 -197>
VStem: -259 231
LayerCount: 2
Fore
SplineSet
-197 1719 m 1
 -28 1689 l 1
 -259 1375 l 1
 -252 1529 -234 1619 -197 1719 c 1
EndSplineSet
EndChar

StartChar: uni0302
Encoding: 770 770 180
Width: 0
Flags: MW
HStem: 1293 284
VStem: -500 510<1293 1293>
LayerCount: 2
Fore
SplineSet
-245 1419 m 1
 -353 1373 -419 1341 -500 1293 c 1
 -423 1418 -341 1521 -245 1577 c 1
 -149 1521 -67 1418 10 1293 c 1
 -71 1341 -137 1373 -245 1419 c 1
EndSplineSet
EndChar

StartChar: tildecomb
Encoding: 771 771 181
Width: 0
Flags: MW
HStem: 1341 142<-525.5 -295>
VStem: -753 1036<1297 1308>
LayerCount: 2
Fore
SplineSet
118 1444 m 1
 283 1297 l 1
 255 1234 199 1173 122 1125 c 1
 -55 1225 -240 1341 -350 1341 c 0
 -364 1341 -378 1339 -389 1335 c 0
 -472 1305 -522 1236 -538 1098 c 1
 -753 1308 l 1
 -677 1434 -587 1483 -464 1483 c 0
 -330 1483 -190 1359 -68 1323 c 0
 -48 1317 -31 1314 -15 1314 c 0
 55 1314 91 1388 118 1444 c 1
EndSplineSet
EndChar

StartChar: uni0304
Encoding: 772 772 182
Width: 0
Flags: MW
HStem: 1333 70<-588 -93 -588 -93>
VStem: -588 495<1333 1403 1333 1403>
LayerCount: 2
Fore
SplineSet
-588 1333 m 1
 -588 1403 l 1
 -93 1403 l 1
 -93 1333 l 1
 -588 1333 l 1
EndSplineSet
EndChar

StartChar: uni0308
Encoding: 776 776 183
Width: 0
Flags: MW
HStem: 1085 331<-597 -541>
VStem: -597 549
LayerCount: 2
Fore
SplineSet
-310 1113 m 1
 -232 1398 l 1
 -156 1379 -118 1363 -48 1330 c 1
 -139 1244 -208 1183 -310 1113 c 1
-597 1085 m 1
 -541 1416 l 1
 -470 1398 -424 1381 -363 1351 c 1
 -439 1254 -501 1177 -597 1085 c 1
EndSplineSet
EndChar

StartChar: uni030A
Encoding: 778 778 184
Width: 0
Flags: MW
HStem: 816 708
VStem: -473 112<1044 1271> -181 117
LayerCount: 2
Fore
SplineSet
-360 1353 m 1
 -361 1044 l 1
 -353 995 -273 970 -258 970 c 0
 -221 970 -181 1016 -181 1064 c 0
 -181 1227 -248 1328 -322 1386 c 1
 -360 1353 l 1
-492 1339 m 1
 -390 1397 -328 1445 -270 1524 c 1
 -156 1451 -86 1307 -67 1196 c 0
 -60 1158 -64 1128 -85 1096 c 2
 -265 816 l 1
 -499 955 l 1
 -478 993 -473 1029 -473 1088 c 2
 -473 1271 l 1
 -474 1303 -485 1327 -492 1339 c 1
EndSplineSet
EndChar

StartChar: uni030C
Encoding: 780 780 185
Width: 0
Flags: MW
HStem: 1240 284
VStem: -500 510<1524 1524>
LayerCount: 2
Fore
SplineSet
-245 1398 m 1
 -137 1444 -71 1476 10 1524 c 1
 -67 1399 -149 1296 -245 1240 c 1
 -341 1296 -423 1399 -500 1524 c 1
 -419 1476 -353 1444 -245 1398 c 1
EndSplineSet
EndChar

StartChar: uni0327
Encoding: 807 807 186
Width: 0
Flags: MW
HStem: -439 60<-531.5 -519 -584 -440> -211 70<-520 -380>
VStem: -423 148<-315.5 -259>
LayerCount: 2
Fore
SplineSet
-597 -196 m 1
 -467 0 l 1
 -400 0 l 1
 -499 -154 l 1
 -467 -145 -442 -141 -408 -141 c 0
 -352 -141 -275 -198 -275 -280 c 0
 -275 -390 -393 -439 -487 -439 c 0
 -576 -439 -642 -425 -700 -403 c 1
 -680 -358 l 1
 -643 -371 -604 -379 -564 -379 c 0
 -474 -379 -423 -346 -423 -285 c 0
 -423 -233 -466 -211 -510 -211 c 0
 -530 -211 -551 -216 -567 -225 c 1
 -597 -196 l 1
EndSplineSet
EndChar

StartChar: uni1E9E
Encoding: 7838 7838 187
Width: 1370
Flags: MW
HStem: -371 184<582 633> 1301 194
VStem: 179 194<544.5 625 625 1019> 1089 202<179.5 444>
LayerCount: 2
Fore
SplineSet
220 1533 m 1
 542 1499 615 1495 738 1495 c 2
 1311 1495 l 1
 841 1024 l 1
 1162 838 1291 590 1291 378 c 0
 1291 -19 866 -371 400 -371 c 0
 369 -371 318 -369 287 -356 c 0
 254 -343 231 -287 217 -220 c 1
 399 -62 l 1
 443 -140 524 -187 640 -187 c 0
 861 -187 1089 -18 1089 286 c 0
 1089 602 814 811 599 919 c 1
 959 1279 l 1
 826 1316 537 1306 385 1258 c 1
 369 1182 373 1105 373 1019 c 2
 373 625 l 2
 373 464 412 352 500 296 c 1
 323 39 l 1
 109 185 l 1
 147 248 179 297 179 467 c 2
 179 1149 l 2
 179 1181 146 1225 40 1301 c 1
 220 1533 l 1
EndSplineSet
Ligature2: "ccmp subtable" S afii301 Z
EndChar

StartChar: endash
Encoding: 8211 8211 190
Width: 654
Flags: MW
HStem: 532 169
VStem: -3 657
LayerCount: 2
Fore
SplineSet
567 713 m 2
 584 713 635 732 654 752 c 1
 525 531 l 1
 479 531 450 532 387 532 c 0
 302 532 247 531 135 526 c 0
 86 523 24 513 -3 496 c 1
 50 628 60 658 95 747 c 1
 104 716 130 701 168 701 c 1
 567 713 l 2
EndSplineSet
EndChar

StartChar: emdash
Encoding: 8212 8212 191
Width: 1024
Flags: MW
HStem: 532 169
VStem: -1 1024
LayerCount: 2
Fore
SplineSet
936 713 m 2
 953 713 1004 732 1023 752 c 1
 894 531 l 1
 848 531 819 532 756 532 c 0
 671 532 249 531 137 526 c 0
 88 523 26 513 -1 496 c 1
 52 628 62 658 97 747 c 1
 106 716 132 701 170 701 c 2
 936 713 l 2
EndSplineSet
EndChar

StartChar: quoteleft
Encoding: 8216 8216 192
Width: 342
Flags: MW
HStem: 957 591<45 287>
VStem: 45 276
LayerCount: 2
Fore
SplineSet
287 1548 m 1
 321 1542 l 1
 260 1435 210 1316 210 1227 c 0
 210 1180 218 1130 235 1079 c 1
 45 957 l 1
 54 1084 79 1184 128 1283 c 0
 176 1382 222 1463 287 1548 c 1
EndSplineSet
EndChar

StartChar: quoteright
Encoding: 8217 8217 193
Width: 344
Flags: MW
HStem: 966 583<60 296>
VStem: 26 270
LayerCount: 2
Fore
SplineSet
60 966 m 1
 26 972 l 1
 87 1079 131 1190 131 1279 c 0
 131 1326 123 1376 106 1427 c 1
 296 1549 l 1
 287 1422 262 1322 213 1223 c 0
 165 1124 125 1051 60 966 c 1
EndSplineSet
EndChar

StartChar: quotesinglbase
Encoding: 8218 8218 194
Width: 344
Flags: MW
HStem: -268 583<63 299>
VStem: 29 270
LayerCount: 2
Fore
SplineSet
63 -268 m 1
 29 -262 l 1
 90 -155 134 -44 134 45 c 0
 134 92 126 142 109 193 c 1
 299 315 l 1
 290 188 265 88 216 -11 c 0
 168 -110 128 -183 63 -268 c 1
EndSplineSet
EndChar

StartChar: quotedblleft
Encoding: 8220 8220 195
Width: 582
Flags: MW
HStem: 906 627<281 283>
VStem: 47 504
LayerCount: 2
Fore
SplineSet
517 1489 m 1
 551 1483 l 1
 490 1376 446 1265 446 1176 c 0
 446 1129 454 1079 471 1028 c 1
 281 906 l 1
 290 1033 315 1133 364 1232 c 0
 412 1331 452 1404 517 1489 c 1
283 1533 m 1
 317 1527 l 1
 256 1420 212 1309 212 1220 c 0
 212 1173 220 1123 237 1072 c 1
 47 950 l 1
 56 1077 81 1177 130 1276 c 0
 178 1375 218 1448 283 1533 c 1
EndSplineSet
EndChar

StartChar: quotedblright
Encoding: 8221 8221 196
Width: 582
Flags: MW
HStem: 892 627<294 296>
VStem: 26 504
LayerCount: 2
Fore
SplineSet
60 936 m 1
 26 942 l 1
 87 1049 131 1160 131 1249 c 0
 131 1296 123 1346 106 1397 c 1
 296 1519 l 1
 287 1392 262 1292 213 1193 c 0
 165 1094 125 1021 60 936 c 1
294 892 m 1
 260 898 l 1
 321 1005 365 1116 365 1205 c 0
 365 1252 357 1302 340 1353 c 1
 530 1475 l 1
 521 1348 496 1248 447 1149 c 0
 399 1050 359 977 294 892 c 1
EndSplineSet
EndChar

StartChar: quotedblbase
Encoding: 8222 8222 197
Width: 615
Flags: MW
HStem: -340 627<296 298>
VStem: 28 504
LayerCount: 2
Fore
SplineSet
62 -296 m 1
 28 -290 l 1
 89 -183 133 -72 133 17 c 0
 133 64 125 114 108 165 c 1
 298 287 l 1
 289 160 264 60 215 -39 c 0
 167 -138 127 -211 62 -296 c 1
296 -340 m 1
 262 -334 l 1
 323 -227 367 -116 367 -27 c 0
 367 20 359 70 342 121 c 1
 532 243 l 1
 523 116 498 16 449 -83 c 0
 401 -182 361 -255 296 -340 c 1
EndSplineSet
EndChar

StartChar: dagger
Encoding: 8224 8224 198
Width: 1024
Flags: MW
HStem: 892 43<463 486 536 555.5>
VStem: 486 50<826.5 892 826.5 892 935 991.5> 491 47<-262.5 -121 -262.5 -119>
LayerCount: 2
Fore
SplineSet
659 609 m 1xa0
 600 388 538 10 538 -252 c 0
 538 -273 530 -276 524 -276 c 2
 507 -276 l 2
 499 -276 491 -275 491 -252 c 0xa0
 491 14 411 402 365 607 c 1
 434 687 486 757 486 892 c 1
 440 892 389 884 332 859 c 0
 248 823 211 792 135 792 c 0
 75 792 21 840 21 905 c 0
 21 974 65 1021 135 1021 c 0
 172 1021 256 989 295 974 c 0
 374 944 436 935 486 935 c 1
 486 1124 384 1216 384 1346 c 0
 384 1407 426 1480 513 1480 c 0
 587 1480 647 1433 647 1353 c 0
 647 1264 536 1048 536 935 c 1
 583 935 635 937 691 960 c 0
 743 982 818 1021 896 1021 c 0
 946 1021 1001 974 1001 911 c 0
 1001 835 958 792 874 792 c 0
 804 792 680 873 643 881 c 0
 615 887 575 892 536 892 c 1xc0
 536 761 593 688 659 609 c 1xa0
EndSplineSet
EndChar

StartChar: daggerdbl
Encoding: 8225 8225 199
Width: 1024
Flags: MW
HStem: 296 43<463 486 463 486 536 555.5> 892 43<463 486 536 555.5>
VStem: 486 50<239.5 296 239.5 296 935 991.5>
LayerCount: 2
Fore
SplineSet
644 615 m 1
 589 545 543 472 536 339 c 1
 575 339 615 344 643 350 c 0
 680 358 784 439 854 439 c 0
 938 439 981 396 981 320 c 0
 981 257 926 210 876 210 c 0
 798 210 723 249 671 271 c 0
 615 294 583 296 536 296 c 1
 536 183 647 -33 647 -122 c 0
 647 -202 587 -249 513 -249 c 0
 426 -249 384 -176 384 -115 c 0
 384 15 486 107 486 296 c 1
 436 296 394 287 315 257 c 0
 276 242 192 210 155 210 c 0
 85 210 41 257 41 326 c 0
 41 391 95 439 155 439 c 0
 231 439 248 408 332 372 c 0
 389 347 440 339 486 339 c 1
 481 473 440 538 379 616 c 1
 440 694 481 758 486 892 c 1
 440 892 389 884 332 859 c 0
 248 823 231 792 155 792 c 0
 95 792 41 840 41 905 c 0
 41 974 85 1021 155 1021 c 0
 192 1021 276 989 315 974 c 0
 394 944 436 935 486 935 c 1
 486 1124 384 1216 384 1346 c 0
 384 1407 426 1480 513 1480 c 0
 587 1480 647 1433 647 1353 c 0
 647 1264 536 1048 536 935 c 1
 583 935 615 937 671 960 c 0
 723 982 798 1021 876 1021 c 0
 926 1021 981 974 981 911 c 0
 981 835 938 792 854 792 c 0
 784 792 680 873 643 881 c 0
 615 887 575 892 536 892 c 1
 543 759 589 685 644 615 c 1
EndSplineSet
EndChar

StartChar: bullet
Encoding: 8226 8226 200
Width: 616
Flags: MW
HStem: 506 475<277 339>
VStem: 64 488<702.5 774>
LayerCount: 2
Fore
SplineSet
306 506 m 0
 245 506 185 529 140 567 c 0
 89 611 64 668 64 737 c 0
 64 811 89 872 140 917 c 0
 187 959 244 981 310 981 c 0
 375 981 432 960 478 919 c 0
 527 874 552 814 552 737 c 0
 552 667 526 611 476 567 c 1
 429 527 372 506 306 506 c 0
EndSplineSet
EndChar

StartChar: ellipsis
Encoding: 8230 8230 201
Width: 1302
Flags: MW
HStem: 31 347<227 229>
VStem: 55 1193<203 205>
LayerCount: 2
Fore
SplineSet
227 31 m 1
 55 203 l 1
 229 378 l 1
 402 205 l 1
 227 31 l 1
651 31 m 1
 479 203 l 1
 653 378 l 1
 826 205 l 1
 651 31 l 1
1073 31 m 1
 901 203 l 1
 1075 378 l 1
 1248 205 l 1
 1073 31 l 1
EndSplineSet
EndChar

StartChar: perthousand
Encoding: 8240 8240 202
Width: 2096
Flags: MW
HStem: 12 191 409 194 758 200 1158 197
VStem: 65 94 506 118<704 966> 826 96 1269 116<304 569> 1455 96 1898 116<304 569>
LayerCount: 2
Fore
SplineSet
965 741 m 0
 937 720 922 682 922 630 c 0
 922 578 946 502 995 402 c 1
 1062 269 1123 203 1177 203 c 0
 1194 203 1208 208 1224 218 c 1
 1254 240 1269 278 1269 330 c 0
 1269 383 1245 460 1196 558 c 0
 1131 691 1068 758 1013 758 c 0
 996 758 981 753 965 741 c 0
368 -70 m 2
 322 -70 l 2
 309 -70 302 -63 302 -49 c 0
 302 -46 303 -42 304 -39 c 2
 1053 1415 l 2
 1056 1422 1061 1425 1070 1425 c 2
 1111 1425 l 2
 1128 1425 1138 1409 1130 1397 c 1
 384 -59 l 2
 381 -66 376 -70 368 -70 c 2
282 1330 m 1
 314 1364 354 1367 402 1321 c 0
 550 1177 624 1035 624 897 c 0
 624 748 549 597 398 445 c 1
 348 397 301 397 259 445 c 0
 0 740 -8 1036 282 1330 c 1
1043 933 m 1
 1075 967 1115 970 1163 924 c 0
 1311 780 1385 638 1385 500 c 0
 1385 351 1310 200 1159 48 c 1
 1109 0 1062 0 1020 48 c 0
 761 343 753 639 1043 933 c 1
202 1141 m 0
 174 1120 159 1082 159 1030 c 0
 159 978 183 902 232 802 c 1
 299 669 360 603 414 603 c 0
 431 603 445 608 461 618 c 1
 491 640 506 678 506 730 c 0
 506 783 482 860 433 958 c 0
 368 1091 305 1158 250 1158 c 0
 233 1158 218 1153 202 1141 c 0
1594 741 m 0
 1566 720 1551 682 1551 630 c 0
 1551 578 1575 502 1624 402 c 1
 1691 269 1752 203 1806 203 c 0
 1823 203 1837 208 1853 218 c 1
 1883 240 1898 278 1898 330 c 0
 1898 383 1874 460 1825 558 c 0
 1760 691 1697 758 1642 758 c 0
 1625 758 1610 753 1594 741 c 0
1672 933 m 1
 1704 967 1744 970 1792 924 c 0
 1940 780 2014 638 2014 500 c 0
 2014 351 1939 200 1788 48 c 1
 1738 0 1691 0 1649 48 c 0
 1390 343 1382 639 1672 933 c 1
EndSplineSet
EndChar

StartChar: guilsinglleft
Encoding: 8249 8249 203
Width: 663
Flags: MW
HStem: 99 952<498 499>
VStem: 7 600<168 575>
LayerCount: 2
Fore
SplineSet
499 99 m 1
 7 575 l 1
 498 1051 l 1
 607 984 l 1
 288 581 l 1
 607 168 l 1
 499 99 l 1
EndSplineSet
EndChar

StartChar: guilsinglright
Encoding: 8250 8250 204
Width: 663
Flags: MW
HStem: 99 952<165 166>
VStem: 57 600<168 575 575 984>
LayerCount: 2
Fore
SplineSet
657 575 m 1
 165 99 l 1
 57 168 l 1
 376 581 l 1
 57 984 l 1
 166 1051 l 1
 657 575 l 1
EndSplineSet
EndChar

StartChar: Euro
Encoding: 8364 8364 205
Width: 1032
Flags: MW
HStem: -31 121<638.5 656.5> 0 21G<922 942> 507 114<54.5 172 86 172 86 182 395 752 395 395> 741 111<61.5 184 92 170 387 822> 1287 114<586.5 678>
VStem: 170 212<690 741 690 741 690 741>
LayerCount: 2
Fore
SplineSet
817 587 m 1x7c
 797 532 l 2
 791 515 776 507 752 507 c 2
 395 507 l 1
 410 312 463 183 553 122 c 0
 584 101 619 90 658 90 c 0
 737 90 788 120 824 167 c 0xbc
 856 208 882 264 901 336 c 1
 912 365 924 379 937 379 c 0
 943 379 947 378 950 377 c 2
 947 379 l 1
 974 374 989 366 993 356 c 0
 997 347 999 338 999 330 c 0
 987 192 981 105 981 69 c 0
 981 34 978 13 971 8 c 0
 965 3 952 0 932 0 c 0
 912 0 899 8 894 24 c 0
 889 41 882 59 872 80 c 1
 869 76 860 67 843 52 c 0x7c
 827 38 809 25 790 14 c 0
 742 -16 687 -31 626 -31 c 0xbc
 505 -31 394 34 318 135 c 1
 251 226 205 350 182 507 c 1
 66 507 l 2
 43 507 31 515 31 530 c 2
 31 542 l 2
 31 547 32 552 35 557 c 1
 49 596 l 2
 55 613 67 621 86 621 c 2
 172 621 l 1
 171 635 170 651 170 670 c 2
 170 741 l 1
 74 741 l 2
 49 741 37 748 37 762 c 0
 37 769 38 775 41 780 c 1
 37 780 l 1
 57 840 68 852 92 852 c 2
 184 852 l 1
 207 1000 255 1124 330 1224 c 1
 417 1342 522 1401 645 1401 c 0
 726 1401 799 1365 864 1292 c 1
 874 1322 882 1341 887 1348 c 0
 892 1356 904 1360 923 1360 c 0
 981 1361 959 1334 967 1256 c 1
 976 1115 l 2
 979 1069 982 1042 983 1033 c 0
 984 1024 985 1017 985 1010 c 0
 985 998 976 988 959 981 c 0
 926 968 910 969 905 978 c 0
 902 983 897 996 889 1018 c 0
 881 1041 871 1069 858 1103 c 1
 846 1138 831 1169 812 1196 c 0
 771 1257 714 1287 642 1287 c 0
 531 1287 454 1197 411 1017 c 0
 398 964 390 909 387 852 c 1
 854 852 l 2
 877 852 889 842 889 822 c 0
 889 819 888 815 887 812 c 2
 867 766 l 1
 860 745 849 741 822 741 c 2
 382 741 l 1
 382 690 l 1
 387 621 l 1
 780 621 l 2
 805 621 817 610 817 587 c 1x7c
EndSplineSet
EndChar

StartChar: uni20B0
Encoding: 8368 8368 206
Width: 837
Flags: MW
HStem: -263 97<276.5 356> 92 137<158.5 282.5> 1116 94<530 532 532 540.5>
VStem: 74 138<-131 -38> 330 155<917.5 1059> 637 139<873.5 905 905 911 911 926 873.5 952.5> 651 156<59 189.5 72 189.5>
LayerCount: 2
Fore
SplineSet
530 1116 m 1xec
 500 1111 485 1092 485 1059 c 2
 485 1051 l 1
 490 936 541 822 597 697 c 1
 616 659 l 1
 629 727 l 1
 634 786 637 831 637 862 c 2
 637 905 l 2
 637 1000 619 1064 582 1098 c 0
 568 1110 551 1116 530 1116 c 1xec
350 -258 m 1
 301 -263 l 1
 252 -263 210 -252 173 -230 c 0
 107 -191 74 -151 74 -111 c 0
 74 -86 85 -62 106 -39 c 0
 177 40 212 43 212 -28 c 2
 212 -38 l 2
 212 -73 223 -103 246 -128 c 0
 269 -153 301 -166 340 -166 c 0
 372 -166 404 -162 436 -153 c 0
 579 -115 651 -44 651 59 c 2
 651 72 l 1
 645 175 625 270 592 356 c 1xfa
 534 273 463 207 379 158 c 0
 305 114 237 92 174 92 c 0
 143 92 114 100 89 115 c 0
 64 131 51 155 51 188 c 0
 51 237 66 304 96 389 c 1
 142 489 172 568 186 625 c 0
 186 626 185 627 183 627 c 0
 179 627 134 594 86 539 c 1
 59 575 l 2
 46 591 29 620 22 627 c 1
 149 725 241 774 299 774 c 0
 390 774 388 679 305 487 c 1
 260 355 237 279 237 260 c 0
 237 241 240 231 245 230 c 0
 251 229 257 229 264 229 c 0
 301 229 344 250 395 292 c 0
 446 335 494 395 541 472 c 1
 400 692 330 860 330 975 c 0
 330 992 332 1009 336 1026 c 0
 363 1138 424 1210 512 1210 c 2
 532 1210 l 2
 619 1210 684 1181 726 1122 c 0
 759 1075 776 1009 776 926 c 2
 776 911 l 2
 776 836 767 769 749 712 c 0
 731 655 719 615 712 591 c 0xec
 705 567 698 545 690 526 c 1
 768 375 807 244 807 135 c 0xea
 807 20 763 -73 676 -142 c 1
 591 -208 483 -247 350 -258 c 1
EndSplineSet
EndChar

StartChar: uni2114
Encoding: 8468 8468 207
Width: 1108
Flags: MW
HStem: -10 112<617.5 655 617.5 694.5> 0 98<257.5 271.5> 743 101<759.5 848.5> 801 143<303.5 305.5>
VStem: -47 96<676.5 720> 88 152<118.5 139.5 118.5 181.5> 825 140<312.5 358.5>
LayerCount: 2
Fore
SplineSet
905 137 m 1x9e
 822 39 737 -10 652 -10 c 0x9e
 567 -10 500 23 451 90 c 1
 363 30 295 0 248 0 c 0
 155 0 88 65 88 158 c 0
 88 205 94 247 105 282 c 0
 117 318 123 338 123 341 c 0
 123 344 124 347 125 350 c 1
 125 348 l 1
 135 383 142 406 147 418 c 1
 147 416 l 1
 159 447 160 457 166 487 c 1
 24 527 -47 593 -47 686 c 0
 -47 754 -14 813 51 864 c 1
 132 917 238 944 369 944 c 0
 454 944 535 934 614 915 c 0
 626 912 687 896 709 886 c 1x5e
 772 862 l 2
 806 850 828 844 838 844 c 0
 859 844 878 861 883 874 c 1
 890 917 907 938 936 938 c 0
 967 938 996 922 1022 891 c 0
 1029 883 1032 875 1032 868 c 0
 1032 817 975 778 862 752 c 0
 837 746 812 743 785 743 c 0x6e
 734 743 664 751 576 766 c 0
 437 789 337 801 274 801 c 0
 124 801 49 765 49 692 c 0
 49 661 64 636 128 608 c 1
 143 603 160 595 199 582 c 1
 208 609 229 665 264 752 c 1
 430 743 l 1
 404 664 l 1
 365 547 l 1
 551 528 l 1
 614 723 l 1
 793 705 l 1
 731 514 l 1
 887 493 965 424 965 305 c 0
 965 250 945 194 905 137 c 1x9e
700 430 m 1
 629 253 594 154 594 133 c 0
 594 112 606 102 629 102 c 0
 681 102 723 136 766 199 c 0
 802 251 825 293 825 332 c 0
 825 385 783 418 700 430 c 1
334 457 m 1x5e
 271 260 240 150 240 129 c 0
 240 108 249 98 266 98 c 0
 279 98 296 104 317 115 c 0
 391 150 459 259 522 440 c 1
 469 440 406 446 334 457 c 1x5e
EndSplineSet
EndChar

StartChar: afii61352
Encoding: 8470 8470 208
Width: 1679
Flags: MW
HStem: 7 52<200.5 253 190 257.5> 7 68<962 1605 962 1605> 147 68<962 1605 962 1605> 268 44<1270.5 1304 1270.5 1327.5> 1089 44<1270.5 1304> 1425 52<113 165 1005.5 1057.5>
VStem: 46 123 379 48<218 1087> 833 47<7 1266 718 1266 7 1295> 962 248<646.5 753.5 646.5 760> 1089 125 1372 233<646.5 753.5>
LayerCount: 2
Fore
SplineSet
962 700 m 0x7dd0
 962 820 993 922 1056 1006 c 0
 1119 1091 1194 1133 1283 1133 c 0
 1372 1133 1447 1091 1510 1006 c 0
 1573 922 1605 820 1605 700 c 0
 1605 581 1573 479 1510 394 c 0
 1447 310 1372 268 1283 268 c 0
 1194 268 1119 310 1056 394 c 0
 993 479 962 581 962 700 c 0x7dd0
880 1266 m 2
 880 7 l 1
 833 7 l 1
 427 1087 l 1
 427 218 l 2
 427 159 408 109 370 68 c 0
 333 27 286 7 229 7 c 0
 172 7 128 30 95 77 c 0
 62 124 46 180 46 244 c 0
 46 309 77 341 140 341 c 0
 203 341 235 307 235 238 c 0
 235 212 227 189 210 168 c 0
 155 99 148 59 232 59 c 0
 274 59 309 74 337 105 c 0
 365 136 379 174 379 218 c 2
 379 1212 l 1
 339 1319 311 1381 294 1398 c 0
 277 1416 217 1425 113 1425 c 1
 113 1477 l 1
 492 1477 l 2
 544 1477 578 1455 593 1412 c 2
 833 718 l 1xbfb0
 833 1266 l 2
 833 1324 851 1374 888 1415 c 0
 925 1456 972 1477 1029 1477 c 0
 1086 1477 1131 1453 1164 1406 c 0
 1197 1359 1214 1303 1214 1239 c 0
 1214 1175 1182 1143 1119 1143 c 0
 1056 1143 1025 1178 1025 1247 c 0
 1025 1272 1033 1294 1048 1315 c 0
 1103 1387 1110 1425 1026 1425 c 0
 985 1425 950 1409 922 1378 c 0
 894 1347 880 1310 880 1266 c 2
1605 147 m 1
 962 147 l 1
 962 215 l 1
 1605 215 l 1
 1605 147 l 1
1605 7 m 1
 962 7 l 1x7dd0
 962 75 l 1
 1605 75 l 1
 1605 7 l 1
1372 700 m 0
 1372 807 1366 899 1355 975 c 0
 1344 1051 1321 1089 1287 1089 c 0
 1254 1089 1232 1051 1223 975 c 0
 1214 899 1210 807 1210 700 c 0
 1210 593 1214 501 1223 425 c 0
 1232 350 1254 312 1287 312 c 0
 1321 312 1344 350 1355 425 c 0
 1366 501 1372 593 1372 700 c 0
EndSplineSet
EndChar

StartChar: trademark
Encoding: 8482 8482 209
Width: 1587
Flags: MW
HStem: 784 90 1427 119
VStem: 329 157 1049 149<1008.5 1032 1032 1034> 1315 148<1004.5 1187.5>
LayerCount: 2
Fore
SplineSet
668 931 m 1
 666 904 l 1
 744 981 783 1035 783 1066 c 0
 783 1098 769 1145 742 1208 c 0
 697 1312 674 1372 674 1387 c 0
 674 1402 676 1415 680 1424 c 0
 699 1465 762 1495 902 1548 c 1
 924 1494 l 1
 879 1479 855 1461 850 1438 c 0
 849 1429 843 1406 868 1353 c 1
 995 1483 1059 1548 1059 1548 c 1
 1118 1508 1150 1470 1209 1441 c 1
 1308 1548 l 1
 1428 1482 l 2
 1468 1460 1510 1441 1553 1425 c 1
 1500 1388 1471 1324 1468 1234 c 2
 1463 1043 l 1
 1463 1032 l 2
 1463 977 1482 943 1520 931 c 1
 1441 777 l 1
 1345 813 1314 885 1314 1020 c 2
 1314 1034 l 1
 1315 1163 l 2
 1315 1212 1335 1262 1374 1315 c 1
 1307 1365 1257 1392 1225 1396 c 1
 1200 1357 1207 1305 1204 1234 c 2
 1198 1043 l 1
 1198 1032 l 2
 1198 970 1214 934 1245 923 c 1
 1129 777 l 1
 1104 810 1062 852 1005 901 c 1
 1025 925 1049 983 1049 1034 c 1
 1067 1351 l 1
 1038 1374 1019 1385 1009 1385 c 0
 999 1385 989 1383 980 1378 c 0
 971 1374 942 1348 894 1301 c 1
 923 1251 938 1207 938 1170 c 0
 938 1133 906 1072 841 985 c 1
 872 962 915 944 971 931 c 1
 888 777 l 1
 795 825 721 864 665 894 c 1
 665 861 l 1
 557 810 470 784 403 784 c 0
 337 784 284 796 244 820 c 0
 145 879 72 984 26 1137 c 1
 88 1224 168 1314 265 1407 c 1
 249 1420 232 1427 214 1427 c 0
 189 1427 135 1409 50 1374 c 1
 170 1562 l 1
 362 1541 524 1541 675 1562 c 1
 599 1378 l 1
 562 1394 524 1406 484 1415 c 1
 488 995 l 1
 430 988 375 965 322 928 c 1
 407 856 529 855 668 931 c 1
316 1353 m 1
 252 1292 220 1223 220 1146 c 0
 220 1079 243 1018 288 964 c 1
 311 988 324 1025 325 1076 c 0
 328 1183 329 1250 329 1277 c 0
 329 1304 325 1330 316 1353 c 1
EndSplineSet
EndChar

StartChar: uni2133
Encoding: 8499 8499 210
Width: 1597
Flags: MW
HStem: -23 109<255.5 306.5 255.5 332> -10 102<1316.5 1324 1316.5 1341.5>
VStem: 16 221<267.5 289.5> 696 170 1112 168<284.5 360>
LayerCount: 2
Fore
SplineSet
696 187 m 0x98
 696 275 716 400 756 561 c 1
 768 621 783 680 802 737 c 1
 765 650 731 563 684 459 c 1
 543 138 402 -23 262 -23 c 0
 207 -23 153 1 102 48 c 0
 45 102 16 168 16 247 c 0
 16 332 71 379 132 379 c 0
 202 379 237 346 237 279 c 0
 237 256 230 232 216 207 c 0
 199 176 190 154 190 139 c 0
 190 124 199 112 216 101 c 0
 233 91 249 86 262 86 c 0xb8
 351 86 462 231 597 520 c 1
 606 536 640 619 684 723 c 2
 830 1064 l 2
 878 1175 915 1253 940 1296 c 1
 951 1325 969 1352 992 1378 c 0
 1037 1430 1073 1456 1100 1456 c 0
 1111 1456 1120 1450 1129 1438 c 0
 1146 1415 1149 1393 1120 1356 c 1
 1071 1256 1010 1029 937 676 c 1
 922 584 905 492 893 413 c 0
 882 334 867 265 866 229 c 1
 881 260 897 301 912 350 c 1
 1009 610 1071 790 1116 891 c 1
 1205 1098 1296 1268 1389 1401 c 1
 1391 1412 1399 1424 1414 1437 c 0
 1429 1450 1444 1457 1457 1457 c 0
 1486 1457 1501 1442 1501 1411 c 0
 1501 1398 1498 1386 1493 1373 c 0
 1476 1334 1446 1219 1401 1028 c 0
 1357 837 1329 711 1316 650 c 0
 1292 535 1280 428 1280 330 c 0
 1280 239 1285 177 1294 143 c 0
 1304 109 1313 92 1320 92 c 0
 1328 92 1338 98 1349 110 c 0
 1364 125 1391 168 1432 240 c 1
 1432 236 l 1
 1433 249 1449 283 1479 336 c 1
 1479 334 l 1
 1486 356 1498 367 1517 367 c 0
 1552 367 1569 350 1569 315 c 0
 1569 297 1563 279 1550 260 c 1
 1513 168 1487 111 1472 90 c 0
 1425 23 1371 -10 1312 -10 c 0x58
 1179 -10 1112 88 1112 285 c 0
 1112 435 1148 627 1219 862 c 1
 1149 702 1073 505 991 272 c 0
 933 107 878 19 827 6 c 0
 816 3 810 2 807 2 c 0
 733 2 696 64 696 187 c 0x98
EndSplineSet
EndChar

StartChar: uni338F
Encoding: 13199 13199 211
Width: 2101
GlyphClass: 2
Flags: MW
HStem: -388 100<1393 1577.5 1393 1619.5> -18 174<1377 1392 1392 1451 1374 1610 1377 1377> 6 104 289 88<1433.5 1509> 731 221<1934 1967 1899.5 1986.5> 821 99<1439.5 1536.5 1439.5 1560.5> 831 96<516 590 516 1004 953 1001> 1347 106
VStem: 202 187<174 375 520 1277 1277 1305> 1067 172<-205.5 -144.5> 1110 142<196.5 206> 1137 185<551 651.5> 1672 192<552.5 619.5 552.5 677.5> 1792 152<-182.5 -92.5>
LayerCount: 2
Fore
SplineSet
1735 850 m 1xb594
 1744 859 1752 865 1757 867 c 1
 1755 867 l 1
 1815 924 1872 952 1927 952 c 0
 2007 952 2047 908 2047 821 c 0
 2047 761 2017 731 1956 731 c 0
 1912 731 1881 752 1864 795 c 1
 1866 795 l 1
 1857 803 1850 812 1845 822 c 1
 1841 821 1835 812 1804 791 c 1
 1827 760 1843 731 1851 704 c 0
 1860 677 1864 642 1864 597 c 0
 1864 508 1820 425 1747 372 c 0
 1671 317 1571 289 1447 289 c 0
 1370 289 1318 283 1291 271 c 0
 1265 260 1252 242 1252 217 c 0xd9a8
 1252 176 1293 156 1374 156 c 2
 1392 156 l 2
 1510 156 1593 158 1640 162 c 1
 1856 162 1944 92 1944 -80 c 0
 1944 -285 1782 -388 1457 -388 c 0
 1197 -388 1067 -320 1067 -184 c 0xd3c4
 1067 -105 1107 -50 1227 -6 c 1
 1176 10 1143 32 1128 60 c 0
 1116 81 1110 114 1110 160 c 0xb3a4
 1110 252 1151 321 1274 356 c 1
 1170 417 1137 501 1137 601 c 0
 1137 702 1178 781 1243 836 c 0
 1310 892 1391 920 1488 920 c 0
 1585 920 1667 897 1735 850 c 1xb594
1499 821 m 0
 1376 821 1322 750 1322 599 c 0
 1322 450 1371 377 1496 377 c 0
 1623 377 1672 443 1672 599 c 0xb598
 1672 756 1622 821 1499 821 c 0
1610 -18 m 2xd3c4
 1377 -18 l 1
 1285 -44 1239 -93 1239 -164 c 0
 1239 -247 1316 -288 1470 -288 c 0
 1685 -288 1792 -236 1792 -131 c 0
 1792 -54 1738 -18 1610 -18 c 2xd3c4
112 1347 m 2
 102 1347 l 1
 87 1346 l 1
 47 1346 l 1
 47 1442 l 1
 389 1464 l 1
 389 520 l 1
 516 643 557 684 608 732 c 1
 647 771 666 798 666 812 c 0
 666 819 646 831 590 831 c 2
 516 831 l 1
 516 927 l 1
 1004 927 l 1
 1001 831 l 1
 905 831 808 781 709 680 c 1
 622 597 l 1
 757 410 849 278 899 201 c 1
 938 144 998 114 1081 109 c 1
 1081 6 l 1
 594 6 l 1
 594 109 l 1
 657 111 l 2
 692 113 710 116 711 119 c 0
 712 123 713 127 715 131 c 1
 710 142 694 154 694 167 c 1
 621 272 561 364 485 471 c 1
 461 444 l 1
 436 420 417 396 389 375 c 1
 389 174 l 2
 389 127 400 112 440 111 c 1
 477 111 l 1
 530 109 l 1
 530 6 l 1
 57 6 l 1
 57 109 l 1
 152 111 l 2
 189 112 202 127 202 174 c 2xb394
 202 1277 l 2
 202 1333 181 1347 112 1347 c 2
EndSplineSet
Ligature2: "liga subtable" k afii301 g
EndChar

StartChar: uniA75B
Encoding: 42843 42843 212
Width: 658
Flags: MW
HStem: 21 1045<376 390>
VStem: 434 155<568.5 825.5>
LayerCount: 2
Fore
SplineSet
73 735 m 1
 376 1066 l 1
 523 978 589 892 589 759 c 0
 589 628 496 513 419 412 c 0
 402 390 395 378 395 355 c 0
 395 334 409 314 424 302 c 0
 443 286 477 266 552 223 c 1
 390 21 l 1
 294 101 249 143 161 218 c 1
 289 364 l 2
 370 455 434 536 434 601 c 0
 434 715 354 806 257 806 c 0
 209 806 160 766 121 699 c 1
 103 713 102 713 85 726 c 1
 79 729 77 731 73 735 c 1
EndSplineSet
Ligature2: "Ligature Substitution lookup 9 subtable" e t c period
EndChar

StartChar: uniF520
Encoding: 62752 62752 213
Width: 1071
Flags: MW
HStem: -381 100<367 551.5 367 594> -12 178<352 722> 0 21G 293 88<408.5 514.5> 737 217<907.5 941.5 871.5 959.5> 827 99<424 521 424 534.5>
VStem: 43 170<-199 -138.5> 82 145<201.5 202> 109 186<556.5 661> 647 187<579.5 624.5 579.5 682> 766 152<-176.5 -87.5>
LayerCount: 2
Fore
SplineSet
731 874 m 1xb4a0
 729 874 l 1xb4a0
 785 927 842 954 901 954 c 0
 982 954 1022 912 1022 827 c 0
 1022 767 991 737 928 737 c 0
 887 737 856 758 836 801 c 1
 838 801 l 1
 835 804 828 813 819 827 c 1
 795 815 788 805 780 805 c 1
 780 803 l 2
 780 800 779 799 776 799 c 1
 799 769 815 740 822 712 c 0
 830 684 834 647 834 602 c 0
 834 557 822 513 798 470 c 0
 732 352 607 293 422 293 c 0
 358 293 315 290 293 285 c 0
 249 274 227 252 227 221 c 0xd940
 227 182 267 162 348 162 c 2
 367 162 l 1
 614 166 l 1
 830 166 918 98 918 -74 c 0
 918 -279 756 -381 432 -381 c 0
 173 -381 43 -313 43 -178 c 0xd620
 43 -99 79 -44 199 0 c 1
 129 24 91 61 85 110 c 0
 83 127 82 152 82 185 c 0
 82 219 94 253 117 287 c 0xb520
 140 321 183 346 246 362 c 1
 155 418 109 501 109 612 c 0
 109 710 145 787 217 842 c 0
 290 898 375 926 473 926 c 0
 569 926 635 911 707 856 c 1
 716 865 724 871 731 874 c 1xb4a0
473 827 m 0
 350 827 295 757 295 605 c 0
 295 454 346 381 471 381 c 0
 596 381 647 448 647 604 c 0xb4c0
 647 760 596 827 473 827 c 0
582 -12 m 2xd620
 352 -12 l 1
 259 -38 213 -87 213 -158 c 0
 213 -240 290 -281 444 -281 c 0
 659 -281 766 -230 766 -127 c 0
 766 -48 713 -12 582 -12 c 2xd620
EndSplineSet
EndChar

StartChar: uniF522
Encoding: 62754 62754 214
Width: 2011
Flags: MW
HStem: -3 112<262 365> 250 162<992 1972 992 1972> 489 123<1216.5 1314.5> 504 96 972 308 1116 126<1225 1430 1229 1409> 1292 103<486 582 486 672>
VStem: 1069 152<889 1010> 1567 150<701 975 975 999.5>
LayerCount: 2
Fore
SplineSet
486 1395 m 2xd780
 582 1395 l 1
 676 1399 l 1
 727 1401 l 1
 772 1405 821 1407 872 1407 c 0
 899 1407 912 1395 912 1372 c 0
 912 1361 909 1350 903 1339 c 0
 898 1328 885 1304 866 1268 c 0
 827 1196 769 1082 694 941 c 1
 514 597 279 142 262 109 c 1
 700 109 l 1
 727 135 764 185 810 258 c 0
 856 332 881 374 885 384 c 0
 894 404 906 402 926 391 c 1
 944 377 l 1
 952 369 956 357 956 342 c 1
 952 331 945 310 936 279 c 2
 877 80 l 1
 859 12 l 2
 852 -12 833 -31 824 -31 c 0
 807 -31 793 -28 782 -23 c 1
 729 -10 590 -3 365 -3 c 2
 77 -3 l 2
 57 -3 31 -1 31 26 c 0
 31 53 35 73 43 84 c 0
 59 108 107 198 168 314 c 0
 294 550 471 900 580 1111 c 0
 637 1221 667 1281 672 1292 c 1
 334 1292 l 2
 319 1292 308 1286 299 1274 c 0xd780
 283 1251 249 1199 213 1140 c 0
 175 1079 148 1030 131 991 c 1
 112 951 84 985 72 991 c 1
 55 1008 58 1020 61 1027 c 1xdb80
 147 1372 l 1
 156 1398 167 1411 182 1411 c 0
 199 1411 226 1403 283 1399 c 1
 342 1396 414 1395 486 1395 c 2xd780
1062 668 m 2
 1062 811 l 2
 1062 852 1064 878 1069 889 c 1
 1069 1116 l 1
 992 1116 l 2
 964 1116 950 1129 950 1155 c 0
 950 1183 966 1189 986 1201 c 0
 1006 1213 1043 1250 1079 1290 c 0
 1119 1336 1144 1369 1153 1388 c 0
 1167 1417 1182 1432 1199 1432 c 0
 1234 1432 1237 1411 1237 1386 c 1
 1229 1242 l 1
 1430 1242 l 2
 1451 1242 1462 1234 1462 1217 c 0
 1462 1210 1461 1206 1460 1204 c 2
 1444 1149 l 1
 1440 1127 1428 1116 1409 1116 c 2
 1225 1116 l 1
 1222 1080 1221 1045 1221 1010 c 2xdb80
 1221 737 l 2
 1221 668 1235 627 1264 616 c 0
 1272 613 1282 612 1294 612 c 0
 1335 612 1363 618 1376 629 c 1
 1393 637 1401 640 1425 621 c 1
 1434 602 l 2
 1437 595 1439 586 1427 562 c 1
 1368 513 1305 489 1237 489 c 0
 1196 489 1155 507 1116 542 c 1
 1080 576 1062 618 1062 668 c 2
1497 497 m 1
 1482 497 l 2
 1463 497 1454 510 1454 535 c 2
 1454 562 l 2
 1454 591 1459 600 1491 600 c 2
 1552 600 l 2
 1561 600 1565 604 1565 612 c 0
 1566 639 1567 668 1567 701 c 2
 1567 975 l 2
 1567 1024 1559 1055 1543 1068 c 0
 1537 1073 1530 1077 1522 1082 c 2
 1492 1102 l 1
 1477 1107 1470 1117 1470 1132 c 2
 1470 1141 l 2
 1470 1155 1477 1166 1490 1174 c 0
 1518 1190 1553 1214 1588 1234 c 0
 1629 1258 1657 1270 1672 1270 c 0
 1701 1270 1705 1250 1710 1231 c 1
 1710 1161 l 1
 1773 1240 1832 1280 1887 1280 c 1
 1989 1285 2017 1166 1959 1110 c 0
 1939 1091 1920 1081 1902 1081 c 0
 1885 1081 1869 1086 1854 1095 c 0
 1839 1105 1825 1110 1811 1110 c 0xe780
 1779 1110 1753 1090 1732 1049 c 1
 1722 1027 1717 1012 1717 1004 c 2
 1717 647 l 2
 1717 616 1725 600 1742 600 c 2
 1815 600 l 2
 1842 600 1845 586 1845 562 c 2
 1845 535 l 2
 1845 510 1836 497 1819 497 c 2
 1796 497 l 1
 1765 502 1717 504 1652 504 c 1
 1497 497 l 1
992 250 m 1
 992 412 l 1
 1972 412 l 1
 1972 250 l 1
 992 250 l 1
EndSplineSet
EndChar

StartChar: uniFB00
Encoding: 64256 64256 215
Width: 979
GlyphClass: 2
Flags: MW
HStem: 880 178<295 564 284 576 295 295 756 908 756 756>
VStem: 117 178<592.5 880> 578 178<592.5 880>
LayerCount: 2
Fore
SplineSet
487 1231 m 1
 437 1261 345 1287 278 1295 c 1
 232 1223 l 1
 245 1196 277 1098 284 1058 c 1
 564 1058 l 1
 555 1094 539 1129 513 1154 c 1
 629 1279 666 1331 782 1455 c 1
 906 1440 953 1428 1088 1401 c 1
 1036 1329 1003 1286 953 1231 c 1
 903 1261 806 1287 739 1295 c 1
 693 1223 l 1
 706 1196 738 1098 745 1058 c 1
 908 1058 l 1
 908 880 l 1
 756 880 l 1
 756 755 750 570 747 458 c 0
 744 331 701 78 521 -364 c 1
 503 -354 492 -354 472 -346 c 1
 519 -198 550 -79 564 183 c 0
 574 372 578 530 578 655 c 0
 578 735 577 810 576 880 c 1
 295 880 l 1
 295 755 289 570 286 458 c 0
 283 331 240 78 60 -364 c 1
 42 -354 31 -354 11 -346 c 1
 58 -198 89 -79 103 183 c 0
 113 372 117 530 117 655 c 0
 117 780 115 892 113 991 c 0
 111 1045 95 1113 52 1154 c 1
 168 1279 205 1331 321 1455 c 1
 445 1440 487 1428 622 1401 c 1
 570 1329 537 1286 487 1231 c 1
EndSplineSet
Ligature2: "liga subtable" f f
Ligature2: "ccmp subtable" f afii301 f
EndChar

StartChar: uniFB01
Encoding: 64257 64257 216
Width: 844
GlyphClass: 2
Flags: MW
HStem: 880 178<295 295 295 512>
VStem: 117 178<592.5 880> 530 183<301.5 333 333 342 301.5 813>
LayerCount: 2
Fore
SplineSet
673 1381 m 1
 865 1341 l 1
 713 1167 l 1
 569 1209 l 1
 673 1381 l 1
295 880 m 1
 295 755 289 570 286 458 c 0
 283 331 240 78 60 -364 c 1
 42 -354 31 -354 11 -346 c 1
 58 -198 89 -79 103 183 c 0
 113 372 117 530 117 655 c 0
 117 780 115 892 113 991 c 0
 111 1045 95 1113 52 1154 c 1
 168 1279 205 1331 321 1455 c 1
 445 1440 481 1430 616 1403 c 1
 498 1227 l 1
 449 1251 345 1287 278 1295 c 1
 232 1223 l 1
 245 1196 277 1098 284 1058 c 1
 625 1058 l 1
 767 955 l 1
 753 930 721 892 717 857 c 1
 713 342 l 1
 713 333 l 2
 713 270 735 231 787 210 c 1
 634 31 l 1
 486 155 l 1
 525 201 530 232 530 278 c 2
 530 813 l 2
 530 835 525 868 512 880 c 1
 295 880 l 1
EndSplineSet
Ligature2: "liga subtable" f i
Ligature2: "ccmp subtable" f afii301 i
EndChar

StartChar: uniFB02
Encoding: 64258 64258 217
Width: 842
GlyphClass: 2
Flags: MW
HStem: 880 178<295 447 295 295>
VStem: 117 178<592.5 880> 527 174
LayerCount: 2
Fore
SplineSet
522 1231 m 1
 472 1261 345 1287 278 1295 c 1
 232 1223 l 1
 245 1196 277 1098 284 1058 c 1
 447 1058 l 1
 447 880 l 1
 295 880 l 1
 295 755 289 570 286 458 c 0
 283 331 240 78 60 -364 c 1
 42 -354 31 -354 11 -346 c 1
 58 -198 89 -79 103 183 c 0
 113 372 117 530 117 655 c 0
 117 780 115 892 113 991 c 0
 111 1045 95 1113 52 1154 c 1
 168 1279 205 1331 321 1455 c 1
 399 1445 477 1437 536 1425 c 1
 740 1535 l 1
 704 1375 705 1201 704 1024 c 2
 698 341 l 1
 696 269 712 249 773 210 c 1
 619 25 l 1
 539 90 514 109 463 147 c 1
 496 192 523 221 525 282 c 1
 527 1089 l 2
 527 1131 527 1182 523 1232 c 1
 522 1231 l 1
EndSplineSet
Ligature2: "liga subtable" f l
Ligature2: "ccmp subtable" f afii301 l
EndChar

StartChar: uniFB03
Encoding: 64259 64259 218
Width: 1306
GlyphClass: 2
Flags: MW
HStem: 880 178<295 564 284 576 295 295 756 973 756 756>
VStem: 117 178<592.5 880> 578 178<592.5 880> 991 183<301.5 333 333 342 301.5 813>
LayerCount: 2
Fore
SplineSet
1134 1381 m 1
 1326 1341 l 1
 1174 1167 l 1
 1030 1209 l 1
 1134 1381 l 1
487 1231 m 1
 437 1261 345 1287 278 1295 c 1
 232 1223 l 1
 245 1196 277 1098 284 1058 c 1
 564 1058 l 1
 555 1094 539 1129 513 1154 c 1
 629 1279 666 1331 782 1455 c 1
 906 1440 942 1430 1077 1403 c 1
 959 1227 l 1
 910 1251 806 1287 739 1295 c 1
 693 1223 l 1
 706 1196 738 1098 745 1058 c 1
 1086 1058 l 1
 1228 955 l 1
 1214 930 1182 892 1178 857 c 1
 1174 342 l 1
 1174 333 l 2
 1174 270 1196 231 1248 210 c 1
 1095 31 l 1
 947 155 l 1
 986 201 991 232 991 278 c 2
 991 813 l 2
 991 835 986 868 973 880 c 1
 756 880 l 1
 756 755 750 570 747 458 c 0
 744 331 701 78 521 -364 c 1
 503 -354 492 -354 472 -346 c 1
 519 -198 550 -79 564 183 c 0
 574 372 578 530 578 655 c 0
 578 735 577 810 576 880 c 1
 295 880 l 1
 295 755 289 570 286 458 c 0
 283 331 240 78 60 -364 c 1
 42 -354 31 -354 11 -346 c 1
 58 -198 89 -79 103 183 c 0
 113 372 117 530 117 655 c 0
 117 780 115 892 113 991 c 0
 111 1045 95 1113 52 1154 c 1
 168 1279 205 1331 321 1455 c 1
 445 1440 487 1428 622 1401 c 1
 570 1329 537 1286 487 1231 c 1
EndSplineSet
Ligature2: "liga subtable" f f i
Ligature2: "ccmp subtable" f afii301 f afii301 i
EndChar

StartChar: uniFB04
Encoding: 64260 64260 219
Width: 1314
GlyphClass: 2
Flags: MW
HStem: 880 178<295 295 295 564 284 576 756 756 756 908>
VStem: 117 178<592.5 880> 578 178<592.5 880> 998 169
LayerCount: 2
Fore
SplineSet
295 880 m 1
 295 755 289 570 286 458 c 0
 283 331 240 78 60 -364 c 1
 42 -354 31 -354 11 -346 c 1
 58 -198 89 -79 103 183 c 0
 113 372 117 530 117 655 c 0
 117 780 115 892 113 991 c 0
 111 1045 95 1113 52 1154 c 1
 168 1279 205 1331 321 1455 c 1
 445 1440 487 1428 622 1401 c 1
 570 1329 537 1286 487 1231 c 1
 437 1261 345 1287 278 1295 c 1
 232 1223 l 1
 245 1196 277 1098 284 1058 c 1
 564 1058 l 1
 555 1094 539 1129 513 1154 c 1
 629 1279 666 1331 782 1455 c 1
 860 1445 948 1437 1007 1425 c 1
 1211 1535 l 1
 1175 1375 1166 1201 1165 1024 c 1
 1169 341 l 1
 1167 269 1183 249 1244 210 c 1
 1090 25 l 1
 1010 90 985 109 934 147 c 1
 967 192 994 221 996 282 c 1
 998 1089 l 2
 998 1131 998 1182 994 1232 c 1
 993 1231 l 1
 943 1261 806 1287 739 1295 c 1
 693 1223 l 1
 706 1196 738 1098 745 1058 c 1
 908 1058 l 1
 908 880 l 1
 756 880 l 1
 756 755 750 570 747 458 c 0
 744 331 701 78 521 -364 c 1
 503 -354 492 -354 472 -346 c 1
 519 -198 550 -79 564 183 c 0
 574 372 578 530 578 655 c 0
 578 735 577 810 576 880 c 1
 295 880 l 1
EndSplineSet
Ligature2: "liga subtable" f f l
Ligature2: "ccmp subtable" f afii301 f afii301 l
EndChar

StartChar: uniFB05
Encoding: 64261 64261 220
Width: 909
GlyphClass: 2
Flags: MW
HStem: 880 179<450 896 712 896 715 896 715 896>
VStem: 117 178<592.5 928> 537 175
LayerCount: 2
Fore
SplineSet
823 194 m 1
 670 31 l 1
 602 87 519 153 478 187 c 1
 523 232 534 257 535 339 c 2
 539 880 l 1
 450 880 l 1
 450 929 l 1
 501 1002 557 1092 613 1183 c 1
 514 1229 383 1270 278 1295 c 1
 232 1223 l 1
 283 1120 295 976 295 880 c 0
 295 755 289 570 286 458 c 0
 283 331 240 78 60 -364 c 1
 42 -354 31 -354 11 -346 c 1
 58 -198 89 -79 103 183 c 0
 113 372 117 530 117 655 c 0
 117 780 115 892 113 991 c 0
 111 1045 95 1113 52 1154 c 1
 168 1279 205 1331 321 1455 c 1
 434 1445 608 1404 725 1362 c 1
 761 1415 l 1
 793 1407 l 1
 766 1306 725 1150 715 1059 c 1
 896 1059 l 1
 896 880 l 1
 712 880 l 1
 712 335 l 2
 712 260 730 252 823 194 c 1
EndSplineSet
Ligature2: "liga subtable" longs t
Ligature2: "ccmp subtable" longs afii301 t
Ligature2: "ccmp subtable" longs t
EndChar

StartChar: longs_c_h
Encoding: 65538 -1 221
Width: 1521
GlyphClass: 2
Flags: MW
HStem: -364 1860
VStem: 117 178<592.5 928> 394 130<621.5 661> 842 176<335 353 353 760 760 760> 1293 143<308 384.5>
LayerCount: 2
Fore
SplineSet
760 1177 m 1
 710 1207 410 1292 284 1301 c 1
 232 1223 l 1
 283 1120 295 976 295 880 c 0
 295 755 289 570 286 458 c 0
 283 331 240 78 60 -364 c 1
 42 -354 31 -354 11 -346 c 1
 58 -198 89 -79 103 183 c 0
 113 372 117 530 117 655 c 0
 117 780 115 892 113 991 c 0
 111 1045 95 1113 52 1154 c 1
 168 1279 205 1331 321 1455 c 1
 451 1441 766 1360 906 1356 c 0
 1030 1353 1127 1410 1266 1496 c 1
 1323 1450 l 1
 1116 1338 1028 1216 1019 931 c 1
 1188 1080 l 1
 1369 898 1436 681 1436 469 c 0
 1436 147 1282 -164 1140 -330 c 1
 1051 -294 l 1
 1209 -131 1293 73 1293 286 c 0
 1293 483 1222 687 1072 874 c 1
 1018 831 l 1
 1018 353 l 2
 1018 246 1034 239 1117 190 c 1
 963 15 l 1
 896 55 838 129 794 165 c 1
 672 29 l 1
 419 225 394 349 394 578 c 0
 394 744 473 888 692 1092 c 1
 844 997 l 1
 844 1030 l 2
 844 1101 834 1168 801 1220 c 1
 760 1177 l 1
653 317 m 0
 681 290 707 276 734 276 c 0
 766 276 799 295 842 335 c 1
 842 760 l 1
 747 820 688 882 635 882 c 0
 568 882 524 745 524 694 c 0
 524 549 546 421 653 317 c 0
EndSplineSet
Ligature2: "liga subtable" longs c h
Ligature2: "liga subtable" longs c_h
Ligature2: "ccmp subtable" longs afii301 c afii301 h
EndChar

StartChar: longs_s
Encoding: 65539 -1 222
Width: 1117
GlyphClass: 2
Flags: MW
HStem: -364 1819
VStem: 117 178<592.5 928> 421 159
LayerCount: 2
Fore
SplineSet
492 1231 m 1
 442 1261 345 1287 278 1295 c 1
 232 1223 l 1
 283 1120 295 976 295 880 c 0
 295 755 289 570 286 458 c 0
 283 331 240 78 60 -364 c 1
 42 -354 31 -354 11 -346 c 1
 58 -198 89 -79 103 183 c 0
 113 372 117 530 117 655 c 0
 117 780 115 892 113 991 c 0
 111 1045 95 1113 52 1154 c 1
 168 1279 205 1331 321 1455 c 1
 445 1440 492 1428 627 1401 c 1
 575 1329 542 1286 492 1231 c 1
812 245 m 0
 848 245 885 275 885 323 c 0
 885 360 859 421 755 591 c 1
 580 379 l 1
 681 321 756 245 812 245 c 0
381 262 m 1
 518 408 l 1
 476 480 432 665 421 785 c 1
 485 888 571 968 706 1079 c 1
 808 1045 880 986 1017 953 c 1
 1063 950 l 1
 886 738 l 1
 1062 396 l 1
 960 303 844 175 759 31 c 1
 652 108 537 215 381 262 c 1
648 585 m 1
 839 799 l 1
 726 873 662 899 626 899 c 0
 585 899 580 866 580 832 c 0
 580 764 600 675 648 585 c 1
EndSplineSet
Ligature2: "liga subtable" longs s
Ligature2: "ccmp subtable" longs afii301 s
EndChar

StartChar: t_z
Encoding: 65540 -1 223
Width: 896
GlyphClass: 2
Flags: MW
HStem: 880 171
VStem: 129 175 300 33 687 153<183 226>
LayerCount: 2
Fore
SplineSet
415 194 m 1xd0
 262 31 l 1
 194 87 111 153 70 187 c 1
 115 232 126 257 127 339 c 2
 131 880 l 1
 42 880 l 1
 42 929 l 1xd0
 133 1059 194 1153 333 1360 c 1
 365 1352 l 1
 338 1251 317 1150 307 1059 c 1
 462 1046 596 1050 766 1064 c 1
 799 1005 l 1
 626 739 l 1
 789 580 840 476 840 316 c 0
 840 50 651 -236 301 -428 c 1xb0
 300 -375 300 -341 300 -323 c 1
 452 -254 687 -66 687 149 c 0
 687 303 646 429 440 544 c 1
 610 880 l 1
 304 880 l 1
 304 335 l 2
 304 260 322 252 415 194 c 1xd0
EndSplineSet
Ligature2: "liga subtable" t z
Ligature2: "ccmp subtable" t afii301 z
Ligature2: "ccmp subtable" t z
EndChar

StartChar: f_t
Encoding: 65541 -1 224
Width: 908
GlyphClass: 2
Flags: MW
HStem: 880 178<295 532 284 533 295 295 284 706 284 890>
VStem: 117 178<592.5 880> 531 175
LayerCount: 2
Fore
SplineSet
817 194 m 1
 664 31 l 1
 596 87 513 153 472 187 c 1
 517 232 528 257 529 339 c 2
 533 880 l 1
 295 880 l 1
 295 755 289 570 286 458 c 0
 283 331 240 78 60 -364 c 1
 42 -354 31 -354 11 -346 c 1
 58 -198 89 -79 103 183 c 0
 113 372 117 530 117 655 c 0
 117 780 115 892 113 991 c 0
 111 1045 95 1113 52 1154 c 1
 168 1279 205 1331 321 1455 c 1
 445 1440 492 1428 627 1401 c 1
 575 1329 542 1286 492 1231 c 1
 442 1261 345 1287 278 1295 c 1
 232 1223 l 1
 245 1196 277 1098 284 1058 c 1
 532 1058 l 1
 587 1138 644 1225 735 1360 c 1
 767 1352 l 1
 740 1251 719 1150 709 1059 c 1
 890 1059 l 1
 890 880 l 1
 706 880 l 1
 706 335 l 2
 706 260 724 252 817 194 c 1
EndSplineSet
Ligature2: "liga subtable" f t
Ligature2: "ccmp subtable" f afii301 t
EndChar

StartChar: longs_longs
Encoding: 65542 -1 225
Width: 974
GlyphClass: 2
Flags: MW
HStem: -364 1819
VStem: 117 178<592.5 928> 559 178<592.5 928>
LayerCount: 2
Fore
SplineSet
934 1231 m 1
 884 1261 787 1287 720 1295 c 1
 674 1223 l 1
 725 1120 737 976 737 880 c 0
 737 755 731 570 728 458 c 0
 725 331 682 78 502 -364 c 1
 484 -354 473 -354 453 -346 c 1
 500 -198 531 -79 545 183 c 0
 555 372 559 530 559 655 c 0
 559 780 557 892 555 991 c 0
 553 1045 537 1113 494 1154 c 1
 549 1214 l 1
 479 1245 338 1288 278 1295 c 1
 232 1223 l 1
 283 1120 295 976 295 880 c 0
 295 755 289 570 286 458 c 0
 283 331 240 78 60 -364 c 1
 42 -354 31 -354 11 -346 c 1
 58 -198 89 -79 103 183 c 0
 113 372 117 530 117 655 c 0
 117 780 115 892 113 991 c 0
 111 1045 95 1113 52 1154 c 1
 168 1279 205 1331 321 1455 c 1
 441 1440 577 1402 691 1376 c 1
 712 1400 735 1425 763 1455 c 1
 887 1440 934 1428 1069 1401 c 1
 1017 1329 984 1286 934 1231 c 1
EndSplineSet
Ligature2: "liga subtable" longs longs
Ligature2: "ccmp subtable" longs afii301 longs
EndChar

StartChar: longs_i
Encoding: 65543 -1 226
Width: 834
GlyphClass: 2
Flags: MW
HStem: -364 1819
VStem: 117 178<592.5 928> 520 183<301.5 333 333 342 301.5 813>
LayerCount: 2
Fore
SplineSet
607 1403 m 1
 488 1227 l 1
 438 1257 345 1287 278 1295 c 1
 232 1223 l 1
 283 1120 295 976 295 880 c 0
 295 755 289 570 286 458 c 0
 283 331 240 78 60 -364 c 1
 42 -354 31 -354 11 -346 c 1
 58 -198 89 -79 103 183 c 0
 113 372 117 530 117 655 c 0
 117 780 115 892 113 991 c 0
 111 1045 95 1113 52 1154 c 1
 168 1279 205 1331 321 1455 c 1
 445 1440 472 1430 607 1403 c 1
436 917 m 1
 587 1088 l 1
 757 955 l 1
 743 930 711 892 707 857 c 1
 703 342 l 1
 703 333 l 2
 703 270 725 231 777 210 c 1
 624 31 l 1
 476 155 l 1
 515 201 520 232 520 278 c 2
 520 813 l 2
 520 845 505 874 436 917 c 1
664 1381 m 1
 855 1341 l 1
 703 1167 l 1
 559 1209 l 1
 664 1381 l 1
EndSplineSet
Ligature2: "liga subtable" longs i
Ligature2: "ccmp subtable" longs afii301 i
EndChar

StartChar: c_k
Encoding: 65544 -1 227
Width: 974
GlyphClass: 2
Flags: MW
HStem: 754 181<505 726 682 726 791 858 682 726>
VStem: 33 153<425 719.5> 506 174
LayerCount: 2
Fore
SplineSet
757 195 m 1
 608 19 l 1
 533 71 498 117 451 160 c 1
 334 29 l 1
 123 201 33 349 33 501 c 0
 33 680 157 882 354 1092 c 1
 506 999 l 1
 507 1080 l 1
 507 1128 l 2
 507 1242 502 1334 470 1387 c 1
 719 1511 l 1
 696 1451 685 1324 682 1237 c 1
 850 1416 l 1
 914 1347 967 1277 1016 1202 c 1
 791 935 l 1
 952 935 l 1
 858 754 l 1
 682 754 l 1
 678 319 l 2
 677 241 705 229 757 195 c 1
315 317 m 0
 343 289 368 275 395 275 c 0
 428 275 463 296 507 340 c 1
 505 754 l 1
 504 760 l 1
 411 819 349 882 297 882 c 0
 230 882 186 745 186 694 c 0
 186 549 208 421 315 317 c 0
766 1223 m 1
 684 1166 l 1
 683 1140 682 1120 682 1094 c 2
 682 935 l 1
 726 935 l 1
 870 1100 l 1
 847 1172 801 1199 766 1223 c 1
EndSplineSet
Ligature2: "liga subtable" c k
Ligature2: "ccmp subtable" c afii301 k
Ligature2: "ccmp subtable" c k
EndChar

StartChar: c_h
Encoding: 65545 -1 228
Width: 1183
GlyphClass: 2
Flags: MW
HStem: -330 1826<802 928>
VStem: 45 141<621.5 627> 504 176<335 353 353 760 760 760> 955 143<308 384.5>
LayerCount: 2
Fore
SplineSet
779 190 m 1
 625 15 l 1
 558 55 500 129 456 165 c 1
 334 29 l 1
 139 195 45 364 45 536 c 0
 45 718 150 904 354 1092 c 1
 506 997 l 1
 506 1030 l 2
 506 1146 468 1235 373 1304 c 1
 398 1344 l 1
 411 1343 424 1343 438 1343 c 0
 661 1343 738 1378 928 1496 c 1
 985 1450 l 1
 778 1338 690 1216 681 931 c 1
 850 1080 l 1
 1031 898 1098 681 1098 469 c 0
 1098 147 944 -164 802 -330 c 1
 713 -294 l 1
 871 -131 955 73 955 286 c 0
 955 483 884 687 734 874 c 1
 680 831 l 1
 680 353 l 2
 680 246 696 239 779 190 c 1
315 317 m 0
 343 290 369 276 396 276 c 0
 428 276 461 295 504 335 c 1
 504 760 l 1
 409 820 350 882 297 882 c 0
 230 882 186 745 186 694 c 0
 186 549 208 421 315 317 c 0
EndSplineSet
Ligature2: "liga subtable" c h
Ligature2: "ccmp subtable" c afii301 h
Ligature2: "ccmp subtable" c h
EndChar

StartChar: t_t
Encoding: 65546 -1 229
Width: 946
GlyphClass: 2
Flags: MW
HStem: 880 179<42 564 307 564 307 564 304 564 307 737 740 921>
VStem: 129 175 562 175
LayerCount: 2
Fore
SplineSet
848 194 m 1
 695 31 l 1
 627 87 544 153 503 187 c 1
 548 232 559 257 560 339 c 2
 564 880 l 1
 304 880 l 1
 304 335 l 2
 304 260 322 252 415 194 c 1
 262 31 l 1
 194 87 111 153 70 187 c 1
 115 232 126 257 127 339 c 2
 131 880 l 1
 42 880 l 1
 42 929 l 1
 133 1059 194 1153 333 1360 c 1
 365 1352 l 1
 338 1251 317 1150 307 1059 c 1
 564 1059 l 1
 766 1360 l 1
 798 1352 l 1
 771 1251 750 1150 740 1059 c 1
 921 1059 l 1
 921 880 l 1
 737 880 l 1
 737 335 l 2
 737 260 755 252 848 194 c 1
EndSplineSet
Ligature2: "liga subtable" t t
Ligature2: "ccmp subtable" t afii301 t
EndChar

StartChar: longs_longs_t
Encoding: 65547 -1 230
Width: 1460
GlyphClass: 2
Flags: MW
HStem: 880 179<872 1318 1134 1318 1137 1318 1137 1318>
VStem: 117 178<592.5 928> 549 178<592.5 928> 959 175
LayerCount: 2
Fore
SplineSet
1245 194 m 1
 1092 31 l 1
 900 187 l 1
 945 232 956 257 957 339 c 2
 961 880 l 1
 872 880 l 1
 872 929 l 1
 923 1002 979 1092 1035 1183 c 1
 936 1229 815 1270 710 1295 c 1
 664 1223 l 1
 715 1120 727 976 727 880 c 0
 727 755 721 570 718 458 c 0
 715 331 672 78 492 -364 c 1
 474 -354 463 -354 443 -346 c 1
 490 -198 521 -79 535 183 c 0
 545 372 549 530 549 655 c 0
 549 780 547 892 545 991 c 0
 543 1045 527 1113 484 1154 c 1
 539 1214 l 1
 469 1245 338 1288 278 1295 c 1
 232 1223 l 1
 283 1120 295 976 295 880 c 0
 295 755 289 570 286 458 c 0
 283 331 240 78 60 -364 c 1
 42 -354 31 -354 11 -346 c 1
 58 -198 89 -79 103 183 c 0
 113 372 117 530 117 655 c 0
 117 780 115 892 113 991 c 0
 111 1045 95 1113 52 1154 c 1
 168 1279 205 1331 321 1455 c 1
 441 1440 567 1402 681 1376 c 1
 753 1455 l 1
 866 1445 1030 1404 1147 1362 c 1
 1183 1415 l 1
 1215 1407 l 1
 1188 1306 1147 1150 1137 1059 c 1
 1318 1059 l 1
 1318 880 l 1
 1134 880 l 1
 1134 335 l 2
 1134 260 1152 252 1245 194 c 1
EndSplineSet
Ligature2: "liga subtable" longs longs t
Ligature2: "ccmp subtable" longs afii301 longs afii301 t
EndChar

StartChar: f_f_t
Encoding: 65548 -1 231
Width: 1379
GlyphClass: 2
Flags: MW
HStem: 880 178<295 564 284 576 295 295 756 993 756 756>
VStem: 117 178<592.5 880> 578 178<592.5 880> 992 175
LayerCount: 2
Fore
SplineSet
487 1231 m 1
 437 1261 345 1287 278 1295 c 1
 232 1223 l 1
 245 1196 277 1098 284 1058 c 1
 564 1058 l 1
 555 1094 539 1129 513 1154 c 1
 629 1279 666 1331 782 1455 c 1
 906 1440 953 1428 1088 1401 c 1
 1036 1329 1003 1286 953 1231 c 1
 903 1261 806 1287 739 1295 c 1
 693 1223 l 1
 706 1196 738 1098 745 1058 c 1
 993 1058 l 1
 1048 1138 1105 1225 1196 1360 c 1
 1228 1352 l 1
 1201 1251 1180 1150 1170 1059 c 1
 1351 1059 l 1
 1351 880 l 1
 1167 880 l 1
 1167 335 l 2
 1167 260 1185 252 1278 194 c 1
 1125 31 l 1
 933 187 l 1
 978 232 989 257 990 339 c 2
 994 880 l 1
 756 880 l 1
 756 755 750 570 747 458 c 0
 744 331 701 78 521 -364 c 1
 503 -354 492 -354 472 -346 c 1
 519 -198 550 -79 564 183 c 0
 574 372 578 530 578 655 c 0
 578 735 577 810 576 880 c 1
 295 880 l 1
 295 755 289 570 286 458 c 0
 283 331 240 78 60 -364 c 1
 42 -354 31 -354 11 -346 c 1
 58 -198 89 -79 103 183 c 0
 113 372 117 530 117 655 c 0
 117 780 115 892 113 991 c 0
 111 1045 95 1113 52 1154 c 1
 168 1279 205 1331 321 1455 c 1
 445 1440 487 1428 622 1401 c 1
 570 1329 537 1286 487 1231 c 1
EndSplineSet
Ligature2: "liga subtable" f f t
Ligature2: "ccmp subtable" f afii301 f afii301 t
EndChar

StartChar: l_l
Encoding: 65549 -1 232
Width: 818
GlyphClass: 2
Flags: MW
HStem: 160 49<371.5 382 366.5 385.5>
VStem: 85 174 504 174
LayerCount: 2
Fore
SplineSet
750 210 m 1
 596 25 l 1
 427 142 l 2
 407 155 392 160 379 160 c 0
 364 160 352 154 339 145 c 2
 177 25 l 1
 97 90 72 109 21 147 c 1
 54 192 81 221 83 282 c 1
 85 1089 l 2
 85 1187 84 1332 35 1394 c 1
 298 1535 l 1
 262 1375 263 1201 262 1024 c 2
 256 344 l 1
 254 289 291 254 336 224 c 0
 344 219 357 209 376 209 c 0
 388 209 403 213 420 225 c 0
 464 255 502 294 502 344 c 2
 504 1089 l 2
 504 1187 513 1332 464 1394 c 1
 717 1535 l 1
 681 1375 682 1201 681 1024 c 2
 675 341 l 1
 673 269 689 249 750 210 c 1
EndSplineSet
Ligature2: "liga subtable" l l
Ligature2: "ccmp subtable" l afii301 l
EndChar

StartChar: m_uni0304
Encoding: 65550 -1 233
Width: 1193
GlyphClass: 2
Flags: MW
HStem: 1211 106<49 1048 49 1048>
VStem: 120 168 492 171<295.5 334 295.5 766> 853 181<209.5 335>
LayerCount: 2
Fore
SplineSet
278 948 m 1
 278 947 l 1
 412 1080 l 1
 640 928 l 1
 770 1080 l 1
 1084 864 l 1
 1049 769 l 1
 1034 335 l 1
 1034 254 1057 238 1127 197 c 1
 985 31 l 1
 869 106 853 137 853 282 c 1
 860 747 l 2
 860 774 798 813 708 878 c 1
 672 823 l 1
 663 334 l 1
 663 257 687 225 754 197 c 1
 601 18 l 1
 433 155 l 1
 471 200 491 235 492 282 c 1
 492 766 l 2
 492 786 411 844 333 887 c 1
 289 828 l 1
 288 335 l 2
 288 264 317 226 363 210 c 1
 210 31 l 1
 58 155 l 1
 96 201 111 236 112 282 c 2
 120 794 l 2
 120 826 58 871 10 903 c 1
 128 1063 l 1
 278 948 l 1
1048 1211 m 1
 49 1211 l 1
 49 1317 l 1
 1048 1317 l 1
 1048 1211 l 1
EndSplineSet
Ligature2: "dlig subtable" m m
Ligature2: "ccmp subtable" m afii301 m
EndChar

StartChar: n_uni0304
Encoding: 65551 -1 234
Width: 818
GlyphClass: 2
Flags: MW
HStem: 1211 106<49 689 49 689>
VStem: 116 172<298.5 329 329 335 298.5 797> 492 174
LayerCount: 2
Fore
SplineSet
689 1211 m 1
 49 1211 l 1
 49 1317 l 1
 689 1317 l 1
 689 1211 l 1
133 1063 m 1
 283 947 l 1
 407 1083 l 1
 711 860 l 1
 681 769 l 1
 666 325 l 1
 666 319 l 2
 666 243 708 234 759 197 c 1
 617 31 l 1
 516 95 485 108 485 259 c 2
 485 280 l 1
 492 747 l 2
 492 775 401 844 333 887 c 1
 297 833 l 1
 288 335 l 1
 288 329 l 2
 288 268 310 240 363 210 c 1
 210 31 l 1
 58 155 l 1
 96 201 116 236 116 282 c 2
 116 797 l 2
 116 829 61 873 12 905 c 1
 133 1063 l 1
EndSplineSet
Ligature2: "dlig subtable" n n
Ligature2: "ccmp subtable" n afii301 n
EndChar

StartChar: longs_j
Encoding: 65552 -1 235
Width: 858
GlyphClass: 2
Flags: MW
HStem: -368 1823
VStem: 117 178<592.5 928> 532 184<813 829>
LayerCount: 2
Fore
SplineSet
674 1381 m 1
 865 1341 l 1
 713 1167 l 1
 569 1209 l 1
 674 1381 l 1
607 1403 m 1
 488 1227 l 1
 438 1257 345 1287 278 1295 c 1
 232 1223 l 1
 283 1120 295 976 295 880 c 0
 295 755 289 570 286 458 c 0
 283 331 240 78 60 -364 c 1
 42 -354 31 -354 11 -346 c 1
 58 -198 89 -79 103 183 c 0
 113 372 117 530 117 655 c 0
 117 780 115 892 113 991 c 0
 111 1045 95 1113 52 1154 c 1
 168 1279 205 1331 321 1455 c 1
 445 1440 472 1430 607 1403 c 1
452 913 m 1
 586 1080 l 1
 766 992 l 1
 736 924 716 911 716 759 c 0
 716 700 715 517 714 460 c 0
 712 338 683 136 477 -368 c 1
 459 -358 436 -349 428 -346 c 1
 497 -107 527 29 529 352 c 2
 532 813 l 2
 532 845 511 869 452 913 c 1
EndSplineSet
EndChar

StartChar: longs_k
Encoding: 65553 -1 236
Width: 1016
GlyphClass: 2
Flags: MW
HStem: 754 181<452 749 705 749 705 749 814 881>
VStem: 117 178<592.5 928> 530 173
LayerCount: 2
Fore
SplineSet
780 195 m 1
 631 19 l 1
 555 72 515 103 467 147 c 1
 495 169 530 232 530 282 c 2
 528 754 l 1
 452 754 l 1
 529 899 l 1
 530 1080 l 2
 530 1127 530 1172 529 1213 c 1
 459 1244 338 1288 278 1295 c 1
 232 1223 l 1
 283 1120 295 976 295 880 c 0
 295 755 289 570 286 458 c 0
 283 331 240 78 60 -364 c 1
 42 -354 31 -354 11 -346 c 1
 58 -198 89 -79 103 183 c 0
 113 372 117 530 117 655 c 0
 117 780 115 892 113 991 c 0
 111 1045 95 1113 52 1154 c 1
 168 1279 205 1331 321 1455 c 1
 397 1445 456 1426 533 1407 c 1
 742 1511 l 1
 719 1451 708 1324 705 1237 c 1
 873 1416 l 1
 937 1347 990 1277 1039 1202 c 1
 814 935 l 1
 975 935 l 1
 881 754 l 1
 705 754 l 1
 701 319 l 2
 700 242 728 229 780 195 c 1
766 1223 m 1
 707 1166 l 1
 706 1140 705 1120 705 1094 c 2
 705 935 l 1
 749 935 l 1
 870 1100 l 1
 847 1172 801 1199 766 1223 c 1
EndSplineSet
Ligature2: "liga subtable" longs k
Ligature2: "ccmp subtable" longs afii301 k
EndChar

StartChar: longs_h
Encoding: 65554 -1 237
Width: 1214
GlyphClass: 2
Flags: MW
HStem: -364 1877
VStem: 117 178<592.5 928> 539 174 988 143
LayerCount: 2
Fore
SplineSet
812 190 m 1
 658 15 l 1
 591 55 521 119 477 155 c 1
 532 209 532 271 534 332 c 1
 539 1066 l 2
 539 1105 539 1161 533 1216 c 1
 450 1248 356 1276 278 1295 c 1
 232 1223 l 1
 283 1120 295 976 295 880 c 0
 295 755 289 570 286 458 c 0
 283 331 240 78 60 -364 c 1
 42 -354 31 -354 11 -346 c 1
 58 -198 89 -79 103 183 c 0
 113 372 117 530 117 655 c 0
 117 780 115 892 113 991 c 0
 111 1045 95 1113 52 1154 c 1
 168 1279 205 1331 321 1455 c 1
 387 1449 475 1432 560 1411 c 1
 751 1513 l 1
 715 1353 715 1174 715 997 c 2
 715 931 l 1
 883 1080 l 1
 1338 621 1071 -55 835 -330 c 1
 746 -294 l 1
 1050 19 1079 485 767 874 c 1
 716 831 l 1
 713 353 l 2
 713 246 729 239 812 190 c 1
EndSplineSet
Ligature2: "liga subtable" longs h
Ligature2: "ccmp subtable" longs afii301 h
EndChar

StartChar: longs_longs_i
Encoding: 65555 -1 238
Width: 1277
GlyphClass: 2
Flags: MW
HStem: -364 1819
VStem: 117 178<592.5 928> 559 178<592.5 928> 962 183<301.5 333 333 342 301.5 813>
LayerCount: 2
Fore
SplineSet
1106 1381 m 1
 1297 1341 l 1
 1145 1167 l 1
 1001 1209 l 1
 1106 1381 l 1
878 917 m 1
 1029 1088 l 1
 1199 955 l 1
 1185 930 1153 892 1149 857 c 1
 1145 342 l 1
 1145 333 l 2
 1145 270 1167 231 1219 210 c 1
 1066 31 l 1
 918 155 l 1
 957 201 962 232 962 278 c 2
 962 813 l 2
 962 845 947 874 878 917 c 1
1049 1403 m 1
 930 1227 l 1
 880 1257 787 1287 720 1295 c 1
 674 1223 l 1
 725 1120 737 976 737 880 c 0
 737 755 731 570 728 458 c 0
 725 331 682 78 502 -364 c 1
 484 -354 473 -354 453 -346 c 1
 500 -198 531 -79 545 183 c 0
 555 372 559 530 559 655 c 0
 559 780 557 892 555 991 c 0
 553 1045 537 1113 494 1154 c 1
 551 1216 l 1
 476 1246 334 1288 278 1295 c 1
 232 1223 l 1
 283 1120 295 976 295 880 c 0
 295 755 289 570 286 458 c 0
 283 331 240 78 60 -364 c 1
 42 -354 31 -354 11 -346 c 1
 58 -198 89 -79 103 183 c 0
 113 372 117 530 117 655 c 0
 117 780 115 892 113 991 c 0
 111 1045 95 1113 52 1154 c 1
 168 1279 205 1331 321 1455 c 1
 435 1440 578 1401 690 1375 c 1
 711 1399 735 1425 763 1455 c 1
 887 1440 914 1430 1049 1403 c 1
EndSplineSet
Ligature2: "liga subtable" longs longs i
Ligature2: "ccmp subtable" longs afii301 longs afii301 i
EndChar

StartChar: longs_l
Encoding: 65556 -1 239
Width: 853
GlyphClass: 2
Flags: MW
HStem: -364 1877
VStem: 117 178<592.5 928> 539 176<1066 1085.5>
LayerCount: 2
Fore
SplineSet
812 190 m 1
 658 15 l 1
 591 55 521 119 477 155 c 1
 532 209 532 271 534 332 c 1
 539 1066 l 2
 539 1105 539 1161 533 1216 c 1
 450 1248 356 1276 278 1295 c 1
 232 1223 l 1
 283 1120 295 976 295 880 c 0
 295 755 289 570 286 458 c 0
 283 331 240 78 60 -364 c 1
 42 -354 31 -354 11 -346 c 1
 58 -198 89 -79 103 183 c 0
 113 372 117 530 117 655 c 0
 117 780 115 892 113 991 c 0
 111 1045 95 1113 52 1154 c 1
 168 1279 205 1331 321 1455 c 1
 387 1449 475 1432 560 1411 c 1
 751 1513 l 1
 715 1353 715 1174 715 997 c 2
 713 353 l 2
 713 246 729 239 812 190 c 1
EndSplineSet
Ligature2: "liga subtable" longs l
Ligature2: "ccmp subtable" longs afii301 l
EndChar

StartChar: longs_longs_l
Encoding: 65557 -1 240
Width: 1284
GlyphClass: 2
Flags: MW
HStem: -364 1877
VStem: 117 178<592.5 928> 548 178<592.5 928> 970 176<1066 1085.5>
LayerCount: 2
Fore
SplineSet
1243 190 m 1
 1089 15 l 1
 1022 55 952 119 908 155 c 1
 963 209 963 271 965 332 c 1
 970 1066 l 2
 970 1105 970 1161 964 1216 c 1
 881 1248 787 1276 709 1295 c 1
 663 1223 l 1
 714 1120 726 976 726 880 c 0
 726 755 720 570 717 458 c 0
 714 331 671 78 491 -364 c 1
 473 -354 462 -354 442 -346 c 1
 489 -198 520 -79 534 183 c 0
 544 372 548 530 548 655 c 0
 548 780 546 892 544 991 c 0
 542 1045 526 1113 483 1154 c 1
 538 1214 l 1
 468 1245 337 1288 278 1295 c 1
 232 1223 l 1
 283 1120 295 976 295 880 c 0
 295 755 289 570 286 458 c 0
 283 331 240 78 60 -364 c 1
 42 -354 31 -354 11 -346 c 1
 58 -198 89 -79 103 183 c 0
 113 372 117 530 117 655 c 0
 117 780 115 892 113 991 c 0
 111 1045 95 1113 52 1154 c 1
 168 1279 205 1331 321 1455 c 1
 440 1440 566 1402 680 1376 c 1
 752 1455 l 1
 818 1449 906 1432 991 1411 c 1
 1182 1513 l 1
 1146 1353 1146 1174 1146 997 c 2
 1144 353 l 2
 1144 246 1160 239 1243 190 c 1
EndSplineSet
Ligature2: "liga subtable" longs longs l
Ligature2: "ccmp subtable" longs afii301 longs afii301 l
EndChar

StartChar: f_j
Encoding: 65558 -1 241
Width: 858
GlyphClass: 2
Flags: MW
HStem: 880 178<295 493 295 295>
VStem: 117 178<592.5 880> 532 184<813 824.5>
LayerCount: 2
Fore
SplineSet
532 813 m 2
 532 836 521 855 493 880 c 1
 295 880 l 1
 295 755 289 570 286 458 c 0
 283 331 240 78 60 -364 c 1
 42 -354 31 -354 11 -346 c 1
 58 -198 89 -79 103 183 c 0
 113 372 117 530 117 655 c 0
 117 780 115 892 113 991 c 0
 111 1045 95 1113 52 1154 c 1
 168 1279 205 1331 321 1455 c 1
 445 1440 482 1428 617 1401 c 1
 499 1226 l 1
 449 1256 345 1287 278 1295 c 1
 232 1223 l 1
 245 1196 277 1098 284 1058 c 1
 624 1058 l 1
 766 992 l 1
 736 924 716 911 716 759 c 0
 716 700 715 517 714 460 c 0
 712 338 683 136 477 -368 c 1
 459 -358 436 -349 428 -346 c 1
 497 -107 527 29 529 352 c 2
 532 813 l 2
674 1381 m 1
 865 1341 l 1
 713 1167 l 1
 569 1209 l 1
 674 1381 l 1
EndSplineSet
Ligature2: "liga subtable" f j
Ligature2: "ccmp subtable" f afii301 j
EndChar

